{
classes = (
{
automatic = 1;
code = "A Aacute Acircumflex Adieresis Agrave Aring Atilde AE B C Ccedilla D Eth E Eacute Ecircumflex Edieresis Egrave F G H I Iacute Icircumflex Idieresis Igrave J K L Lslash M N Ntilde O Oacute Ocircumflex Odieresis Ograve Oslash Otilde OE P Thorn Q R S Scaron T U Uacute Ucircumflex Udieresis Ugrave V W X Y Yacute Ydieresis Z Zcaron";
name = Uppercase;
}
);
copyright = "Copyright (c) 2011, 2015, 2016 Omnibus-Type (www.omnibus-type.com omnibus.type@gmail.com)";
customParameters = (
{
name = description;
value = "Copyright (c) 2011, 2015, 2016 Omnibus-Type (www.omnibus-type.com omnibus.type@gmail.com)";
},
{
name = trademark;
value = "Rosario Bold is a trademark of Omnibus-Type.";
},
{
name = licenseURL;
value = "http://scripts.sil.org/OFL";
},
{
name = license;
value = "This Font Software is licensed under the SIL Open Font License Version 1.1. ";
},
{
name = fsType;
value = (
);
},
{
name = "Family Alignment Zones";
value = (
"{724, 20}",
"{490, 20}",
"{0, -12}",
);
}
);
date = "2016-01-07 04:01:37 +0000";
designer = "Hector Gatti";
designerURL = "http://www.gattistudio.com.ar";
familyName = "Rosario";
featurePrefixes = (
{
automatic = 1;
code = "languagesystem DFLT dflt;\012";
name = Languagesystems;
}
);
features = (
{
automatic = 1;
code = "feature sups;\012feature frac;\012feature ordn;\012";
name = aalt;
},
{
automatic = 1;
code = "sub one by onesuperior;\012sub two by twosuperior;\012sub three by threesuperior;\012";
name = sups;
},
{
automatic = 1;
code = "sub one slash four by onequarter;\012sub one slash two by onehalf;\012sub three slash four by threequarters;\012";
name = frac;
},
{
automatic = 1;
code = "sub [zero one two three four five six seven eight nine] [A a]' by ordfeminine;\012sub [zero one two three four five six seven eight nine] [O o]' by ordmasculine;\012";
name = ordn;
},
{
automatic = 1;
code = "sub f i by fi;\012sub f l by fl;\012";
name = liga;
},
{
automatic = 1;
code = "pos @Uppercase <5 0 10 0>;\012";

glyphs = (
{
glyphname = A;
lastChange = "2015-02-06 22:45:45 +0000";
layers = (
{
hints = (
{
horizontal = 1;
place = "{249.000000, 67.000000}";
},
{
horizontal = 1;
place = "{0.000000, 21.000000}";
target = up;
type = BottomGhost;
},
{
horizontal = 1;
place = "{724.000000, -20.000000}";
target = down;
type = TopGhost;
}
);
layerId = UUID0;
name = "Regular Italic";
paths = (
{
closed = 1;
nodes = (
"561 0 LINE",
"419 724 LINE",
"332 724 LINE",
"-6 0 LINE",
"75 0 LINE",
"190 249 LINE",
"417 249 LINE",
"464 0 LINE"
);
},
{
closed = 1;
nodes = (
"404 316 LINE",
"221 316 LINE",
"351 602 LINE"
);
}
);
width = 605;
},
{
hints = (
{
place = "{-55.000000, 600.000000}";
},
{
horizontal = 1;
place = "{0.000000, 21.000000}";
target = up;
type = BottomGhost;
},
{
horizontal = 1;
place = "{210.000000, 98.000000}";
},
{
horizontal = 1;
place = "{732.000000, -20.000000}";
target = down;
type = TopGhost;
}
);
layerId = "D85D3C93-227B-4B8E-AED6-B444EF8D585A";
name = "Bold Italic";
paths = (
{
closed = 1;
nodes = (
"545 0 LINE",
"397 732 LINE",
"289 732 LINE",
"-55 0 LINE",
"69 0 LINE",
"168 210 LINE",
"364 210 LINE",
"405 0 LINE"
);
},
{
closed = 1;
nodes = (
"214 308 LINE",
"251 391 OFFCURVE",
"276 473 OFFCURVE",
"309 558 CURVE",
"320 474 OFFCURVE",
"328 391 OFFCURVE",
"343 308 CURVE"
);
}
);
width = 585;
}
);
leftKerningGroup = A;
rightKerningGroup = A;
unicode = 0041;
},
{
glyphname = AE;
lastChange = "2015-02-06 22:45:45 +0000";
layers = (
{
hints = (
{
horizontal = 1;
place = "{0.000000, 69.000000}";
},
{
horizontal = 1;
place = "{247.000000, 71.000000}";
},
{
horizontal = 1;
place = "{338.000000, 68.000000}";
},
{
horizontal = 1;
place = "{655.000000, 69.000000}";
}
);
layerId = UUID0;
name = "Regular Italic";
paths = (
{
closed = 1;
nodes = (
"864 724 LINE",
"395 724 LINE",
"400 660 LINE",
"-26 0 LINE",
"57 0 LINE",
"218 247 LINE",
"417 247 LINE",
"384 0 LINE",
"768 0 LINE",
"778 69 LINE",
"483 69 LINE",
"518 338 LINE",
"760 338 LINE",
"770 406 LINE",
"529 406 LINE",
"561 655 LINE",
"854 655 LINE"
);
},
{
closed = 1;
nodes = (
"469 637 LINE",
"427 318 LINE",
"264 318 LINE"
);
}
);
width = 820;
},
{
hints = (
{
place = "{-55.000000, 942.000000}";
},
{
horizontal = 1;
place = "{0.000000, 99.000000}";
},
{
horizontal = 1;
place = "{327.000000, 99.000000}";
},
{
horizontal = 1;
place = "{633.000000, 99.000000}";
},
{
horizontal = 1;
place = "{210.000000, 98.000000}";
},
{
horizontal = 1;
place = "{670.000000, 62.000000}";
}
);
layerId = "D85D3C93-227B-4B8E-AED6-B444EF8D585A";
name = "Bold Italic";
paths = (
{
closed = 1;
nodes = (
"887 732 LINE",
"373 732 LINE",
"378 670 LINE",
"-55 0 LINE",
"67 0 LINE",
"204 210 LINE",
"409 210 LINE",
"379 0 LINE",
"784 0 LINE",
"798 99 LINE",
"531 99 LINE",
"563 327 LINE",
"778 327 LINE",
"792 426 LINE",
"577 426 LINE",
"606 633 LINE",
"873 633 LINE"
);
},
{
closed = 1;
nodes = (
"466 633 LINE",
"422 308 LINE",
"268 308 LINE",
"429 562 LINE"
);
}
);
width = 862;
}
);
leftKerningGroup = A;
rightKerningGroup = E;
unicode = 00C6;
},
{
glyphname = B;
lastChange = "2015-02-06 23:14:38 +0000";
layers = (
{
background = {
paths = (
{
closed = 1;
nodes = (
"234 0 LINE",
"371 0 OFFCURVE",
"534 34 OFFCURVE",
"534 236 CURVE SMOOTH",
"534 317 OFFCURVE",
"485 382 OFFCURVE",
"404 395 CURVE",
"491 411 OFFCURVE",
"550 501 OFFCURVE",
"550 587 CURVE SMOOTH",
"550 695 OFFCURVE",
"460 724 OFFCURVE",
"361 724 CURVE SMOOTH",
"130 724 LINE",
"130 718 OFFCURVE",
"134 670 OFFCURVE",
"134 660 CURVE SMOOTH",
"134 659 OFFCURVE",
"134 659 OFFCURVE",
"134 659 CURVE",
"46 0 LINE"
);
},
{
closed = 1;
nodes = (
"191 425 LINE",
"222 656 LINE",
"349 656 LINE SMOOTH",
"407 656 OFFCURVE",
"457 637 OFFCURVE",
"457 573 CURVE SMOOTH",
"457 461 OFFCURVE",
"381 425 OFFCURVE",
"293 425 CURVE SMOOTH"
);
},
{
closed = 1;
nodes = (
"144 68 LINE",
"182 356 LINE",
"288 356 LINE SMOOTH",
"366 356 OFFCURVE",
"441 324 OFFCURVE",
"441 239 CURVE SMOOTH",
"441 103 OFFCURVE",
"347 68 OFFCURVE",
"249 68 CURVE SMOOTH"
);
}
);
};
hints = (
{
place = "{441.000000, 93.000000}";
},
{
place = "{456.000000, 94.000000}";
},
{
horizontal = 1;
place = "{0.000000, 69.000000}";
},
{
horizontal = 1;
place = "{355.000000, 72.000000}";
},
{
horizontal = 1;
place = "{655.000000, 69.000000}";
},
{
horizontal = 1;
origin = "{0, 5}";
type = Anchor;
},
{
horizontal = 1;
origin = "{0, 2}";
type = Anchor;
},
{
horizontal = 1;
origin = "{0, 5}";
target = "{2, 3}";
other1 = "{0, 4}";
other2 = "{1, 4}";
type = Diagonal;
},
{
horizontal = 1;
origin = "{1, 8}";
target = "{0, 15}";
type = TTStem;
},
{
horizontal = 1;
origin = "{0, 9}";
target = "{2, 8}";
type = TTStem;
},
{
horizontal = 1;
origin = "{0, 5}";
target = "{2, 2}";
type = TTStem;
},
{
horizontal = 1;
origin = "{0, 15}";
target = "{0, 9}";
other1 = "{0, 12}";
type = Interpolate;
},
{
horizontal = 1;
origin = "{1, 5}";
target = "{0, 2}";
type = TTStem;
},
{
horizontal = 1;
origin = "{2, 5}";
target = "{1, 3}";
type = TTStem;
},
{
horizontal = 1;
origin = "{1, 8}";
target = "{2, 8}";
other1 = "{1, 2}";
type = Interpolate;
}
);
layerId = UUID0;
name = "Regular Italic";
paths = (
{
closed = 1;
nodes = (
"550 690 OFFCURVE",
"459 724 OFFCURVE",
"356 724 CURVE SMOOTH",
"134 724 LINE",
"134 659 LINE",
"45 0 LINE",
"234 0 LINE SMOOTH",
"391 0 OFFCURVE",
"534 50 OFFCURVE",
"534 235 CURVE SMOOTH",
"534 323 OFFCURVE",
"482 375 OFFCURVE",
"404 395 CURVE",
"489 418 OFFCURVE",
"550 484 OFFCURVE",
"550 574 CURVE SMOOTH"
);
},
{
closed = 1;
nodes = (
"456 470 OFFCURVE",
"389 427 OFFCURVE",
"292 427 CURVE SMOOTH",
"193 427 LINE",
"223 655 LINE",
"345 655 LINE SMOOTH",
"404 655 OFFCURVE",
"456 635 OFFCURVE",
"456 570 CURVE SMOOTH"
);
},
{
closed = 1;
nodes = (
"441 119 OFFCURVE",
"362 69 OFFCURVE",
"248 69 CURVE SMOOTH",
"145 69 LINE",
"182 355 LINE",
"288 355 LINE SMOOTH",
"365 355 OFFCURVE",
"441 326 OFFCURVE",
"441 241 CURVE SMOOTH"
);
}
);
width = 580;
},
{
hints = (
{
place = "{408.000000, 141.000000}";
},
{
place = "{397.000000, 136.000000}";
},
{
horizontal = 1;
place = "{0.000000, 99.000000}";
},
{
horizontal = 1;
place = "{347.000000, 99.000000}";
},
{
horizontal = 1;
place = "{633.000000, 99.000000}";
}
);
layerId = "D85D3C93-227B-4B8E-AED6-B444EF8D585A";
name = "Bold Italic";
paths = (
{
closed = 1;
nodes = (
"549 706 OFFCURVE",
"438 732 OFFCURVE",
"343 732 CURVE SMOOTH",
"95 732 LINE",
"101 671 LINE",
"11 0 LINE",
"254 0 LINE SMOOTH",
"394 0 OFFCURVE",
"533 73 OFFCURVE",
"533 229 CURVE SMOOTH",
"533 318 OFFCURVE",
"469 384 OFFCURVE",
"383 399 CURVE",
"478 413 OFFCURVE",
"549 493 OFFCURVE",
"549 589 CURVE SMOOTH"
);
},
{
closed = 1;
nodes = (
"408 497 OFFCURVE",
"363 446 OFFCURVE",
"299 446 CURVE SMOOTH",
"202 446 LINE",
"227 633 LINE",
"321 633 LINE SMOOTH",
"370 633 OFFCURVE",
"408 613 OFFCURVE",
"408 559 CURVE SMOOTH"
);
},
{
closed = 1;
nodes = (
"397 158 OFFCURVE",
"340 99 OFFCURVE",
"258 99 CURVE SMOOTH",
"156 99 LINE",
"189 347 LINE",
"263 347 LINE SMOOTH",
"331 347 OFFCURVE",
"397 315 OFFCURVE",
"397 239 CURVE SMOOTH"
);
}
);
width = 566;
}
);
leftKerningGroup = M;
unicode = 0042;
},
{
glyphname = C;
lastChange = "2015-02-06 22:45:45 +0000";
layers = (
{
hints = (
{
place = "{45.000000, 97.000000}";
},
{
horizontal = 1;
place = "{-10.000000, 75.000000}";
},
{
horizontal = 1;
place = "{665.000000, 69.000000}";
}
);
layerId = UUID0;
name = "Regular Italic";
paths = (
{
closed = 1;
nodes = (
"620 657 LINE",
"571 714 OFFCURVE",
"491 734 OFFCURVE",
"423 734 CURVE SMOOTH",
"181 734 OFFCURVE",
"45 516 OFFCURVE",
"45 298 CURVE SMOOTH",
"45 128 OFFCURVE",
"137 -10 OFFCURVE",
"322 -10 CURVE SMOOTH",
"396 -10 OFFCURVE",
"478 14 OFFCURVE",
"541 59 CURVE",
"510 127 LINE",
"457 88 OFFCURVE",
"393 65 OFFCURVE",
"333 65 CURVE SMOOTH",
"195 65 OFFCURVE",
"142 167 OFFCURVE",
"142 292 CURVE SMOOTH",
"142 454 OFFCURVE",
"225 665 OFFCURVE",
"413 665 CURVE SMOOTH",
"468 665 OFFCURVE",
"524 645 OFFCURVE",
"564 599 CURVE"
);
}
);
width = 585;
},
{
hints = (
{
place = "{17.000000, 143.000000}";
},
{
horizontal = 1;
place = "{-12.000000, 94.000000}";
},
{
horizontal = 1;
place = "{649.000000, 97.000000}";
}
);
layerId = "D85D3C93-227B-4B8E-AED6-B444EF8D585A";
name = "Bold Italic";
paths = (
{
closed = 1;
nodes = (
"622 675 LINE",
"573 726 OFFCURVE",
"474 746 OFFCURVE",
"406 746 CURVE SMOOTH",
"157 746 OFFCURVE",
"17 522 OFFCURVE",
"17 293 CURVE SMOOTH",
"17 110 OFFCURVE",
"114 -12 OFFCURVE",
"304 -12 CURVE SMOOTH",
"397 -12 OFFCURVE",
"465 14 OFFCURVE",
"543 62 CURVE",
"496 157 LINE",
"447 113 OFFCURVE",
"392 82 OFFCURVE",
"324 82 CURVE SMOOTH",
"200 82 OFFCURVE",
"160 218 OFFCURVE",
"160 320 CURVE SMOOTH",
"160 462 OFFCURVE",
"230 649 OFFCURVE",
"398 649 CURVE SMOOTH",
"449 649 OFFCURVE",
"510 626 OFFCURVE",
"541 583 CURVE"
);
}
);
width = 587;
}
);
leftKerningGroup = O;
rightKerningGroup = C;
unicode = 0043;
},
{
glyphname = Ccedilla;
lastChange = "2015-02-06 22:45:45 +0000";
layers = (
{
components = (
{
name = C;
},
{
name = cedilla;
transform = "{1, 0, 0, 1, 155, 0}";
}
);
layerId = UUID0;
name = "Regular Italic";
width = 585;
},
{
hints = (
{
place = "{17.000000, 143.000000}";
},
{
place = "{275.000000, 98.000000}";
},
{
horizontal = 1;
place = "{-10.000000, 21.000000}";
target = up;
type = BottomGhost;
},
{
horizontal = 1;
place = "{649.000000, 97.000000}";
},
{
horizontal = 1;
place = "{-10.000000, 92.000000}";
}
);
layerId = "D85D3C93-227B-4B8E-AED6-B444EF8D585A";
name = "Bold Italic";
paths = (
{
closed = 1;
nodes = (
"622 675 LINE",
"573 726 OFFCURVE",
"474 746 OFFCURVE",
"406 746 CURVE SMOOTH",
"157 746 OFFCURVE",
"17 522 OFFCURVE",
"17 293 CURVE SMOOTH",
"17 123 OFFCURVE",
"101 5 OFFCURVE",
"267 -10 CURVE",
"218 -82 LINE",
"252 -92 OFFCURVE",
"275 -101 OFFCURVE",
"275 -118 CURVE SMOOTH",
"275 -151 OFFCURVE",
"224 -154 OFFCURVE",
"199 -158 CURVE",
"215 -220 LINE",
"292 -209 OFFCURVE",
"373 -185 OFFCURVE",
"373 -112 CURVE SMOOTH",
"373 -74 OFFCURVE",
"345 -53 OFFCURVE",
"323 -42 CURVE",
"344 -10 LINE",
"417 -4 OFFCURVE",
"476 21 OFFCURVE",
"543 62 CURVE",
"496 157 LINE",
"447 113 OFFCURVE",
"392 82 OFFCURVE",
"324 82 CURVE SMOOTH",
"200 82 OFFCURVE",
"160 218 OFFCURVE",
"160 320 CURVE SMOOTH",
"160 462 OFFCURVE",
"230 649 OFFCURVE",
"398 649 CURVE SMOOTH",
"449 649 OFFCURVE",
"510 626 OFFCURVE",
"541 583 CURVE"
);
}
);
width = 585;
}
);
leftKerningGroup = O;
rightKerningGroup = C;
unicode = 00C7;
},
{
glyphname = D;
lastChange = "2015-02-06 22:45:45 +0000";
layers = (
{
background = {
paths = (
{
closed = 1;
nodes = (
"639 595 OFFCURVE",
"560 724 OFFCURVE",
"378 724 CURVE SMOOTH",
"130 724 LINE",
"134 659 LINE",
"45 0 LINE",
"275 0 LINE SMOOTH",
"524 0 OFFCURVE",
"639 218 OFFCURVE",
"639 434 CURVE SMOOTH"
);
},
{
closed = 1;
nodes = (
"545 278 OFFCURVE",
"468 68 OFFCURVE",
"281 68 CURVE SMOOTH",
"145 68 LINE",
"223 655 LINE",
"369 655 LINE SMOOTH",
"503 655 OFFCURVE",
"545 544 OFFCURVE",
"545 430 CURVE SMOOTH"
);
}
);
};
hints = (
{
place = "{545.000000, 94.000000}";
},
{
horizontal = 1;
place = "{0.000000, 69.000000}";
},
{
horizontal = 1;
place = "{655.000000, 69.000000}";
}
);
layerId = UUID0;
name = "Regular Italic";
paths = (
{
closed = 1;
nodes = (
"639 595 OFFCURVE",
"560 724 OFFCURVE",
"378 724 CURVE SMOOTH",
"134 724 LINE",
"134 659 LINE",
"45 0 LINE",
"275 0 LINE SMOOTH",
"524 0 OFFCURVE",
"639 218 OFFCURVE",
"639 434 CURVE SMOOTH"
);
},
{
closed = 1;
nodes = (
"545 278 OFFCURVE",
"468 69 OFFCURVE",
"281 69 CURVE SMOOTH",
"145 69 LINE",
"223 655 LINE",
"369 655 LINE SMOOTH",
"503 655 OFFCURVE",
"545 544 OFFCURVE",
"545 430 CURVE SMOOTH"
);
}
);
width = 679;
},
{
hints = (
{
place = "{505.000000, 142.000000}";
},
{
horizontal = 1;
place = "{0.000000, 99.000000}";
},
{
horizontal = 1;
place = "{633.000000, 99.000000}";
}
);
layerId = "D85D3C93-227B-4B8E-AED6-B444EF8D585A";
name = "Bold Italic";
paths = (
{
closed = 1;
nodes = (
"647 618 OFFCURVE",
"542 732 OFFCURVE",
"357 732 CURVE SMOOTH",
"94 732 LINE",
"101 671 LINE",
"11 0 LINE",
"258 0 LINE SMOOTH",
"502 0 OFFCURVE",
"647 207 OFFCURVE",
"647 435 CURVE SMOOTH"
);
},
{
closed = 1;
nodes = (
"505 277 OFFCURVE",
"436 99 OFFCURVE",
"266 99 CURVE SMOOTH",
"156 99 LINE",
"227 633 LINE",
"335 633 LINE SMOOTH",
"461 633 OFFCURVE",
"505 534 OFFCURVE",
"505 423 CURVE SMOOTH"
);
}
);
width = 664;
}
);
leftKerningGroup = M;
rightKerningGroup = O;
unicode = 0044;
},
{
glyphname = Eth;
lastChange = "2015-02-06 22:45:45 +0000";
layers = (
{
background = {
paths = (
{
closed = 1;
nodes = (
"272 0 LINE",
"487 0 OFFCURVE",
"609 152 OFFCURVE",
"637 362 CURVE SMOOTH",
"672 625 OFFCURVE",
"542 728 OFFCURVE",
"309 728 CURVE SMOOTH",
"131 728 LINE",
"131 722 OFFCURVE",
"135 664 OFFCURVE",
"134 662 CURVE SMOOTH",
"99 395 LINE",
"22 395 LINE",
"13 331 LINE",
"90 331 LINE",
"45 0 LINE"
);
},
{
closed = 1;
nodes = (
"144 69 LINE",
"179 331 LINE",
"328 331 LINE",
"336 395 LINE",
"188 395 LINE",
"223 659 LINE",
"293 659 LINE SMOOTH",
"484 659 OFFCURVE",
"573 575 OFFCURVE",
"545 364 CURVE SMOOTH",
"523 202 OFFCURVE",
"444 69 OFFCURVE",
"270 69 CURVE SMOOTH"
);
}
);
};
hints = (
{
place = "{545.000000, 94.000000}";
},
{
horizontal = 1;
place = "{0.000000, 69.000000}";
},
{
horizontal = 1;
place = "{338.000000, 64.000000}";
},
{
horizontal = 1;
place = "{655.000000, 69.000000}";
}
);
layerId = UUID0;
name = "Regular Italic";
paths = (
{
closed = 1;
nodes = (
"12 338 LINE",
"90 338 LINE",
"45 0 LINE",
"275 0 LINE SMOOTH",
"524 0 OFFCURVE",
"639 218 OFFCURVE",
"639 434 CURVE SMOOTH",
"639 595 OFFCURVE",
"560 724 OFFCURVE",
"378 724 CURVE SMOOTH",
"134 724 LINE",
"134 659 LINE",
"99 402 LINE",
"22 402 LINE"
);
},
{
closed = 1;
nodes = (
"545 278 OFFCURVE",
"468 69 OFFCURVE",
"281 69 CURVE SMOOTH",
"145 69 LINE",
"181 338 LINE",
"328 338 LINE",
"338 402 LINE",
"189 402 LINE",
"223 655 LINE",
"369 655 LINE SMOOTH",
"503 655 OFFCURVE",
"545 544 OFFCURVE",
"545 430 CURVE SMOOTH"
);
}
);
width = 679;
},
{
hints = (
{
place = "{505.000000, 142.000000}";
},
{
horizontal = 1;
place = "{0.000000, 99.000000}";
},
{
horizontal = 1;
place = "{324.000000, 88.000000}";
},
{
horizontal = 1;
place = "{633.000000, 99.000000}";
}
);
layerId = "D85D3C93-227B-4B8E-AED6-B444EF8D585A";
name = "Bold Italic";
paths = (
{
closed = 1;
nodes = (
"258 0 LINE",
"348 0 OFFCURVE",
"435 27 OFFCURVE",
"509 95 CURVE SMOOTH",
"604 182 OFFCURVE",
"647 317 OFFCURVE",
"647 435 CURVE SMOOTH",
"647 614 OFFCURVE",
"544 732 OFFCURVE",
"356 732 CURVE SMOOTH",
"93 732 LINE",
"94 727 OFFCURVE",
"99 678 OFFCURVE",
"100 672 CURVE",
"66 412 LINE",
"-13 412 LINE",
"-24 324 LINE",
"54 324 LINE",
"11 0 LINE"
);
},
{
closed = 1;
nodes = (
"155 99 LINE",
"185 324 LINE",
"328 324 LINE",
"340 412 LINE",
"197 412 LINE",
"226 633 LINE",
"335 633 LINE SMOOTH",
"460 633 OFFCURVE",
"505 534 OFFCURVE",
"505 422 CURVE SMOOTH",
"505 267 OFFCURVE",
"430 99 OFFCURVE",
"266 99 CURVE SMOOTH"
);
}
);
width = 664;
}
);
leftKerningGroup = M;
rightKerningGroup = O;
unicode = 00D0;
},
{
glyphname = E;
lastChange = "2015-02-06 22:45:45 +0000";
layers = (
{
background = {
paths = (
{
closed = 1;
nodes = (
"544 723 LINE",
"128 723 LINE",
"133 658 LINE",
"45 0 LINE",
"447 0 LINE",
"456 68 LINE",
"143 68 LINE",
"179 337 LINE",
"421 337 LINE",
"431 405 LINE",
"189 405 LINE",
"221 654 LINE",
"534 654 LINE"
);
}
);
};
hints = (
{
horizontal = 1;
place = "{0.000000, 69.000000}";
},
{
horizontal = 1;
place = "{337.000000, 68.000000}";
},
{
horizontal = 1;
place = "{655.000000, 69.000000}";
}
);
layerId = UUID0;
name = "Regular Italic";
paths = (
{
closed = 1;
nodes = (
"544 724 LINE",
"133 724 LINE",
"133 659 LINE",
"45 0 LINE",
"447 0 LINE",
"456 69 LINE",
"143 69 LINE",
"179 337 LINE",
"421 337 LINE",
"431 405 LINE",
"189 405 LINE",
"221 655 LINE",
"534 655 LINE"
);
}
);
width = 500;
},
{
hints = (
{
place = "{11.000000, 521.000000}";
},
{
horizontal = 1;
place = "{0.000000, 99.000000}";
},
{
horizontal = 1;
place = "{327.000000, 99.000000}";
},
{
horizontal = 1;
place = "{633.000000, 99.000000}";
}
);
layerId = "D85D3C93-227B-4B8E-AED6-B444EF8D585A";
name = "Bold Italic";
paths = (
{
closed = 1;
nodes = (
"532 732 LINE",
"94 732 LINE",
"101 671 LINE",
"11 0 LINE",
"434 0 LINE",
"447 99 LINE",
"155 99 LINE",
"185 327 LINE",
"409 327 LINE",
"422 426 LINE",
"198 426 LINE",
"226 633 LINE",
"519 633 LINE"
);
}
);
width = 507;
}
);
leftKerningGroup = M;
rightKerningGroup = E;
unicode = 0045;
},
{
glyphname = F;
lastChange = "2015-02-06 22:45:45 +0000";
layers = (
{
hints = (
{
horizontal = 1;
place = "{655.000000, 69.000000}";
},
{
horizontal = 1;
place = "{338.000000, 68.000000}";
},
{
horizontal = 1;
place = "{0.000000, 21.000000}";
target = up;
type = BottomGhost;
}
);
layerId = UUID0;
name = "Regular Italic";
paths = (
{
closed = 1;
nodes = (
"512 724 LINE",
"132 724 LINE",
"132 659 LINE",
"44 0 LINE",
"133 0 LINE",
"179 338 LINE",
"402 338 LINE",
"412 406 LINE",
"189 406 LINE",
"221 655 LINE",
"503 655 LINE"
);
}
);
width = 468;
},
{
hints = (
{
place = "{11.000000, 491.000000}";
},
{
horizontal = 1;
place = "{0.000000, 21.000000}";
target = up;
type = BottomGhost;
},
{
horizontal = 1;
place = "{327.000000, 99.000000}";
},
{
horizontal = 1;
place = "{633.000000, 99.000000}";
}
);
layerId = "D85D3C93-227B-4B8E-AED6-B444EF8D585A";
name = "Bold Italic";
paths = (
{
closed = 1;
nodes = (
"502 732 LINE",
"95 732 LINE",
"101 671 LINE",
"11 0 LINE",
"142 0 LINE",
"186 327 LINE",
"389 327 LINE",
"402 426 LINE",
"199 426 LINE",
"227 633 LINE",
"489 633 LINE"
);
}
);
width = 467;
}
);
leftKerningGroup = M;
unicode = 0046;
},
{
glyphname = G;
lastChange = "2015-02-06 22:45:45 +0000";
layers = (
{
hints = (
{
place = "{45.000000, 95.000000}";
},
{
horizontal = 1;
place = "{-10.000000, 75.000000}";
},
{
horizontal = 1;
place = "{305.000000, 68.000000}";
},
{
horizontal = 1;
place = "{665.000000, 69.000000}";
},
{
horizontal = 1;
place = "{0.000000, 21.000000}";
target = up;
type = BottomGhost;
}
);
layerId = UUID0;
name = "Regular Italic";
paths = (
{
closed = 1;
nodes = (
"640 651 LINE",
"590 712 OFFCURVE",
"490 734 OFFCURVE",
"422 734 CURVE SMOOTH",
"172 734 OFFCURVE",
"45 502 OFFCURVE",
"45 281 CURVE SMOOTH",
"45 122 OFFCURVE",
"122 -10 OFFCURVE",
"299 -10 CURVE SMOOTH",
"380 -10 OFFCURVE",
"449 18 OFFCURVE",
"509 75 CURVE",
"528 0 LINE",
"576 0 LINE",
"587 127 OFFCURVE",
"600 246 OFFCURVE",
"619 373 CURVE",
"359 373 LINE",
"350 305 LINE",
"519 305 LINE",
"511 240 LINE SMOOTH",
"498 142 OFFCURVE",
"423 65 OFFCURVE",
"323 65 CURVE SMOOTH",
"187 65 OFFCURVE",
"140 171 OFFCURVE",
"140 292 CURVE SMOOTH",
"140 459 OFFCURVE",
"220 665 OFFCURVE",
"413 665 CURVE SMOOTH",
"486 665 OFFCURVE",
"533 644 OFFCURVE",
"583 592 CURVE"
);
}
);
width = 667;
},
{
hints = (
{
place = "{17.000000, 141.000000}";
},
{
horizontal = 1;
place = "{-11.000000, 96.000000}";
},
{
horizontal = 1;
place = "{302.000000, 88.000000}";
},
{
horizontal = 1;
place = "{650.000000, 94.000000}";
},
{
horizontal = 1;
place = "{-1.000000, 21.000000}";
target = up;
type = BottomGhost;
}
);
layerId = "D85D3C93-227B-4B8E-AED6-B444EF8D585A";
name = "Bold Italic";
paths = (
{
closed = 1;
nodes = (
"655 665 LINE",
"605 723 OFFCURVE",
"495 744 OFFCURVE",
"422 744 CURVE SMOOTH",
"161 744 OFFCURVE",
"17 527 OFFCURVE",
"17 284 CURVE SMOOTH",
"17 115 OFFCURVE",
"101 -11 OFFCURVE",
"281 -11 CURVE SMOOTH",
"371 -11 OFFCURVE",
"432 17 OFFCURVE",
"500 75 CURVE",
"521 -1 LINE",
"589 -1 LINE",
"600 130 OFFCURVE",
"619 260 OFFCURVE",
"638 390 CURVE",
"361 390 LINE",
"350 302 LINE",
"494 302 LINE",
"486 240 LINE SMOOTH",
"475 159 OFFCURVE",
"410 85 OFFCURVE",
"316 85 CURVE SMOOTH",
"193 85 OFFCURVE",
"158 207 OFFCURVE",
"158 308 CURVE SMOOTH",
"158 462 OFFCURVE",
"228 650 OFFCURVE",
"409 650 CURVE SMOOTH",
"486 650 OFFCURVE",
"518 632 OFFCURVE",
"575 583 CURVE"
);
}
);
width = 668;
}
);
leftKerningGroup = O;
unicode = 0047;
},
{
glyphname = H;
lastChange = "2015-02-06 23:34:04 +0000";
layers = (
{
hints = (
{
horizontal = 1;
place = "{342.000000, 68.000000}";
},
{
horizontal = 1;
place = "{724.000000, -20.000000}";
target = down;
type = TopGhost;
},
{
horizontal = 1;
place = "{0.000000, 21.000000}";
target = up;
type = BottomGhost;
}
);
layerId = UUID0;
name = "Regular Italic";
paths = (
{
closed = 1;
nodes = (
"656 724 LINE",
"566 724 LINE",
"524 410 LINE",
"190 410 LINE",
"232 724 LINE",
"133 724 LINE",
"133 659 LINE",
"44 0 LINE",
"134 0 LINE",
"180 342 LINE",
"514 342 LINE",
"468 0 LINE",
"558 0 LINE"
);
}
);
width = 672;
},
{
hints = (
{
horizontal = 1;
place = "{0.000000, 21.000000}";
target = up;
type = BottomGhost;
},
{
horizontal = 1;
place = "{327.000000, 99.000000}";
},
{
horizontal = 1;
place = "{732.000000, -20.000000}";
target = down;
type = TopGhost;
}
);
layerId = "D85D3C93-227B-4B8E-AED6-B444EF8D585A";
name = "Bold Italic";
paths = (
{
closed = 1;
nodes = (
"663 732 LINE",
"531 732 LINE",
"490 426 LINE",
"198 426 LINE",
"239 732 LINE",
"95 732 LINE",
"101 671 LINE",
"11 0 LINE",
"142 0 LINE",
"185 327 LINE",
"477 327 LINE",
"433 0 LINE",
"565 0 LINE"
);
}
);
width = 674;
}
);
leftKerningGroup = M;
rightKerningGroup = M;
unicode = 0048;
},
{
glyphname = I;
lastChange = "2015-02-06 22:45:45 +0000";
layers = (
{
hints = (
{
horizontal = 1;
place = "{724.000000, -20.000000}";
target = down;
type = TopGhost;
},
{
horizontal = 1;
place = "{0.000000, 21.000000}";
target = up;
type = BottomGhost;
}
);
layerId = UUID0;
name = "Regular Italic";
paths = (
{
closed = 1;
nodes = (
"235 724 LINE",
"136 724 LINE",
"136 659 LINE",
"47 0 LINE",
"137 0 LINE"
);
}
);
width = 251;
},
{
hints = (
{
place = "{11.000000, 228.000000}";
},
{
horizontal = 1;
place = "{0.000000, 21.000000}";
target = up;
type = BottomGhost;
},
{
horizontal = 1;
place = "{732.000000, -20.000000}";
target = down;
type = TopGhost;
}
);
layerId = "D85D3C93-227B-4B8E-AED6-B444EF8D585A";
name = "Bold Italic";
paths = (
{
closed = 1;
nodes = (
"239 732 LINE",
"95 732 LINE",
"101 671 LINE",
"11 0 LINE",
"142 0 LINE"
);
}
);
width = 250;
}
);
unicode = 0049;
},
{
glyphname = J;
lastChange = "2015-02-06 22:45:45 +0000";
layers = (
{
hints = (
{
horizontal = 1;
place = "{-229.000000, 64.000000}";
},
{
horizontal = 1;
place = "{724.000000, -20.000000}";
target = down;
type = TopGhost;
}
);
layerId = UUID0;
name = "Regular Italic";
paths = (
{
closed = 1;
nodes = (
"238 724 LINE",
"140 724 LINE",
"140 660 LINE",
"52 17 LINE SMOOTH",
"40 -71 OFFCURVE",
"10 -165 OFFCURVE",
"-68 -165 CURVE SMOOTH",
"-99 -165 OFFCURVE",
"-113 -160 OFFCURVE",
"-141 -140 CURVE",
"-181 -197 LINE",
"-145 -224 OFFCURVE",
"-105 -229 OFFCURVE",
"-67 -229 CURVE SMOOTH",
"75 -229 OFFCURVE",
"120 -127 OFFCURVE",
"139 9 CURVE SMOOTH"
);
}
);
width = 253;
},
{
hints = (
{
place = "{-226.000000, 469.000000}";
},
{
horizontal = 1;
place = "{-230.000000, 91.000000}";
},
{
horizontal = 1;
place = "{732.000000, -20.000000}";
target = down;
type = TopGhost;
}
);
layerId = "D85D3C93-227B-4B8E-AED6-B444EF8D585A";
name = "Bold Italic";
paths = (
{
closed = 1;
nodes = (
"243 732 LINE",
"99 732 LINE",
"105 671 LINE",
"21 47 LINE SMOOTH",
"12 -16 OFFCURVE",
"-7 -139 OFFCURVE",
"-90 -139 CURVE SMOOTH",
"-116 -139 OFFCURVE",
"-147 -122 OFFCURVE",
"-164 -103 CURVE",
"-226 -186 LINE",
"-188 -212 OFFCURVE",
"-130 -230 OFFCURVE",
"-84 -230 CURVE SMOOTH",
"115 -230 OFFCURVE",
"136 -76 OFFCURVE",
"157 81 CURVE SMOOTH"
);
}
);
width = 254;
}
);
leftKerningGroup = M;
rightKerningGroup = M;
unicode = 004A;
},
{
glyphname = K;
lastChange = "2015-02-06 22:45:45 +0000";
layers = (
{
background = {
paths = (
{
closed = 1;
nodes = (
"597 722 LINE",
"503 722 LINE",
"188 401 LINE",
"231 722 LINE",
"128 722 LINE",
"132 657 LINE",
"44 0 LINE",
"134 0 LINE",
"185 379 LINE",
"407 0 LINE",
"518 0 LINE",
"281 401 LINE"
);
}
);
};
hints = (
{
horizontal = 1;
place = "{724.000000, -20.000000}";
target = down;
type = TopGhost;
},
{
horizontal = 1;
place = "{0.000000, 21.000000}";
target = up;
type = BottomGhost;
}
);
layerId = UUID0;
name = "Regular Italic";
paths = (
{
closed = 1;
nodes = (
"598 724 LINE",
"504 724 LINE",
"188 401 LINE",
"232 724 LINE",
"133 724 LINE",
"133 659 LINE",
"44 0 LINE",
"134 0 LINE",
"185 379 LINE",
"407 0 LINE",
"518 0 LINE",
"281 401 LINE"
);
}
);
width = 558;
},
{
hints = (
{
place = "{11.000000, 577.000000}";
},
{
horizontal = 1;
place = "{0.000000, 21.000000}";
target = up;
type = BottomGhost;
},
{
horizontal = 1;
place = "{732.000000, -20.000000}";
target = down;
type = TopGhost;
}
);
layerId = "D85D3C93-227B-4B8E-AED6-B444EF8D585A";
name = "Bold Italic";
paths = (
{
closed = 1;
nodes = (
"588 732 LINE",
"447 732 LINE",
"192 383 LINE",
"239 732 LINE",
"95 732 LINE",
"101 671 LINE",
"11 0 LINE",
"142 0 LINE",
"192 377 LINE",
"361 0 LINE",
"515 0 LINE",
"330 387 LINE"
);
}
);
width = 553;
}
);
leftKerningGroup = M;
unicode = 004B;
},
{
glyphname = L;
lastChange = "2015-02-06 22:45:45 +0000";
layers = (
{
background = {
paths = (
{
closed = 1;
nodes = (
"435 68 LINE",
"146 68 LINE",
"233 722 LINE",
"129 722 LINE",
"133 657 LINE",
"45 0 LINE",
"425 0 LINE"
);
}
);
};
hints = (
{
horizontal = 1;
place = "{0.000000, 69.000000}";
},
{
horizontal = 1;
place = "{724.000000, -20.000000}";
target = down;
type = TopGhost;
}
);
layerId = UUID0;
name = "Regular Italic";
paths = (
{
closed = 1;
nodes = (
"435 69 LINE",
"146 69 LINE",
"234 724 LINE",
"134 724 LINE",
"134 659 LINE",
"45 0 LINE",
"425 0 LINE"
);
}
);
width = 471;
},
{
hints = (
{
place = "{11.000000, 417.000000}";
},
{
horizontal = 1;
place = "{0.000000, 99.000000}";
},
{
horizontal = 1;
place = "{732.000000, -20.000000}";
target = down;
type = TopGhost;
}
);
layerId = "D85D3C93-227B-4B8E-AED6-B444EF8D585A";
name = "Bold Italic";
paths = (
{
closed = 1;
nodes = (
"428 99 LINE",
"156 99 LINE",
"240 732 LINE",
"96 732 LINE",
"101 671 LINE",
"11 0 LINE",
"415 0 LINE"
);
}
);
width = 458;
}
);
leftKerningGroup = M;
rightKerningGroup = L;
unicode = 004C;
},
{
glyphname = Lslash;
lastChange = "2015-02-06 22:45:45 +0000";
layers = (
{
background = {
paths = (
{
closed = 1;
nodes = (
"428 0 LINE",
"437 69 LINE",
"144 69 LINE",
"178 320 LINE",
"388 416 LINE",
"398 485 LINE",
"188 389 LINE",
"233 728 LINE",
"131 728 LINE",
"131 722 OFFCURVE",
"136 664 OFFCURVE",
"135 662 CURVE SMOOTH",
"93 346 LINE",
"13 310 LINE",
"5 241 LINE",
"83 277 LINE",
"46 0 LINE"
);
}
);
};
hints = (
{
horizontal = 1;
place = "{0.000000, 69.000000}";
},
{
horizontal = 1;
place = "{724.000000, -20.000000}";
target = down;
type = TopGhost;
}
);
layerId = UUID0;
name = "Regular Italic";
paths = (
{
closed = 1;
nodes = (
"388 417 LINE",
"398 485 LINE",
"189 390 LINE",
"234 724 LINE",
"134 724 LINE",
"134 659 LINE",
"91 345 LINE",
"14 310 LINE",
"4 242 LINE",
"82 278 LINE",
"45 0 LINE",
"425 0 LINE",
"435 69 LINE",
"146 69 LINE",
"180 322 LINE"
);
}
);
width = 471;
},
{
hints = (
{
place = "{-6.000000, 450.000000}";
},
{
horizontal = 1;
place = "{0.000000, 99.000000}";
},
{
horizontal = 1;
place = "{498.000000, -20.000000}";
target = down;
type = TopGhost;
},
{
horizontal = 1;
place = "{732.000000, -20.000000}";
target = down;
type = TopGhost;
}
);
layerId = "D85D3C93-227B-4B8E-AED6-B444EF8D585A";
name = "Bold Italic";
paths = (
{
closed = 1;
nodes = (
"431 0 LINE",
"444 99 LINE",
"171 99 LINE",
"199 309 LINE",
"398 400 LINE",
"411 498 LINE",
"212 406 LINE",
"255 732 LINE",
"111 732 LINE",
"111 727 OFFCURVE",
"115 679 OFFCURVE",
"115 672 CURVE",
"71 342 LINE",
"5 312 LINE",
"-6 215 LINE",
"59 245 LINE",
"26 0 LINE"
);
}
);
width = 492;
}
);
leftKerningGroup = M;
unicode = 0141;
},
{
glyphname = M;
lastChange = "2015-02-06 22:45:45 +0000";
layers = (
{
background = {
paths = (
{
closed = 1;
nodes = (
"773 722 LINE",
"655 722 LINE",
"381 161 LINE",
"256 722 LINE",
"128 722 LINE",
"132 658 LINE",
"44 0 LINE",
"117 0 LINE",
"197 588 LINE",
"325 -2 LINE",
"378 -2 LINE",
"664 587 LINE",
"585 0 LINE",
"675 0 LINE"
);
}
);
};
hints = (
{
horizontal = 1;
place = "{724.000000, -20.000000}";
target = down;
type = TopGhost;
},
{
horizontal = 1;
place = "{0.000000, 21.000000}";
target = up;
type = BottomGhost;
},
{
horizontal = 1;
place = "{-2.000000, 21.000000}";
target = up;
type = BottomGhost;
}
);
layerId = UUID0;
name = "Regular Italic";
paths = (
{
closed = 1;
nodes = (
"773 724 LINE",
"655 724 LINE",
"381 161 LINE",
"256 724 LINE",
"132 724 LINE",
"132 660 LINE",
"44 0 LINE",
"117 0 LINE",
"197 590 LINE",
"325 -2 LINE",
"378 -2 LINE",
"664 589 LINE",
"585 0 LINE",
"675 0 LINE"
);
}
);
width = 789;
},
{
hints = (
{
place = "{11.000000, 808.000000}";
},
{
horizontal = 1;
place = "{0.000000, 21.000000}";
target = up;
type = BottomGhost;
},
{
horizontal = 1;
place = "{732.000000, -20.000000}";
target = down;
type = TopGhost;
},
{
horizontal = 1;
place = "{-1.000000, 21.000000}";
target = up;
type = BottomGhost;
},
{
horizontal = 1;
place = "{568.000000, 164.000000}";
}
);
layerId = "D85D3C93-227B-4B8E-AED6-B444EF8D585A";
name = "Bold Italic";
paths = (
{
closed = 1;
nodes = (
"819 732 LINE",
"632 732 LINE",
"432 307 LINE SMOOTH",
"414 270 OFFCURVE",
"403 234 OFFCURVE",
"390 190 CURVE",
"388 231 OFFCURVE",
"388 271 OFFCURVE",
"379 311 CURVE SMOOTH",
"287 732 LINE",
"95 732 LINE",
"100 671 LINE",
"11 0 LINE",
"120 0 LINE",
"187 496 LINE SMOOTH",
"190 520 OFFCURVE",
"190 545 OFFCURVE",
"191 568 CURVE",
"194 539 OFFCURVE",
"203 505 OFFCURVE",
"205 496 CURVE SMOOTH",
"314 -1 LINE",
"402 -1 LINE",
"638 496 LINE SMOOTH",
"650 520 OFFCURVE",
"660 544 OFFCURVE",
"670 568 CURVE",
"666 545 OFFCURVE",
"659 520 OFFCURVE",
"656 496 CURVE SMOOTH",
"590 0 LINE",
"721 0 LINE"
);
}
);
width = 830;
}
);
leftKerningGroup = M;
rightKerningGroup = M;
unicode = 004D;
},
{
glyphname = N;
lastChange = "2015-02-06 22:45:45 +0000";
layers = (
{
background = {
paths = (
{
closed = 1;
nodes = (
"657 722 LINE",
"584 722 LINE",
"510 183 LINE",
"248 722 LINE",
"130 722 LINE",
"134 657 LINE",
"45 0 LINE",
"119 0 LINE",
"201 610 LINE",
"502 -5 LINE",
"559 -5 LINE"
);
}
);
};
hints = (
{
horizontal = 1;
place = "{724.000000, -20.000000}";
target = down;
type = TopGhost;
},
{
horizontal = 1;
place = "{0.000000, 21.000000}";
target = up;
type = BottomGhost;
},
{
horizontal = 1;
place = "{-5.000000, 21.000000}";
target = up;
type = BottomGhost;
}
);
layerId = UUID0;
name = "Regular Italic";
paths = (
{
closed = 1;
nodes = (
"657 724 LINE",
"584 724 LINE",
"510 183 LINE",
"248 724 LINE",
"134 724 LINE",
"134 659 LINE",
"45 0 LINE",
"119 0 LINE",
"201 612 LINE",
"502 -5 LINE",
"559 -5 LINE"
);
}
);
width = 674;
},
{
hints = (
{
place = "{11.000000, 660.000000}";
},
{
horizontal = 1;
place = "{0.000000, 21.000000}";
target = up;
type = BottomGhost;
},
{
horizontal = 1;
place = "{732.000000, -20.000000}";
target = down;
type = TopGhost;
},
{
horizontal = 1;
place = "{-5.000000, 21.000000}";
target = up;
type = BottomGhost;
}
);
layerId = "D85D3C93-227B-4B8E-AED6-B444EF8D585A";
name = "Bold Italic";
paths = (
{
closed = 1;
nodes = (
"671 732 LINE",
"560 732 LINE",
"503 304 LINE SMOOTH",
"500 279 OFFCURVE",
"501 252 OFFCURVE",
"499 227 CURVE",
"487 254 OFFCURVE",
"477 279 OFFCURVE",
"470 293 CURVE SMOOTH",
"254 732 LINE",
"95 732 LINE",
"100 671 LINE",
"11 0 LINE",
"119 0 LINE",
"186 497 LINE SMOOTH",
"189 518 OFFCURVE",
"188 542 OFFCURVE",
"189 564 CURVE",
"199 542 OFFCURVE",
"209 519 OFFCURVE",
"220 497 CURVE SMOOTH",
"465 -5 LINE",
"572 -5 LINE"
);
}
);
width = 682;
}
);
leftKerningGroup = M;
rightKerningGroup = M;
unicode = 004E;
},
{
glyphname = O;
lastChange = "2015-02-07 00:09:30 +0000";
layers = (
{
hints = (
{
horizontal = 1;
place = "{-10.000000, 69.000000}";
},
{
horizontal = 1;
place = "{665.000000, 69.000000}";
}
);
layerId = UUID0;
name = "Regular Italic";
paths = (
{
closed = 1;
nodes = (
"668 603 OFFCURVE",
"590 734 OFFCURVE",
"407 734 CURVE SMOOTH",
"165 734 OFFCURVE",
"45 502 OFFCURVE",
"45 289 CURVE SMOOTH",
"45 127 OFFCURVE",
"123 -10 OFFCURVE",
"304 -10 CURVE SMOOTH",
"546 -10 OFFCURVE",
"668 216 OFFCURVE",
"668 438 CURVE SMOOTH"
);
},
{
closed = 1;
nodes = (
"574 275 OFFCURVE",
"504 59 OFFCURVE",
"317 59 CURVE SMOOTH",
"182 59 OFFCURVE",
"140 174 OFFCURVE",
"140 291 CURVE SMOOTH",
"140 449 OFFCURVE",
"212 665 OFFCURVE",
"398 665 CURVE SMOOTH",
"532 665 OFFCURVE",
"574 551 OFFCURVE",
"574 433 CURVE SMOOTH"
);
}
);
width = 708;
},
{
hints = (
{
place = "{17.000000, 140.000000}";
},
{
place = "{549.000000, 141.000000}";
},
{
horizontal = 1;
place = "{-11.000000, 95.000000}";
},
{
horizontal = 1;
place = "{648.000000, 95.000000}";
}
);
layerId = "D85D3C93-227B-4B8E-AED6-B444EF8D585A";
name = "Bold Italic";
paths = (
{
closed = 1;
nodes = (
"690 622 OFFCURVE",
"590 743 OFFCURVE",
"401 743 CURVE SMOOTH",
"154 743 OFFCURVE",
"17 523 OFFCURVE",
"17 295 CURVE SMOOTH",
"17 117 OFFCURVE",
"113 -11 OFFCURVE",
"300 -11 CURVE SMOOTH",
"549 -11 OFFCURVE",
"690 209 OFFCURVE",
"690 439 CURVE SMOOTH"
);
},
{
closed = 1;
nodes = (
"549 293 OFFCURVE",
"491 84 OFFCURVE",
"316 84 CURVE SMOOTH",
"192 84 OFFCURVE",
"157 193 OFFCURVE",
"157 298 CURVE SMOOTH",
"157 439 OFFCURVE",
"216 648 OFFCURVE",
"390 648 CURVE SMOOTH",
"514 648 OFFCURVE",
"549 540 OFFCURVE",
"549 434 CURVE SMOOTH"
);
}
);
width = 707;
}
);
leftKerningGroup = O;
rightKerningGroup = O;
unicode = 004F;
},
{
glyphname = Oslash;
lastChange = "2015-02-06 22:45:45 +0000";
layers = (
{
hints = (
{
place = "{57.000000, 95.000000}";
},
{
place = "{587.000000, 94.000000}";
},
{
horizontal = 1;
place = "{-13.000000, 68.000000}";
},
{
horizontal = 1;
place = "{664.000000, 69.000000}";
},
{
horizontal = 1;
place = "{762.000000, -20.000000}";
target = down;
type = TopGhost;
},
{
horizontal = 1;
place = "{-56.000000, 21.000000}";
target = up;
type = BottomGhost;
}
);
layerId = UUID0;
name = "Regular Italic";
paths = (
{
closed = 1;
nodes = (
"681 509 OFFCURVE",
"665 588 OFFCURVE",
"616 647 CURVE",
"680 731 LINE",
"632 762 LINE",
"575 687 LINE",
"529 719 OFFCURVE",
"472 733 OFFCURVE",
"416 733 CURVE SMOOTH",
"173 733 OFFCURVE",
"57 492 OFFCURVE",
"57 282 CURVE SMOOTH",
"57 212 OFFCURVE",
"72 137 OFFCURVE",
"117 79 CURVE",
"38 -23 LINE",
"84 -56 LINE",
"156 39 LINE",
"201 2 OFFCURVE",
"259 -13 OFFCURVE",
"316 -13 CURVE SMOOTH",
"559 -13 OFFCURVE",
"681 224 OFFCURVE",
"681 436 CURVE SMOOTH"
);
},
{
closed = 1;
nodes = (
"174 158 LINE",
"157 198 OFFCURVE",
"152 241 OFFCURVE",
"152 284 CURVE SMOOTH",
"152 442 OFFCURVE",
"222 664 OFFCURVE",
"410 664 CURVE SMOOTH",
"453 664 OFFCURVE",
"494 650 OFFCURVE",
"524 621 CURVE"
);
},
{
closed = 1;
nodes = (
"587 274 OFFCURVE",
"517 55 OFFCURVE",
"329 55 CURVE SMOOTH",
"282 55 OFFCURVE",
"238 71 OFFCURVE",
"206 106 CURVE",
"560 571 LINE",
"580 528 OFFCURVE",
"587 480 OFFCURVE",
"587 433 CURVE SMOOTH"
);
}
);
width = 737;
},
{
hints = (
{
place = "{22.000000, 140.000000}";
},
{
place = "{554.000000, 141.000000}";
},
{
horizontal = 1;
place = "{-11.000000, 95.000000}";
},
{
horizontal = 1;
place = "{648.000000, 95.000000}";
},
{
horizontal = 1;
place = "{770.000000, -20.000000}";
target = down;
type = TopGhost;
}
);
layerId = "D85D3C93-227B-4B8E-AED6-B444EF8D585A";
name = "Bold Italic";
paths = (
{
closed = 1;
nodes = (
"695 520 OFFCURVE",
"676 589 OFFCURVE",
"637 641 CURVE",
"695 715 LINE",
"624 770 LINE",
"570 702 LINE",
"527 729 OFFCURVE",
"472 743 OFFCURVE",
"406 743 CURVE SMOOTH",
"159 743 OFFCURVE",
"22 523 OFFCURVE",
"22 295 CURVE SMOOTH",
"22 211 OFFCURVE",
"43 137 OFFCURVE",
"86 84 CURVE",
"12 -11 LINE",
"83 -66 LINE",
"154 25 LINE",
"195 2 OFFCURVE",
"245 -11 OFFCURVE",
"304 -11 CURVE SMOOTH",
"554 -11 OFFCURVE",
"695 209 OFFCURVE",
"695 439 CURVE SMOOTH"
);
},
{
closed = 1;
nodes = (
"175 198 LINE",
"166 229 OFFCURVE",
"162 263 OFFCURVE",
"162 298 CURVE SMOOTH",
"162 439 OFFCURVE",
"221 648 OFFCURVE",
"395 648 CURVE SMOOTH",
"440 648 OFFCURVE",
"474 633 OFFCURVE",
"498 610 CURVE"
);
},
{
closed = 1;
nodes = (
"554 293 OFFCURVE",
"496 84 OFFCURVE",
"321 84 CURVE SMOOTH",
"280 84 OFFCURVE",
"249 96 OFFCURVE",
"225 116 CURVE",
"544 523 LINE",
"551 495 OFFCURVE",
"554 464 OFFCURVE",
"554 434 CURVE SMOOTH"
);
}
);
width = 708;
}
);
leftKerningGroup = O;
rightKerningGroup = O;
unicode = 00D8;
},
{
glyphname = OE;
lastChange = "2015-02-06 22:45:45 +0000";
layers = (
{
background = {
paths = (
{
closed = 1;
nodes = (
"1022 724 LINE",
"620 724 LINE",
"609 642 LINE",
"564 705 OFFCURVE",
"494 733 OFFCURVE",
"404 733 CURVE SMOOTH",
"217 733 OFFCURVE",
"81 584 OFFCURVE",
"51 363 CURVE SMOOTH",
"38 268 OFFCURVE",
"44 156 OFFCURVE",
"109 76 CURVE SMOOTH",
"162 11 OFFCURVE",
"233 -12 OFFCURVE",
"305 -12 CURVE SMOOTH",
"385 -12 OFFCURVE",
"464 15 OFFCURVE",
"533 81 CURVE",
"522 0 LINE",
"924 0 LINE",
"934 71 LINE",
"622 71 LINE",
"657 336 LINE",
"899 336 LINE",
"909 408 LINE",
"667 408 LINE",
"700 654 LINE",
"1012 654 LINE"
);
},
{
closed = 1;
nodes = (
"578 421 OFFCURVE",
"574 389 OFFCURVE",
"569 355 CURVE SMOOTH",
"560 289 OFFCURVE",
"549 231 OFFCURVE",
"526 188 CURVE SMOOTH",
"479 101 OFFCURVE",
"400 56 OFFCURVE",
"317 56 CURVE SMOOTH",
"184 56 OFFCURVE",
"120 176 OFFCURVE",
"146 364 CURVE SMOOTH",
"173 564 OFFCURVE",
"278 665 OFFCURVE",
"398 665 CURVE SMOOTH",
"486 665 OFFCURVE",
"552 613 OFFCURVE",
"574 532 CURVE SMOOTH",
"581 508 OFFCURVE",
"582 481 OFFCURVE",
"580 451 CURVE SMOOTH"
);
}
);
};
hints = (
{
place = "{45.000000, 95.000000}";
},
{
horizontal = 1;
place = "{-10.000000, 69.000000}";
},
{
horizontal = 1;
place = "{337.000000, 68.000000}";
},
{
horizontal = 1;
place = "{665.000000, 69.000000}";
},
{
horizontal = 1;
place = "{0.000000, 21.000000}";
target = up;
type = BottomGhost;
},
{
horizontal = 1;
place = "{724.000000, -20.000000}";
target = down;
type = TopGhost;
}
);
layerId = UUID0;
name = "Regular Italic";
paths = (
{
closed = 1;
nodes = (
"616 724 LINE",
"606 648 LINE",
"564 701 OFFCURVE",
"498 734 OFFCURVE",
"407 734 CURVE SMOOTH",
"165 734 OFFCURVE",
"45 502 OFFCURVE",
"45 289 CURVE SMOOTH",
"45 127 OFFCURVE",
"123 -10 OFFCURVE",
"304 -10 CURVE SMOOTH",
"397 -10 OFFCURVE",
"472 23 OFFCURVE",
"530 77 CURVE",
"520 0 LINE",
"922 0 LINE",
"931 69 LINE",
"618 69 LINE",
"654 337 LINE",
"896 337 LINE",
"906 405 LINE",
"664 405 LINE",
"696 655 LINE",
"1009 655 LINE",
"1019 724 LINE"
);
},
{
closed = 1;
nodes = (
"574 275 OFFCURVE",
"504 59 OFFCURVE",
"317 59 CURVE SMOOTH",
"182 59 OFFCURVE",
"140 174 OFFCURVE",
"140 291 CURVE SMOOTH",
"140 449 OFFCURVE",
"212 665 OFFCURVE",
"398 665 CURVE SMOOTH",
"532 665 OFFCURVE",
"574 551 OFFCURVE",
"574 433 CURVE SMOOTH"
);
}
);
width = 978;
},
{
hints = (
{
place = "{17.000000, 140.000000}";
},
{
horizontal = 1;
place = "{0.000000, 99.000000}";
},
{
horizontal = 1;
place = "{327.000000, 99.000000}";
},
{
horizontal = 1;
place = "{633.000000, 99.000000}";
},
{
horizontal = 1;
place = "{-11.000000, 95.000000}";
},
{
horizontal = 1;
place = "{648.000000, 95.000000}";
}
);
layerId = "D85D3C93-227B-4B8E-AED6-B444EF8D585A";
name = "Bold Italic";
paths = (
{
closed = 1;
nodes = (
"1018 732 LINE",
"595 732 LINE",
"586 667 LINE",
"537 720 OFFCURVE",
"479 743 OFFCURVE",
"401 743 CURVE SMOOTH",
"154 743 OFFCURVE",
"17 523 OFFCURVE",
"17 295 CURVE SMOOTH",
"17 117 OFFCURVE",
"113 -11 OFFCURVE",
"300 -11 CURVE SMOOTH",
"379 -11 OFFCURVE",
"442 7 OFFCURVE",
"506 68 CURVE",
"497 0 LINE",
"920 0 LINE",
"933 99 LINE",
"641 99 LINE",
"671 327 LINE",
"895 327 LINE",
"908 426 LINE",
"684 426 LINE",
"712 633 LINE",
"1005 633 LINE"
);
},
{
closed = 1;
nodes = (
"549 293 OFFCURVE",
"491 84 OFFCURVE",
"316 84 CURVE SMOOTH",
"192 84 OFFCURVE",
"157 193 OFFCURVE",
"157 298 CURVE SMOOTH",
"157 439 OFFCURVE",
"216 648 OFFCURVE",
"390 648 CURVE SMOOTH",
"514 648 OFFCURVE",
"549 540 OFFCURVE",
"549 434 CURVE SMOOTH"
);
}
);
width = 993;
}
);
leftKerningGroup = O;
rightKerningGroup = E;
unicode = 0152;
},
{
glyphname = P;
lastChange = "2015-02-06 22:45:45 +0000";
layers = (
{
hints = (
{
place = "{450.000000, 94.000000}";
},
{
horizontal = 1;
place = "{655.000000, 69.000000}";
},
{
horizontal = 1;
place = "{286.000000, 67.000000}";
},
{
horizontal = 1;
place = "{0.000000, 21.000000}";
target = up;
type = BottomGhost;
}
);
layerId = UUID0;
name = "Regular Italic";
paths = (
{
closed = 1;
nodes = (
"544 677 OFFCURVE",
"449 724 OFFCURVE",
"332 724 CURVE SMOOTH",
"135 724 LINE",
"135 659 LINE",
"46 0 LINE",
"137 0 LINE",
"175 286 LINE",
"279 286 LINE SMOOTH",
"436 286 OFFCURVE",
"544 387 OFFCURVE",
"544 543 CURVE SMOOTH"
);
},
{
closed = 1;
nodes = (
"450 435 OFFCURVE",
"389 353 OFFCURVE",
"285 353 CURVE SMOOTH",
"185 353 LINE",
"225 655 LINE",
"324 655 LINE SMOOTH",
"404 655 OFFCURVE",
"450 612 OFFCURVE",
"450 532 CURVE SMOOTH"
);
}
);
width = 539;
},
{
hints = (
{
place = "{402.000000, 139.000000}";
},
{
horizontal = 1;
place = "{0.000000, 21.000000}";
target = up;
type = BottomGhost;
},
{
horizontal = 1;
place = "{294.000000, 97.000000}";
},
{
horizontal = 1;
place = "{633.000000, 99.000000}";
}
);
layerId = "D85D3C93-227B-4B8E-AED6-B444EF8D585A";
name = "Bold Italic";
paths = (
{
closed = 1;
nodes = (
"541 678 OFFCURVE",
"435 732 OFFCURVE",
"316 732 CURVE SMOOTH",
"95 732 LINE",
"101 671 LINE",
"11 0 LINE",
"142 0 LINE",
"181 294 LINE",
"258 294 LINE SMOOTH",
"417 294 OFFCURVE",
"541 374 OFFCURVE",
"541 541 CURVE SMOOTH"
);
},
{
closed = 1;
nodes = (
"402 462 OFFCURVE",
"357 391 OFFCURVE",
"275 391 CURVE SMOOTH",
"195 391 LINE",
"227 633 LINE",
"308 633 LINE SMOOTH",
"369 633 OFFCURVE",
"402 599 OFFCURVE",
"402 538 CURVE SMOOTH"
);
}
);
width = 539;
}
);
leftKerningGroup = M;
unicode = 0050;
},
{
glyphname = Thorn;
lastChange = "2015-02-06 22:45:45 +0000";
layers = (
{
background = {
paths = (
{
closed = 1;
nodes = (
"171 250 LINE",
"210 541 LINE",
"313 541 LINE SMOOTH",
"393 541 OFFCURVE",
"434 499 OFFCURVE",
"434 428 CURVE SMOOTH",
"434 325 OFFCURVE",
"368 250 OFFCURVE",
"274 250 CURVE SMOOTH"
);
},
{
closed = 1;
nodes = (
"137 0 LINE",
"162 182 LINE",
"258 182 LINE SMOOTH",
"395 182 OFFCURVE",
"529 261 OFFCURVE",
"529 439 CURVE SMOOTH",
"529 564 OFFCURVE",
"438 610 OFFCURVE",
"315 610 CURVE SMOOTH",
"220 610 LINE",
"236 727 LINE",
"132 727 LINE",
"137 661 LINE",
"48 0 LINE"
);
}
);
};
hints = (
{
place = "{435.000000, 94.000000}";
},
{
horizontal = 1;
place = "{541.000000, 183.000000}";
},
{
horizontal = 1;
place = "{541.000000, 69.000000}";
},
{
horizontal = 1;
place = "{172.000000, 67.000000}";
},
{
horizontal = 1;
place = "{0.000000, 21.000000}";
target = up;
type = BottomGhost;
}
);
layerId = UUID0;
name = "Regular Italic";
paths = (
{
closed = 1;
nodes = (
"236 724 LINE",
"135 724 LINE",
"135 659 LINE",
"46 0 LINE",
"137 0 LINE",
"160 172 LINE",
"264 172 LINE SMOOTH",
"421 172 OFFCURVE",
"529 273 OFFCURVE",
"529 429 CURVE SMOOTH",
"529 563 OFFCURVE",
"434 610 OFFCURVE",
"317 610 CURVE SMOOTH",
"221 610 LINE"
);
},
{
closed = 1;
nodes = (
"435 321 OFFCURVE",
"374 239 OFFCURVE",
"270 239 CURVE SMOOTH",
"170 239 LINE",
"210 541 LINE",
"309 541 LINE SMOOTH",
"389 541 OFFCURVE",
"435 498 OFFCURVE",
"435 418 CURVE SMOOTH"
);
}
);
width = 539;
},
{
hints = (
{
place = "{403.000000, 141.000000}";
},
{
horizontal = 1;
place = "{0.000000, 21.000000}";
target = up;
type = BottomGhost;
},
{
horizontal = 1;
place = "{179.000000, 97.000000}";
},
{
horizontal = 1;
place = "{518.000000, 99.000000}";
},
{
horizontal = 1;
place = "{732.000000, -20.000000}";
target = down;
type = TopGhost;
}
);
layerId = "D85D3C93-227B-4B8E-AED6-B444EF8D585A";
name = "Bold Italic";
paths = (
{
closed = 1;
nodes = (
"159 0 LINE",
"183 179 LINE",
"261 179 LINE SMOOTH",
"400 179 OFFCURVE",
"544 256 OFFCURVE",
"544 437 CURVE SMOOTH",
"544 572 OFFCURVE",
"443 617 OFFCURVE",
"317 617 CURVE SMOOTH",
"243 617 LINE",
"258 732 LINE",
"113 732 LINE",
"113 727 OFFCURVE",
"118 673 OFFCURVE",
"118 671 CURVE SMOOTH",
"29 0 LINE"
);
},
{
closed = 1;
nodes = (
"197 276 LINE",
"229 518 LINE",
"310 518 LINE SMOOTH",
"373 518 OFFCURVE",
"403 481 OFFCURVE",
"403 422 CURVE SMOOTH",
"403 339 OFFCURVE",
"353 276 OFFCURVE",
"277 276 CURVE SMOOTH"
);
}
);
width = 575;
}
);
leftKerningGroup = M;
unicode = 00DE;
},
{
glyphname = Q;
lastChange = "2015-02-06 22:45:45 +0000";
layers = (
{
hints = (
{
place = "{45.000000, 95.000000}";
},
{
place = "{574.000000, 94.000000}";
},
{
horizontal = 1;
place = "{-222.000000, 64.000000}";
},
{
horizontal = 1;
place = "{665.000000, 69.000000}";
}
);
layerId = UUID0;
name = "Regular Italic";
paths = (
{
closed = 1;
nodes = (
"1069 -128 LINE",
"1013 -144 OFFCURVE",
"953 -158 OFFCURVE",
"899 -158 CURVE SMOOTH",
"776 -158 OFFCURVE",
"602 -71 OFFCURVE",
"493 -10 CURVE SMOOTH",
"476 0 OFFCURVE",
"457 8 OFFCURVE",
"439 15 CURVE",
"596 87 OFFCURVE",
"668 275 OFFCURVE",
"668 436 CURVE SMOOTH",
"668 601 OFFCURVE",
"590 734 OFFCURVE",
"407 734 CURVE SMOOTH",
"165 734 OFFCURVE",
"45 500 OFFCURVE",
"45 287 CURVE SMOOTH",
"45 149 OFFCURVE",
"106 11 OFFCURVE",
"281 -11 CURVE SMOOTH",
"434 -31 OFFCURVE",
"658 -222 OFFCURVE",
"857 -222 CURVE SMOOTH",
"942 -222 OFFCURVE",
"1002 -203 OFFCURVE",
"1084 -175 CURVE"
);
},
{
closed = 1;
nodes = (
"574 273 OFFCURVE",
"504 56 OFFCURVE",
"317 56 CURVE SMOOTH",
"182 56 OFFCURVE",
"140 171 OFFCURVE",
"140 289 CURVE SMOOTH",
"140 446 OFFCURVE",
"212 665 OFFCURVE",
"398 665 CURVE SMOOTH",
"532 665 OFFCURVE",
"574 549 OFFCURVE",
"574 430 CURVE SMOOTH"
);
}
);
width = 714;
},
{
hints = (
{
place = "{17.000000, 141.000000}";
},
{
place = "{551.000000, 139.000000}";
},
{
horizontal = 1;
place = "{-216.000000, 94.000000}";
},
{
horizontal = 1;
place = "{648.000000, 96.000000}";
}
);
layerId = "D85D3C93-227B-4B8E-AED6-B444EF8D585A";
name = "Bold Italic";
paths = (
{
closed = 1;
nodes = (
"1046 -87 LINE",
"998 -101 OFFCURVE",
"915 -122 OFFCURVE",
"866 -122 CURVE SMOOTH",
"738 -122 OFFCURVE",
"578 -34 OFFCURVE",
"468 27 CURVE",
"616 105 OFFCURVE",
"690 271 OFFCURVE",
"690 433 CURVE SMOOTH",
"690 612 OFFCURVE",
"594 744 OFFCURVE",
"405 744 CURVE SMOOTH",
"156 744 OFFCURVE",
"17 518 OFFCURVE",
"17 290 CURVE SMOOTH",
"17 136 OFFCURVE",
"86 29 OFFCURVE",
"240 -8 CURVE SMOOTH",
"280 -18 OFFCURVE",
"319 -24 OFFCURVE",
"357 -42 CURVE SMOOTH",
"492 -105 OFFCURVE",
"662 -216 OFFCURVE",
"814 -216 CURVE SMOOTH",
"910 -216 OFFCURVE",
"983 -191 OFFCURVE",
"1070 -160 CURVE"
);
},
{
closed = 1;
nodes = (
"551 292 OFFCURVE",
"488 85 OFFCURVE",
"317 85 CURVE SMOOTH",
"195 85 OFFCURVE",
"158 193 OFFCURVE",
"158 297 CURVE SMOOTH",
"158 434 OFFCURVE",
"223 648 OFFCURVE",
"392 648 CURVE SMOOTH",
"515 648 OFFCURVE",
"551 536 OFFCURVE",
"551 432 CURVE SMOOTH"
);
}
);
width = 707;
}
);
leftKerningGroup = O;
rightKerningGroup = O;
unicode = 0051;
},
{
glyphname = R;
lastChange = "2015-02-06 22:45:45 +0000";
layers = (
{
background = {
paths = (
{
closed = 1;
nodes = (
"545 678 OFFCURVE",
"454 722 OFFCURVE",
"349 722 CURVE SMOOTH",
"129 722 LINE",
"133 657 LINE",
"44 0 LINE",
"135 0 LINE",
"178 324 LINE",
"178 324 OFFCURVE",
"259 323 OFFCURVE",
"296 326 CURVE",
"431 0 LINE",
"534 0 LINE",
"386 343 LINE",
"481 371 OFFCURVE",
"545 459 OFFCURVE",
"545 556 CURVE SMOOTH"
);
},
{
closed = 1;
nodes = (
"451 436 OFFCURVE",
"369 392 OFFCURVE",
"261 392 CURVE SMOOTH",
"188 392 LINE",
"223 653 LINE",
"326 653 LINE SMOOTH",
"395 653 OFFCURVE",
"451 621 OFFCURVE",
"451 549 CURVE SMOOTH"
);
}
);
};
hints = (
{
place = "{451.000000, 94.000000}";
},
{
horizontal = 1;
place = "{324.000000, 68.000000}";
},
{
horizontal = 1;
place = "{655.000000, 69.000000}";
},
{
horizontal = 1;
place = "{0.000000, 21.000000}";
target = up;
type = BottomGhost;
}
);
layerId = UUID0;
name = "Regular Italic";
paths = (
{
closed = 1;
nodes = (
"545 678 OFFCURVE",
"454 724 OFFCURVE",
"349 724 CURVE SMOOTH",
"133 724 LINE",
"133 659 LINE",
"44 0 LINE",
"135 0 LINE",
"178 324 LINE",
"206 324 LINE SMOOTH",
"233 324 OFFCURVE",
"273 324 OFFCURVE",
"296 326 CURVE",
"431 0 LINE",
"534 0 LINE",
"386 343 LINE",
"481 371 OFFCURVE",
"545 459 OFFCURVE",
"545 556 CURVE SMOOTH"
);
},
{
closed = 1;
nodes = (
"451 436 OFFCURVE",
"369 392 OFFCURVE",
"261 392 CURVE SMOOTH",
"188 392 LINE",
"223 655 LINE",
"326 655 LINE SMOOTH",
"395 655 OFFCURVE",
"451 621 OFFCURVE",
"451 549 CURVE SMOOTH"
);
}
);
width = 568;
},
{
hints = (
{
place = "{404.000000, 139.000000}";
},
{
horizontal = 1;
place = "{0.000000, 21.000000}";
target = up;
type = BottomGhost;
},
{
horizontal = 1;
place = "{326.000000, 98.000000}";
},
{
horizontal = 1;
place = "{632.000000, 100.000000}";
}
);
layerId = "D85D3C93-227B-4B8E-AED6-B444EF8D585A";
name = "Bold Italic";
paths = (
{
closed = 1;
nodes = (
"543 678 OFFCURVE",
"443 732 OFFCURVE",
"334 732 CURVE SMOOTH",
"95 732 LINE",
"101 671 LINE",
"11 0 LINE",
"142 0 LINE",
"186 326 LINE",
"238 326 LINE",
"387 0 LINE",
"535 0 LINE",
"369 347 LINE",
"468 372 OFFCURVE",
"543 450 OFFCURVE",
"543 552 CURVE SMOOTH"
);
},
{
closed = 1;
nodes = (
"404 458 OFFCURVE",
"341 424 OFFCURVE",
"259 424 CURVE SMOOTH",
"199 424 LINE",
"226 632 LINE",
"308 632 LINE SMOOTH",
"360 632 OFFCURVE",
"404 605 OFFCURVE",
"404 549 CURVE SMOOTH"
);
}
);
width = 565;
}
);
leftKerningGroup = M;
unicode = 0052;
},
{
glyphname = S;
lastChange = "2015-02-06 22:45:45 +0000";
layers = (
{
hints = (
{
place = "{98.000000, 92.000000}";
},
{
place = "{364.000000, 94.000000}";
},
{
horizontal = 1;
place = "{-10.000000, 69.000000}";
},
{
horizontal = 1;
place = "{665.000000, 69.000000}";
}
);
layerId = UUID0;
name = "Regular Italic";
paths = (
{
closed = 1;
nodes = (
"498 687 LINE",
"450 719 OFFCURVE",
"395 734 OFFCURVE",
"338 734 CURVE SMOOTH",
"214 734 OFFCURVE",
"98 667 OFFCURVE",
"98 535 CURVE SMOOTH",
"98 340 OFFCURVE",
"364 361 OFFCURVE",
"364 208 CURVE SMOOTH",
"364 129 OFFCURVE",
"290 59 OFFCURVE",
"211 59 CURVE SMOOTH",
"143 59 OFFCURVE",
"111 78 OFFCURVE",
"54 119 CURVE",
"12 44 LINE",
"73 10 OFFCURVE",
"141 -10 OFFCURVE",
"207 -10 CURVE SMOOTH",
"343 -10 OFFCURVE",
"458 80 OFFCURVE",
"458 221 CURVE SMOOTH",
"458 425 OFFCURVE",
"190 413 OFFCURVE",
"190 550 CURVE SMOOTH",
"190 624 OFFCURVE",
"260 665 OFFCURVE",
"331 665 CURVE SMOOTH",
"380 665 OFFCURVE",
"415 652 OFFCURVE",
"456 619 CURVE"
);
}
);
width = 507;
},
{
hints = (
{
place = "{54.000000, 144.000000}";
},
{
place = "{317.000000, 143.000000}";
},
{
horizontal = 1;
place = "{-12.000000, 96.000000}";
},
{
horizontal = 1;
place = "{648.000000, 96.000000}";
}
);
layerId = "D85D3C93-227B-4B8E-AED6-B444EF8D585A";
name = "Bold Italic";
paths = (
{
closed = 1;
nodes = (
"509 684 LINE",
"470 719 OFFCURVE",
"385 744 OFFCURVE",
"333 744 CURVE SMOOTH",
"185 744 OFFCURVE",
"54 676 OFFCURVE",
"54 514 CURVE SMOOTH",
"54 326 OFFCURVE",
"317 336 OFFCURVE",
"317 204 CURVE SMOOTH",
"317 131 OFFCURVE",
"253 84 OFFCURVE",
"184 84 CURVE SMOOTH",
"124 84 OFFCURVE",
"67 113 OFFCURVE",
"27 157 CURVE",
"-36 49 LINE",
"27 6 OFFCURVE",
"108 -12 OFFCURVE",
"183 -12 CURVE SMOOTH",
"332 -12 OFFCURVE",
"460 85 OFFCURVE",
"460 240 CURVE SMOOTH",
"460 434 OFFCURVE",
"198 423 OFFCURVE",
"198 550 CURVE SMOOTH",
"198 612 OFFCURVE",
"250 648 OFFCURVE",
"307 648 CURVE SMOOTH",
"352 648 OFFCURVE",
"419 625 OFFCURVE",
"450 592 CURVE"
);
}
);
width = 495;
}
);
leftKerningGroup = S;
rightKerningGroup = S;
unicode = 0053;
},
{
glyphname = T;
lastChange = "2015-02-06 23:36:18 +0000";
layers = (
{
hints = (
{
horizontal = 1;
place = "{655.000000, 69.000000}";
},
{
horizontal = 1;
place = "{0.000000, 21.000000}";
target = up;
type = BottomGhost;
}
);
layerId = UUID0;
name = "Regular Italic";
paths = (
{
closed = 1;
nodes = (
"558 724 LINE",
"50 724 LINE",
"40 655 LINE",
"249 655 LINE",
"161 0 LINE",
"252 0 LINE",
"340 655 LINE",
"549 655 LINE"
);
}
);
width = 514;
},
{
hints = (
{
horizontal = 1;
place = "{0.000000, 21.000000}";
target = up;
type = BottomGhost;
},
{
horizontal = 1;
place = "{633.000000, 99.000000}";
}
);
layerId = "D85D3C93-227B-4B8E-AED6-B444EF8D585A";
name = "Bold Italic";
paths = (
{
closed = 1;
nodes = (
"568 732 LINE",
"43 732 LINE",
"30 633 LINE",
"222 633 LINE",
"138 0 LINE",
"274 0 LINE",
"359 633 LINE",
"554 633 LINE"
);
}
);
width = 523;
}
);
unicode = 0054;
},
{
glyphname = U;
lastChange = "2015-02-06 22:45:45 +0000";
layers = (
{
hints = (
{
place = "{46.000000, 92.000000}";
},
{
horizontal = 1;
place = "{-10.000000, 69.000000}";
},
{
horizontal = 1;
place = "{724.000000, -20.000000}";
target = down;
type = TopGhost;
}
);
layerId = UUID0;
name = "Regular Italic";
paths = (
{
closed = 1;
nodes = (
"623 724 LINE",
"549 724 LINE",
"486 258 LINE SMOOTH",
"470 138 OFFCURVE",
"404 59 OFFCURVE",
"280 59 CURVE SMOOTH",
"176 59 OFFCURVE",
"138 120 OFFCURVE",
"138 200 CURVE SMOOTH",
"138 214 OFFCURVE",
"139 227 OFFCURVE",
"141 243 CURVE SMOOTH",
"206 724 LINE",
"106 724 LINE",
"106 660 LINE",
"50 244 LINE SMOOTH",
"48 226 OFFCURVE",
"46 208 OFFCURVE",
"46 192 CURVE SMOOTH",
"46 81 OFFCURVE",
"102 -10 OFFCURVE",
"268 -10 CURVE SMOOTH",
"458 -10 OFFCURVE",
"539 109 OFFCURVE",
"559 257 CURVE SMOOTH"
);
}
);
width = 638;
},
{
hints = (
{
place = "{35.000000, 132.000000}";
},
{
horizontal = 1;
place = "{-11.000000, 95.000000}";
},
{
horizontal = 1;
place = "{732.000000, -20.000000}";
target = down;
type = TopGhost;
}
);
layerId = "D85D3C93-227B-4B8E-AED6-B444EF8D585A";
name = "Bold Italic";
paths = (
{
closed = 1;
nodes = (
"648 732 LINE",
"541 732 LINE",
"475 245 LINE SMOOTH",
"464 160 OFFCURVE",
"399 84 OFFCURVE",
"301 84 CURVE SMOOTH",
"219 84 OFFCURVE",
"167 134 OFFCURVE",
"167 216 CURVE SMOOTH",
"167 225 OFFCURVE",
"168 234 OFFCURVE",
"169 243 CURVE SMOOTH",
"234 732 LINE",
"85 732 LINE",
"92 672 LINE",
"39 278 LINE SMOOTH",
"36 257 OFFCURVE",
"35 237 OFFCURVE",
"35 216 CURVE SMOOTH",
"35 63 OFFCURVE",
"125 -11 OFFCURVE",
"274 -11 CURVE SMOOTH",
"479 -11 OFFCURVE",
"563 102 OFFCURVE",
"587 278 CURVE SMOOTH"
);
}
);
width = 659;
}
);
leftKerningGroup = U;
rightKerningGroup = U;
unicode = 0055;
},
{
glyphname = V;
lastChange = "2015-02-06 22:45:45 +0000";
layers = (
{
hints = (
{
horizontal = 1;
place = "{724.000000, -20.000000}";
target = down;
type = TopGhost;
},
{
horizontal = 1;
place = "{-3.000000, 21.000000}";
target = up;
type = BottomGhost;
}
);
layerId = UUID0;
name = "Regular Italic";
paths = (
{
closed = 1;
nodes = (
"578 724 LINE",
"501 724 LINE",
"242 163 LINE",
"139 724 LINE",
"44 724 LINE",
"185 -3 LINE",
"241 -3 LINE"
);
}
);
width = 518;
},
{
hints = (
{
place = "{35.000000, 581.000000}";
},
{
horizontal = 1;
place = "{-1.000000, 21.000000}";
target = up;
type = BottomGhost;
},
{
horizontal = 1;
place = "{732.000000, -20.000000}";
target = down;
type = TopGhost;
}
);
layerId = "D85D3C93-227B-4B8E-AED6-B444EF8D585A";
name = "Bold Italic";
paths = (
{
closed = 1;
nodes = (
"616 732 LINE",
"492 732 LINE",
"311 337 LINE SMOOTH",
"290 292 OFFCURVE",
"264 200 OFFCURVE",
"264 200 CURVE",
"264 200 OFFCURVE",
"260 277 OFFCURVE",
"253 314 CURVE SMOOTH",
"174 732 LINE",
"35 732 LINE",
"176 -1 LINE",
"278 -1 LINE"
);
}
);
width = 561;
}
);
leftKerningGroup = V;
rightKerningGroup = V;
unicode = 0056;
},
{
glyphname = W;
lastChange = "2015-02-06 22:45:45 +0000";
layers = (
{
hints = (
{
horizontal = 1;
place = "{724.000000, -20.000000}";
target = down;
type = TopGhost;
},
{
horizontal = 1;
place = "{-3.000000, 21.000000}";
target = up;
type = BottomGhost;
}
);
layerId = UUID0;
name = "Regular Italic";
paths = (
{
closed = 1;
nodes = (
"854 724 LINE",
"780 724 LINE",
"563 172 LINE",
"494 724 LINE",
"424 724 LINE",
"208 172 LINE",
"138 724 LINE",
"44 724 LINE",
"139 -3 LINE",
"212 -3 LINE",
"425 537 LINE",
"494 -3 LINE",
"567 -3 LINE"
);
}
);
width = 795;
},
{
hints = (
{
place = "{35.000000, 895.000000}";
},
{
horizontal = 1;
place = "{-2.000000, 21.000000}";
target = up;
type = BottomGhost;
},
{
horizontal = 1;
place = "{732.000000, -20.000000}";
target = down;
type = TopGhost;
}
);
layerId = "D85D3C93-227B-4B8E-AED6-B444EF8D585A";
name = "Bold Italic";
paths = (
{
closed = 1;
nodes = (
"930 732 LINE",
"818 732 LINE",
"666 346 LINE SMOOTH",
"645 292 OFFCURVE",
"614 182 OFFCURVE",
"614 182 CURVE",
"614 182 OFFCURVE",
"613 266 OFFCURVE",
"608 307 CURVE SMOOTH",
"554 732 LINE",
"435 732 LINE",
"280 346 LINE SMOOTH",
"258 292 OFFCURVE",
"234 182 OFFCURVE",
"234 182 CURVE",
"234 182 OFFCURVE",
"230 267 OFFCURVE",
"225 309 CURVE SMOOTH",
"172 732 LINE",
"35 732 LINE",
"128 -2 LINE",
"260 -2 LINE",
"403 361 LINE SMOOTH",
"424 415 OFFCURVE",
"456 526 OFFCURVE",
"456 526 CURVE",
"456 526 OFFCURVE",
"458 434 OFFCURVE",
"460 414 CURVE SMOOTH",
"512 -2 LINE",
"646 -2 LINE"
);
}
);
width = 875;
}
);
leftKerningGroup = V;
rightKerningGroup = V;
unicode = 0057;
},
{
glyphname = X;
lastChange = "2015-02-06 22:45:45 +0000";
layers = (
{
hints = (
{
horizontal = 1;
place = "{724.000000, -20.000000}";
target = down;
type = TopGhost;
},
{
horizontal = 1;
place = "{0.000000, 21.000000}";
target = up;
type = BottomGhost;
}
);
layerId = UUID0;
name = "Regular Italic";
paths = (
{
closed = 1;
nodes = (
"578 724 LINE",
"493 724 LINE",
"301 460 LINE",
"185 724 LINE",
"83 724 LINE",
"236 372 LINE",
"-33 0 LINE",
"51 0 LINE",
"267 298 LINE",
"398 0 LINE",
"502 0 LINE",
"332 389 LINE"
);
}
);
width = 545;
},
{
hints = (
{
place = "{-50.000000, 666.000000}";
},
{
horizontal = 1;
place = "{0.000000, 21.000000}";
target = up;
type = BottomGhost;
},
{
horizontal = 1;
place = "{510.000000, -20.000000}";
target = down;
type = TopGhost;
},
{
horizontal = 1;
place = "{732.000000, -20.000000}";
target = down;
type = TopGhost;
}
);
layerId = "D85D3C93-227B-4B8E-AED6-B444EF8D585A";
name = "Bold Italic";
paths = (
{
closed = 1;
nodes = (
"616 732 LINE",
"471 732 LINE",
"319 510 LINE",
"221 732 LINE",
"70 732 LINE",
"224 377 LINE",
"-50 0 LINE",
"96 0 LINE",
"273 260 LINE",
"386 0 LINE",
"537 0 LINE",
"370 391 LINE"
);
}
);
width = 566;
}
);
unicode = 0058;
},
{
glyphname = Y;
lastChange = "2015-02-06 22:45:45 +0000";
layers = (
{
hints = (
{
horizontal = 1;
place = "{724.000000, -20.000000}";
target = down;
type = TopGhost;
},
{
horizontal = 1;
place = "{0.000000, 21.000000}";
target = up;
type = BottomGhost;
}
);
layerId = UUID0;
name = "Regular Italic";
paths = (
{
closed = 1;
nodes = (
"538 724 LINE",
"454 724 LINE",
"267 444 LINE",
"145 724 LINE",
"42 724 LINE",
"199 359 LINE",
"151 0 LINE",
"242 0 LINE",
"290 358 LINE"
);
}
);
width = 477;
},
{
hints = (
{
place = "{35.000000, 543.000000}";
},
{
horizontal = 1;
place = "{0.000000, 21.000000}";
target = up;
type = BottomGhost;
},
{
horizontal = 1;
place = "{732.000000, -20.000000}";
target = down;
type = TopGhost;
}
);
layerId = "D85D3C93-227B-4B8E-AED6-B444EF8D585A";
name = "Bold Italic";
paths = (
{
closed = 1;
nodes = (
"578 732 LINE",
"448 732 LINE",
"277 472 LINE",
"181 732 LINE",
"35 732 LINE",
"184 330 LINE",
"141 0 LINE",
"271 0 LINE",
"315 327 LINE"
);
}
);
width = 523;
}
);
leftKerningGroup = Y;
rightKerningGroup = Y;
unicode = 0059;
},
{
glyphname = Z;
lastChange = "2015-02-06 22:45:45 +0000";
layers = (
{
hints = (
{
horizontal = 1;
place = "{0.000000, 69.000000}";
},
{
horizontal = 1;
place = "{655.000000, 69.000000}";
}
);
layerId = UUID0;
name = "Regular Italic";
paths = (
{
closed = 1;
nodes = (
"546 724 LINE",
"101 724 LINE",
"92 655 LINE",
"430 655 LINE",
"-8 67 LINE",
"-17 0 LINE",
"454 0 LINE",
"470 69 LINE",
"99 69 LINE",
"537 657 LINE"
);
}
);
width = 532;
},
{
hints = (
{
place = "{-17.000000, 578.000000}";
},
{
horizontal = 1;
place = "{0.000000, 99.000000}";
},
{
horizontal = 1;
place = "{633.000000, 99.000000}";
}
);
layerId = "D85D3C93-227B-4B8E-AED6-B444EF8D585A";
name = "Bold Italic";
paths = (
{
closed = 1;
nodes = (
"561 659 LINE",
"561 732 LINE",
"94 732 LINE",
"81 633 LINE",
"377 633 LINE",
"-17 82 LINE",
"-17 0 LINE",
"480 0 LINE",
"494 99 LINE",
"164 99 LINE"
);
}
);
width = 546;
}
);
leftKerningGroup = Z;
rightKerningGroup = Z;
unicode = 005A;
},
{
glyphname = a;
lastChange = "2015-02-06 22:45:45 +0000";
layers = (
{
hints = (
{
place = "{37.000000, 93.000000}";
},
{
place = "{346.000000, 70.000000}";
},
{
horizontal = 1;
place = "{-13.000000, 62.000000}";
},
{
horizontal = 1;
place = "{441.000000, 62.000000}";
},
{
horizontal = 1;
place = "{495.000000, -20.000000}";
target = down;
type = TopGhost;
},
{
horizontal = 1;
place = "{-11.000000, 21.000000}";
target = up;
type = BottomGhost;
}
);
layerId = UUID0;
name = "Regular Italic";
paths = (
{
closed = 1;
nodes = (
"489 62 LINE",
"477 58 OFFCURVE",
"462 54 OFFCURVE",
"449 54 CURVE SMOOTH",
"424 54 OFFCURVE",
"416 70 OFFCURVE",
"416 94 CURVE SMOOTH",
"416 101 OFFCURVE",
"417 108 OFFCURVE",
"418 115 CURVE SMOOTH",
"474 495 LINE",
"430 495 LINE",
"409 456 LINE",
"382 490 OFFCURVE",
"337 503 OFFCURVE",
"300 503 CURVE SMOOTH",
"141 503 OFFCURVE",
"37 322 OFFCURVE",
"37 178 CURVE SMOOTH",
"37 73 OFFCURVE",
"87 -13 OFFCURVE",
"194 -13 CURVE SMOOTH",
"253 -13 OFFCURVE",
"306 19 OFFCURVE",
"342 74 CURVE",
"346 74 LINE",
"347 26 OFFCURVE",
"377 -11 OFFCURVE",
"425 -11 CURVE SMOOTH",
"450 -11 OFFCURVE",
"478 0 OFFCURVE",
"500 12 CURVE"
);
},
{
closed = 1;
nodes = (
"368 307 LINE SMOOTH",
"349 177 OFFCURVE",
"302 49 OFFCURVE",
"210 49 CURVE SMOOTH",
"146 49 OFFCURVE",
"130 121 OFFCURVE",
"130 174 CURVE SMOOTH",
"130 272 OFFCURVE",
"183 441 OFFCURVE",
"303 441 CURVE SMOOTH",
"334 441 OFFCURVE",
"361 427 OFFCURVE",
"382 403 CURVE"
);
}
);
width = 526;
},
{
hints = (
{
place = "{21.000000, 121.000000}";
},
{
horizontal = 1;
place = "{-9.000000, 82.000000}";
},
{
horizontal = 1;
place = "{427.000000, 82.000000}";
},
{
horizontal = 1;
place = "{500.000000, -20.000000}";
target = down;
type = TopGhost;
},
{
horizontal = 1;
place = "{-12.000000, 83.000000}";
},
{
horizontal = 1;
place = "{-9.000000, 21.000000}";
target = up;
type = BottomGhost;
}
);
layerId = "D85D3C93-227B-4B8E-AED6-B444EF8D585A";
name = "Bold Italic";
paths = (
{
closed = 1;
nodes = (
"513 85 LINE",
"500 80 OFFCURVE",
"478 73 OFFCURVE",
"465 73 CURVE SMOOTH",
"445 73 OFFCURVE",
"440 92 OFFCURVE",
"440 109 CURVE SMOOTH",
"440 116 OFFCURVE",
"441 123 OFFCURVE",
"442 130 CURVE SMOOTH",
"496 500 LINE",
"433 500 LINE",
"410 459 LINE",
"375 496 OFFCURVE",
"323 509 OFFCURVE",
"290 509 CURVE SMOOTH",
"117 509 OFFCURVE",
"21 349 OFFCURVE",
"21 197 CURVE SMOOTH",
"21 89 OFFCURVE",
"72 -12 OFFCURVE",
"192 -12 CURVE SMOOTH",
"241 -12 OFFCURVE",
"299 7 OFFCURVE",
"338 59 CURVE",
"342 59 LINE",
"350 20 OFFCURVE",
"384 -9 OFFCURVE",
"424 -9 CURVE SMOOTH",
"458 -9 OFFCURVE",
"501 3 OFFCURVE",
"530 22 CURVE"
);
},
{
closed = 1;
nodes = (
"349 247 OFFCURVE",
"315 71 OFFCURVE",
"215 71 CURVE SMOOTH",
"156 71 OFFCURVE",
"142 134 OFFCURVE",
"142 197 CURVE SMOOTH",
"142 268 OFFCURVE",
"175 427 OFFCURVE",
"282 427 CURVE SMOOTH",
"313 427 OFFCURVE",
"340 415 OFFCURVE",
"368 387 CURVE"
);
}
);
width = 525;
}
);
leftKerningGroup = a;
rightKerningGroup = a;
unicode = 0061;
},
{
glyphname = aacute;
lastChange = "2015-02-06 22:45:45 +0000";
layers = (
{
components = (
{
name = a;
},
{
name = acute;
transform = "{1, 0, 0, 1, 227, 0}";
}
);
layerId = UUID0;
name = "Regular Italic";
width = 526;
},
{
hints = (
{
place = "{21.000000, 121.000000}";
},
{
horizontal = 1;
place = "{-9.000000, 82.000000}";
},
{
horizontal = 1;
place = "{427.000000, 82.000000}";
},
{
horizontal = 1;
place = "{592.000000, 165.000000}";
},
{
horizontal = 1;
place = "{500.000000, -20.000000}";
target = down;
type = TopGhost;
},
{
horizontal = 1;
place = "{-12.000000, 83.000000}";
},
{
horizontal = 1;
place = "{-9.000000, 21.000000}";
target = up;
type = BottomGhost;
}
);
layerId = "D85D3C93-227B-4B8E-AED6-B444EF8D585A";
name = "Bold Italic";
paths = (
{
closed = 1;
nodes = (
"513 85 LINE",
"500 80 OFFCURVE",
"478 73 OFFCURVE",
"465 73 CURVE SMOOTH",
"445 73 OFFCURVE",
"440 92 OFFCURVE",
"440 109 CURVE SMOOTH",
"440 116 OFFCURVE",
"441 123 OFFCURVE",
"442 130 CURVE SMOOTH",
"496 500 LINE",
"433 500 LINE",
"410 459 LINE",
"375 496 OFFCURVE",
"323 509 OFFCURVE",
"290 509 CURVE SMOOTH",
"117 509 OFFCURVE",
"21 349 OFFCURVE",
"21 197 CURVE SMOOTH",
"21 89 OFFCURVE",
"72 -12 OFFCURVE",
"192 -12 CURVE SMOOTH",
"241 -12 OFFCURVE",
"299 7 OFFCURVE",
"338 59 CURVE",
"342 59 LINE",
"350 20 OFFCURVE",
"384 -9 OFFCURVE",
"424 -9 CURVE SMOOTH",
"458 -9 OFFCURVE",
"501 3 OFFCURVE",
"530 22 CURVE"
);
},
{
closed = 1;
nodes = (
"349 247 OFFCURVE",
"315 71 OFFCURVE",
"215 71 CURVE SMOOTH",
"156 71 OFFCURVE",
"142 134 OFFCURVE",
"142 197 CURVE SMOOTH",
"142 268 OFFCURVE",
"175 427 OFFCURVE",
"282 427 CURVE SMOOTH",
"313 427 OFFCURVE",
"340 415 OFFCURVE",
"368 387 CURVE"
);
},
{
closed = 1;
nodes = (
"527 757 LINE",
"382 757 LINE",
"250 592 LINE",
"353 592 LINE"
);
}
);
width = 525;
}
);
leftKerningGroup = a;
rightKerningGroup = a;
unicode = 00E1;
},
{
glyphname = acircumflex;
lastChange = "2015-02-06 22:45:45 +0000";
layers = (
{
components = (
{
name = a;
},
{
name = circumflex;
transform = "{1, 0, 0, 1, 192, 0}";
}
);
layerId = UUID0;
name = "Regular Italic";
width = 526;
},
{
hints = (
{
place = "{21.000000, 121.000000}";
},
{
horizontal = 1;
place = "{-9.000000, 82.000000}";
},
{
horizontal = 1;
place = "{427.000000, 82.000000}";
},
{
horizontal = 1;
place = "{592.000000, 145.000000}";
},
{
horizontal = 1;
place = "{500.000000, -20.000000}";
target = down;
type = TopGhost;
},
{
horizontal = 1;
place = "{-12.000000, 83.000000}";
},
{
horizontal = 1;
place = "{-9.000000, 21.000000}";
target = up;
type = BottomGhost;
},
{
horizontal = 1;
place = "{666.000000, 71.000000}";
}
);
layerId = "D85D3C93-227B-4B8E-AED6-B444EF8D585A";
name = "Bold Italic";
paths = (
{
closed = 1;
nodes = (
"513 85 LINE",
"500 80 OFFCURVE",
"478 73 OFFCURVE",
"465 73 CURVE SMOOTH",
"445 73 OFFCURVE",
"440 92 OFFCURVE",
"440 109 CURVE SMOOTH",
"440 116 OFFCURVE",
"441 123 OFFCURVE",
"442 130 CURVE SMOOTH",
"496 500 LINE",
"433 500 LINE",
"410 459 LINE",
"375 496 OFFCURVE",
"323 509 OFFCURVE",
"290 509 CURVE SMOOTH",
"117 509 OFFCURVE",
"21 349 OFFCURVE",
"21 197 CURVE SMOOTH",
"21 89 OFFCURVE",
"72 -12 OFFCURVE",
"192 -12 CURVE SMOOTH",
"241 -12 OFFCURVE",
"299 7 OFFCURVE",
"338 59 CURVE",
"342 59 LINE",
"350 20 OFFCURVE",
"384 -9 OFFCURVE",
"424 -9 CURVE SMOOTH",
"458 -9 OFFCURVE",
"501 3 OFFCURVE",
"530 22 CURVE"
);
},
{
closed = 1;
nodes = (
"349 247 OFFCURVE",
"315 71 OFFCURVE",
"215 71 CURVE SMOOTH",
"156 71 OFFCURVE",
"142 134 OFFCURVE",
"142 197 CURVE SMOOTH",
"142 268 OFFCURVE",
"175 427 OFFCURVE",
"282 427 CURVE SMOOTH",
"313 427 OFFCURVE",
"340 415 OFFCURVE",
"368 387 CURVE"
);
},
{
closed = 1;
nodes = (
"468 592 LINE",
"389 737 LINE",
"291 737 LINE",
"175 592 LINE",
"251 592 LINE",
"330 666 LINE",
"390 592 LINE"
);
}
);
width = 525;
}
);
leftKerningGroup = a;
rightKerningGroup = a;
unicode = 00E2;
},
{
glyphname = adieresis;
lastChange = "2015-02-06 22:45:45 +0000";
layers = (
{
components = (
{
name = a;
},
{
name = dieresis;
transform = "{1, 0, 0, 1, 190, 47}";
}
);
layerId = UUID0;
name = "Regular Italic";
width = 526;
},
{
hints = (
{
place = "{21.000000, 121.000000}";
},
{
place = "{332.000000, 115.000000}";
},
{
place = "{172.000000, 114.000000}";
},
{
horizontal = 1;
place = "{-9.000000, 82.000000}";
},
{
horizontal = 1;
place = "{427.000000, 82.000000}";
},
{
horizontal = 1;
place = "{576.000000, 114.000000}";
},
{
horizontal = 1;
place = "{500.000000, -20.000000}";
target = down;
type = TopGhost;
},
{
horizontal = 1;
place = "{-12.000000, 83.000000}";
},
{
horizontal = 1;
place = "{-9.000000, 21.000000}";
target = up;
type = BottomGhost;
}
);
layerId = "D85D3C93-227B-4B8E-AED6-B444EF8D585A";
name = "Bold Italic";
paths = (
{
closed = 1;
nodes = (
"513 85 LINE",
"500 80 OFFCURVE",
"478 73 OFFCURVE",
"465 73 CURVE SMOOTH",
"445 73 OFFCURVE",
"440 92 OFFCURVE",
"440 109 CURVE SMOOTH",
"440 116 OFFCURVE",
"441 123 OFFCURVE",
"442 130 CURVE SMOOTH",
"496 500 LINE",
"433 500 LINE",
"410 459 LINE",
"375 496 OFFCURVE",
"323 509 OFFCURVE",
"290 509 CURVE SMOOTH",
"117 509 OFFCURVE",
"21 349 OFFCURVE",
"21 197 CURVE SMOOTH",
"21 89 OFFCURVE",
"72 -12 OFFCURVE",
"192 -12 CURVE SMOOTH",
"241 -12 OFFCURVE",
"299 7 OFFCURVE",
"338 59 CURVE",
"342 59 LINE",
"350 20 OFFCURVE",
"384 -9 OFFCURVE",
"424 -9 CURVE SMOOTH",
"458 -9 OFFCURVE",
"501 3 OFFCURVE",
"530 22 CURVE"
);
},
{
closed = 1;
nodes = (
"349 247 OFFCURVE",
"315 71 OFFCURVE",
"215 71 CURVE SMOOTH",
"156 71 OFFCURVE",
"142 134 OFFCURVE",
"142 197 CURVE SMOOTH",
"142 268 OFFCURVE",
"175 427 OFFCURVE",
"282 427 CURVE SMOOTH",
"313 427 OFFCURVE",
"340 415 OFFCURVE",
"368 387 CURVE"
);
},
{
closed = 1;
nodes = (
"447 665 OFFCURVE",
"421 690 OFFCURVE",
"389 690 CURVE SMOOTH",
"358 690 OFFCURVE",
"332 664 OFFCURVE",
"332 633 CURVE SMOOTH",
"332 602 OFFCURVE",
"358 576 OFFCURVE",
"389 576 CURVE SMOOTH",
"421 576 OFFCURVE",
"447 601 OFFCURVE",
"447 633 CURVE SMOOTH"
);
},
{
closed = 1;
nodes = (
"286 665 OFFCURVE",
"261 690 OFFCURVE",
"229 690 CURVE SMOOTH",
"197 690 OFFCURVE",
"172 665 OFFCURVE",
"172 633 CURVE SMOOTH",
"172 601 OFFCURVE",
"197 576 OFFCURVE",
"229 576 CURVE SMOOTH",
"261 576 OFFCURVE",
"286 601 OFFCURVE",
"286 633 CURVE SMOOTH"
);
}
);
width = 525;
}
);
leftKerningGroup = a;
rightKerningGroup = a;
unicode = 00E4;
},
{
glyphname = agrave;
lastChange = "2015-02-06 22:45:45 +0000";
layers = (
{
components = (
{
name = a;
},
{
name = grave;
transform = "{1, 0, 0, 1, 113, 0}";
}
);
layerId = UUID0;
name = "Regular Italic";
width = 526;
},
{
hints = (
{
place = "{21.000000, 121.000000}";
},
{
horizontal = 1;
place = "{-9.000000, 82.000000}";
},
{
horizontal = 1;
place = "{427.000000, 82.000000}";
},
{
horizontal = 1;
place = "{592.000000, 165.000000}";
},
{
horizontal = 1;
place = "{500.000000, -20.000000}";
target = down;
type = TopGhost;
},
{
horizontal = 1;
place = "{-12.000000, 83.000000}";
},
{
horizontal = 1;
place = "{-9.000000, 21.000000}";
target = up;
type = BottomGhost;
}
);
layerId = "D85D3C93-227B-4B8E-AED6-B444EF8D585A";
name = "Bold Italic";
paths = (
{
closed = 1;
nodes = (
"513 85 LINE",
"500 80 OFFCURVE",
"478 73 OFFCURVE",
"465 73 CURVE SMOOTH",
"445 73 OFFCURVE",
"440 92 OFFCURVE",
"440 109 CURVE SMOOTH",
"440 116 OFFCURVE",
"441 123 OFFCURVE",
"442 130 CURVE SMOOTH",
"496 500 LINE",
"433 500 LINE",
"410 459 LINE",
"375 496 OFFCURVE",
"323 509 OFFCURVE",
"290 509 CURVE SMOOTH",
"117 509 OFFCURVE",
"21 349 OFFCURVE",
"21 197 CURVE SMOOTH",
"21 89 OFFCURVE",
"72 -12 OFFCURVE",
"192 -12 CURVE SMOOTH",
"241 -12 OFFCURVE",
"299 7 OFFCURVE",
"338 59 CURVE",
"342 59 LINE",
"350 20 OFFCURVE",
"384 -9 OFFCURVE",
"424 -9 CURVE SMOOTH",
"458 -9 OFFCURVE",
"501 3 OFFCURVE",
"530 22 CURVE"
);
},
{
closed = 1;
nodes = (
"349 247 OFFCURVE",
"315 71 OFFCURVE",
"215 71 CURVE SMOOTH",
"156 71 OFFCURVE",
"142 134 OFFCURVE",
"142 197 CURVE SMOOTH",
"142 268 OFFCURVE",
"175 427 OFFCURVE",
"282 427 CURVE SMOOTH",
"313 427 OFFCURVE",
"340 415 OFFCURVE",
"368 387 CURVE"
);
},
{
closed = 1;
nodes = (
"356 592 LINE",
"247 757 LINE",
"102 757 LINE",
"253 592 LINE"
);
}
);
width = 525;
}
);
leftKerningGroup = a;
rightKerningGroup = a;
unicode = 00E0;
},
{
glyphname = aring;
lastChange = "2015-02-06 22:45:45 +0000";
layers = (
{
components = (
{
name = a;
},
{
name = ring;
transform = "{1, 0, 0, 1, 192, 0}";
}
);
layerId = UUID0;
name = "Regular Italic";
width = 526;
},
{
hints = (
{
place = "{21.000000, 121.000000}";
},
{
place = "{225.000000, 66.000000}";
},
{
place = "{373.000000, 67.000000}";
},
{
horizontal = 1;
place = "{-12.000000, 83.000000}";
},
{
horizontal = 1;
place = "{427.000000, 82.000000}";
},
{
horizontal = 1;
place = "{562.000000, 66.000000}";
},
{
horizontal = 1;
place = "{709.000000, 67.000000}";
},
{
horizontal = 1;
place = "{-9.000000, 82.000000}";
},
{
horizontal = 1;
place = "{500.000000, -20.000000}";
target = down;
type = TopGhost;
},
{
horizontal = 1;
place = "{-9.000000, 21.000000}";
target = up;
type = BottomGhost;
}
);
layerId = "D85D3C93-227B-4B8E-AED6-B444EF8D585A";
name = "Bold Italic";
paths = (
{
closed = 1;
nodes = (
"373 647 OFFCURVE",
"354 628 OFFCURVE",
"332 628 CURVE SMOOTH",
"310 628 OFFCURVE",
"291 647 OFFCURVE",
"291 669 CURVE SMOOTH",
"291 691 OFFCURVE",
"310 709 OFFCURVE",
"332 709 CURVE SMOOTH",
"353 709 OFFCURVE",
"373 692 OFFCURVE",
"373 669 CURVE SMOOTH"
);
},
{
closed = 1;
nodes = (
"440 727 OFFCURVE",
"391 776 OFFCURVE",
"332 776 CURVE SMOOTH",
"273 776 OFFCURVE",
"225 727 OFFCURVE",
"225 669 CURVE SMOOTH",
"225 610 OFFCURVE",
"273 562 OFFCURVE",
"332 562 CURVE SMOOTH",
"391 562 OFFCURVE",
"440 610 OFFCURVE",
"440 669 CURVE SMOOTH"
);
},
{
closed = 1;
nodes = (
"513 85 LINE",
"500 80 OFFCURVE",
"478 73 OFFCURVE",
"465 73 CURVE SMOOTH",
"445 73 OFFCURVE",
"440 92 OFFCURVE",
"440 109 CURVE SMOOTH",
"440 116 OFFCURVE",
"441 123 OFFCURVE",
"442 130 CURVE SMOOTH",
"496 500 LINE",
"433 500 LINE",
"410 459 LINE",
"375 496 OFFCURVE",
"323 509 OFFCURVE",
"290 509 CURVE SMOOTH",
"117 509 OFFCURVE",
"21 349 OFFCURVE",
"21 197 CURVE SMOOTH",
"21 89 OFFCURVE",
"72 -12 OFFCURVE",
"192 -12 CURVE SMOOTH",
"241 -12 OFFCURVE",
"299 7 OFFCURVE",
"338 59 CURVE",
"342 59 LINE",
"350 20 OFFCURVE",
"384 -9 OFFCURVE",
"424 -9 CURVE SMOOTH",
"458 -9 OFFCURVE",
"501 3 OFFCURVE",
"530 22 CURVE"
);
},
{
closed = 1;
nodes = (
"349 247 OFFCURVE",
"315 71 OFFCURVE",
"215 71 CURVE SMOOTH",
"156 71 OFFCURVE",
"142 134 OFFCURVE",
"142 197 CURVE SMOOTH",
"142 268 OFFCURVE",
"175 427 OFFCURVE",
"282 427 CURVE SMOOTH",
"313 427 OFFCURVE",
"340 415 OFFCURVE",
"368 387 CURVE"
);
}
);
width = 525;
}
);
leftKerningGroup = a;
rightKerningGroup = a;
unicode = 00E5;
},
{
glyphname = atilde;
lastChange = "2015-02-06 22:45:45 +0000";
layers = (
{
components = (
{
name = a;
},
{
name = tilde;
transform = "{1, 0, 0, 1, 184, 40}";
}
);
layerId = UUID0;
name = "Regular Italic";
width = 526;
},
{
hints = (
{
place = "{21.000000, 121.000000}";
},
{
horizontal = 1;
place = "{-9.000000, 82.000000}";
},
{
horizontal = 1;
place = "{427.000000, 82.000000}";
},
{
horizontal = 1;
place = "{607.000000, 78.000000}";
},
{
horizontal = 1;
place = "{500.000000, -20.000000}";
target = down;
type = TopGhost;
},
{
horizontal = 1;
place = "{-12.000000, 83.000000}";
},
{
horizontal = 1;
place = "{-9.000000, 21.000000}";
target = up;
type = BottomGhost;
},
{
horizontal = 1;
place = "{578.000000, 79.000000}";
}
);
layerId = "D85D3C93-227B-4B8E-AED6-B444EF8D585A";
name = "Bold Italic";
paths = (
{
closed = 1;
nodes = (
"513 85 LINE",
"500 80 OFFCURVE",
"478 73 OFFCURVE",
"465 73 CURVE SMOOTH",
"445 73 OFFCURVE",
"440 92 OFFCURVE",
"440 109 CURVE SMOOTH",
"440 116 OFFCURVE",
"441 123 OFFCURVE",
"442 130 CURVE SMOOTH",
"496 500 LINE",
"433 500 LINE",
"410 459 LINE",
"375 496 OFFCURVE",
"323 509 OFFCURVE",
"290 509 CURVE SMOOTH",
"117 509 OFFCURVE",
"21 349 OFFCURVE",
"21 197 CURVE SMOOTH",
"21 89 OFFCURVE",
"72 -12 OFFCURVE",
"192 -12 CURVE SMOOTH",
"241 -12 OFFCURVE",
"299 7 OFFCURVE",
"338 59 CURVE",
"342 59 LINE",
"350 20 OFFCURVE",
"384 -9 OFFCURVE",
"424 -9 CURVE SMOOTH",
"458 -9 OFFCURVE",
"501 3 OFFCURVE",
"530 22 CURVE"
);
},
{
closed = 1;
nodes = (
"349 247 OFFCURVE",
"315 71 OFFCURVE",
"215 71 CURVE SMOOTH",
"156 71 OFFCURVE",
"142 134 OFFCURVE",
"142 197 CURVE SMOOTH",
"142 268 OFFCURVE",
"175 427 OFFCURVE",
"282 427 CURVE SMOOTH",
"313 427 OFFCURVE",
"340 415 OFFCURVE",
"368 387 CURVE"
);
},
{
closed = 1;
nodes = (
"457 684 LINE",
"439 671 OFFCURVE",
"419 657 OFFCURVE",
"401 657 CURVE SMOOTH",
"369 657 OFFCURVE",
"332 685 OFFCURVE",
"278 685 CURVE SMOOTH",
"189 685 OFFCURVE",
"148 609 OFFCURVE",
"148 609 CURVE",
"198 582 LINE",
"213 594 OFFCURVE",
"233 607 OFFCURVE",
"250 607 CURVE SMOOTH",
"291 607 OFFCURVE",
"326 578 OFFCURVE",
"382 578 CURVE SMOOTH",
"462 578 OFFCURVE",
"503 653 OFFCURVE",
"503 653 CURVE"
);
}
);
width = 525;
}
);
leftKerningGroup = a;
rightKerningGroup = a;
unicode = 00E3;
},
{
glyphname = ae;
lastChange = "2015-02-06 22:45:45 +0000";
layers = (
{
hints = (
{
place = "{36.000000, 93.000000}";
},
{
place = "{286.000000, 86.000000}";
},
{
place = "{593.000000, 84.000000}";
},
{
horizontal = 1;
place = "{-13.000000, 71.000000}";
},
{
horizontal = 1;
place = "{203.000000, 58.000000}";
},
{
horizontal = 1;
place = "{443.000000, 62.000000}";
},
{
horizontal = 1;
place = "{-12.000000, 21.000000}";
target = up;
type = BottomGhost;
}
);
layerId = UUID0;
name = "Regular Italic";
paths = (
{
closed = 1;
nodes = (
"677 475 OFFCURVE",
"618 505 OFFCURVE",
"550 505 CURVE SMOOTH",
"493 505 OFFCURVE",
"444 486 OFFCURVE",
"405 454 CURVE",
"379 489 OFFCURVE",
"337 505 OFFCURVE",
"294 505 CURVE SMOOTH",
"138 505 OFFCURVE",
"36 319 OFFCURVE",
"36 185 CURVE SMOOTH",
"36 77 OFFCURVE",
"86 -13 OFFCURVE",
"193 -13 CURVE SMOOTH",
"250 -13 OFFCURVE",
"297 13 OFFCURVE",
"332 54 CURVE",
"366 13 OFFCURVE",
"418 -12 OFFCURVE",
"484 -12 CURVE SMOOTH",
"549 -12 OFFCURVE",
"615 15 OFFCURVE",
"657 44 CURVE",
"628 103 LINE",
"588 75 OFFCURVE",
"540 58 OFFCURVE",
"489 58 CURVE SMOOTH",
"408 58 OFFCURVE",
"372 124 OFFCURVE",
"372 198 CURVE SMOOTH",
"372 203 LINE",
"441 204 OFFCURVE",
"519 212 OFFCURVE",
"580 249 CURVE SMOOTH",
"633 281 OFFCURVE",
"677 332 OFFCURVE",
"677 399 CURVE SMOOTH"
);
},
{
closed = 1;
nodes = (
"593 387 LINE",
"593 284 OFFCURVE",
"438 262 OFFCURVE",
"377 261 CURVE",
"383 339 OFFCURVE",
"456 443 OFFCURVE",
"537 443 CURVE SMOOTH",
"571 443 OFFCURVE",
"592 425 OFFCURVE",
"593 391 CURVE SMOOTH"
);
},
{
closed = 1;
nodes = (
"314 356 OFFCURVE",
"286 272 OFFCURVE",
"286 193 CURVE SMOOTH",
"286 159 OFFCURVE",
"292 129 OFFCURVE",
"303 102 CURVE",
"279 71 OFFCURVE",
"248 50 OFFCURVE",
"206 50 CURVE SMOOTH",
"145 50 OFFCURVE",
"129 126 OFFCURVE",
"129 178 CURVE SMOOTH",
"129 274 OFFCURVE",
"182 443 OFFCURVE",
"290 443 CURVE SMOOTH",
"315 443 OFFCURVE",
"344 433 OFFCURVE",
"365 416 CURVE"
);
}
);
width = 714;
},
{
background = {
paths = (
{
closed = 1;
nodes = (
"752 472 OFFCURVE",
"699 510 OFFCURVE",
"617 510 CURVE SMOOTH",
"578 510 OFFCURVE",
"515 488 OFFCURVE",
"490 457 CURVE",
"496 503 LINE",
"437 503 LINE",
"410 459 LINE",
"375 496 OFFCURVE",
"323 509 OFFCURVE",
"290 509 CURVE SMOOTH",
"117 509 OFFCURVE",
"21 349 OFFCURVE",
"21 197 CURVE SMOOTH",
"21 89 OFFCURVE",
"72 -12 OFFCURVE",
"192 -12 CURVE SMOOTH",
"252 -12 OFFCURVE",
"313 8 OFFCURVE",
"368 72 CURVE",
"403 19 OFFCURVE",
"463 -12 OFFCURVE",
"538 -12 CURVE SMOOTH",
"660 -12 OFFCURVE",
"736 54 OFFCURVE",
"736 54 CURVE",
"694 137 LINE",
"660 111 OFFCURVE",
"605 76 OFFCURVE",
"550 76 CURVE SMOOTH",
"498 76 OFFCURVE",
"454 114 OFFCURVE",
"449 194 CURVE",
"688 196 OFFCURVE",
"752 317 OFFCURVE",
"752 394 CURVE SMOOTH"
);
},
{
closed = 1;
nodes = (
"629 332 OFFCURVE",
"561 282 OFFCURVE",
"455 279 CURVE",
"479 390 OFFCURVE",
"559 426 OFFCURVE",
"590 426 CURVE SMOOTH",
"616 426 OFFCURVE",
"629 412 OFFCURVE",
"629 392 CURVE SMOOTH"
);
},
{
closed = 1;
nodes = (
"349 247 OFFCURVE",
"315 71 OFFCURVE",
"215 71 CURVE SMOOTH",
"156 71 OFFCURVE",
"142 134 OFFCURVE",
"142 197 CURVE SMOOTH",
"142 268 OFFCURVE",
"175 427 OFFCURVE",
"282 427 CURVE SMOOTH",
"313 427 OFFCURVE",
"340 415 OFFCURVE",
"368 387 CURVE"
);
}
);
};
hints = (
{
place = "{21.000000, 121.000000}";
},
{
place = "{629.000000, 123.000000}";
},
{
horizontal = 1;
place = "{-12.000000, 88.000000}";
},
{
horizontal = 1;
place = "{194.000000, 85.000000}";
},
{
horizontal = 1;
place = "{427.000000, 82.000000}";
},
{
horizontal = 1;
place = "{426.000000, 84.000000}";
},
{
horizontal = 1;
place = "{-12.000000, 83.000000}";
}
);
layerId = "D85D3C93-227B-4B8E-AED6-B444EF8D585A";
name = "Bold Italic";
paths = (
{
closed = 1;
nodes = (
"397 501 OFFCURVE",
"323 509 OFFCURVE",
"290 509 CURVE SMOOTH",
"117 509 OFFCURVE",
"21 349 OFFCURVE",
"21 197 CURVE SMOOTH",
"21 89 OFFCURVE",
"72 -12 OFFCURVE",
"192 -12 CURVE SMOOTH",
"252 -12 OFFCURVE",
"313 8 OFFCURVE",
"368 72 CURVE",
"403 19 OFFCURVE",
"463 -12 OFFCURVE",
"538 -12 CURVE SMOOTH",
"660 -12 OFFCURVE",
"736 54 OFFCURVE",
"736 54 CURVE",
"694 137 LINE",
"660 111 OFFCURVE",
"605 76 OFFCURVE",
"550 76 CURVE SMOOTH",
"498 76 OFFCURVE",
"454 114 OFFCURVE",
"449 194 CURVE",
"688 196 OFFCURVE",
"752 317 OFFCURVE",
"752 394 CURVE SMOOTH",
"752 472 OFFCURVE",
"699 510 OFFCURVE",
"617 510 CURVE SMOOTH",
"578 510 OFFCURVE",
"502 495 OFFCURVE",
"443 426 CURVE"
);
},
{
closed = 1;
nodes = (
"629 332 OFFCURVE",
"561 282 OFFCURVE",
"455 279 CURVE",
"479 390 OFFCURVE",
"559 426 OFFCURVE",
"590 426 CURVE SMOOTH",
"616 426 OFFCURVE",
"629 412 OFFCURVE",
"629 392 CURVE SMOOTH"
);
},
{
closed = 1;
nodes = (
"349 247 OFFCURVE",
"315 71 OFFCURVE",
"215 71 CURVE SMOOTH",
"156 71 OFFCURVE",
"142 134 OFFCURVE",
"142 197 CURVE SMOOTH",
"142 268 OFFCURVE",
"175 427 OFFCURVE",
"282 427 CURVE SMOOTH",
"313 427 OFFCURVE",
"340 415 OFFCURVE",
"368 387 CURVE"
);
}
);
width = 762;
}
);
leftKerningGroup = a;
unicode = 00E6;
},
{
glyphname = b;
lastChange = "2015-02-06 22:45:45 +0000";
layers = (
{
hints = (
{
place = "{375.000000, 88.000000}";
},
{
horizontal = 1;
place = "{-13.000000, 62.000000}";
},
{
horizontal = 1;
place = "{441.000000, 62.000000}";
},
{
horizontal = 1;
place = "{764.000000, -20.000000}";
target = down;
type = TopGhost;
}
);
layerId = UUID0;
name = "Regular Italic";
paths = (
{
closed = 1;
nodes = (
"463 417 OFFCURVE",
"415 503 OFFCURVE",
"304 503 CURVE SMOOTH",
"248 503 OFFCURVE",
"205 475 OFFCURVE",
"169 444 CURVE",
"212 764 LINE",
"124 764 LINE",
"124 707 LINE",
"37 33 LINE",
"68 2 OFFCURVE",
"122 -13 OFFCURVE",
"162 -13 CURVE SMOOTH",
"350 -13 OFFCURVE",
"463 143 OFFCURVE",
"463 318 CURVE SMOOTH"
);
},
{
closed = 1;
nodes = (
"375 212 OFFCURVE",
"311 49 OFFCURVE",
"183 49 CURVE SMOOTH",
"147 49 OFFCURVE",
"125 66 OFFCURVE",
"125 98 CURVE SMOOTH",
"125 101 OFFCURVE",
"126 109 OFFCURVE",
"126 109 CURVE",
"159 367 LINE",
"188 406 OFFCURVE",
"242 441 OFFCURVE",
"290 441 CURVE SMOOTH",
"356 441 OFFCURVE",
"375 382 OFFCURVE",
"375 322 CURVE SMOOTH"
);
}
);
width = 501;
},
{
hints = (
{
place = "{376.000000, 121.000000}";
},
{
horizontal = 1;
place = "{-11.000000, 82.000000}";
},
{
horizontal = 1;
place = "{426.000000, 84.000000}";
},
{
horizontal = 1;
place = "{768.000000, -20.000000}";
target = down;
type = TopGhost;
}
);
layerId = "D85D3C93-227B-4B8E-AED6-B444EF8D585A";
name = "Bold Italic";
paths = (
{
closed = 1;
nodes = (
"497 422 OFFCURVE",
"446 510 OFFCURVE",
"326 510 CURVE SMOOTH",
"284 510 OFFCURVE",
"236 496 OFFCURVE",
"198 460 CURVE",
"239 768 LINE",
"112 768 LINE",
"117 713 LINE",
"27 40 LINE",
"58 11 OFFCURVE",
"114 -11 OFFCURVE",
"179 -11 CURVE SMOOTH",
"378 -11 OFFCURVE",
"497 149 OFFCURVE",
"497 301 CURVE SMOOTH"
);
},
{
closed = 1;
nodes = (
"376 216 OFFCURVE",
"310 71 OFFCURVE",
"192 71 CURVE SMOOTH",
"162 71 OFFCURVE",
"150 79 OFFCURVE",
"150 98 CURVE SMOOTH",
"150 101 OFFCURVE",
"150 104 OFFCURVE",
"151 108 CURVE SMOOTH",
"184 354 LINE",
"213 388 OFFCURVE",
"264 426 OFFCURVE",
"305 426 CURVE SMOOTH",
"356 426 OFFCURVE",
"376 385 OFFCURVE",
"376 325 CURVE SMOOTH"
);
}
);
width = 518;
}
);
leftKerningGroup = b;
rightKerningGroup = b;
unicode = 0062;
},
{
glyphname = c;
lastChange = "2015-02-06 22:45:45 +0000";
layers = (
{
background = {
paths = (
{
closed = 1;
nodes = (
"430 452 LINE",
"393 485 OFFCURVE",
"340 503 OFFCURVE",
"297 503 CURVE SMOOTH",
"133 503 OFFCURVE",
"36 356 OFFCURVE",
"36 197 CURVE SMOOTH",
"36 81 OFFCURVE",
"102 -13 OFFCURVE",
"221 -13 CURVE SMOOTH",
"288 -13 OFFCURVE",
"324 3 OFFCURVE",
"383 36 CURVE",
"355 100 LINE",
"311 70 OFFCURVE",
"282 56 OFFCURVE",
"234 56 CURVE SMOOTH",
"158 56 OFFCURVE",
"123 138 OFFCURVE",
"123 210 CURVE SMOOTH",
"123 300 OFFCURVE",
"172 441 OFFCURVE",
"279 441 CURVE SMOOTH",
"323 441 OFFCURVE",
"350 427 OFFCURVE",
"380 397 CURVE"
);
}
);
};
hints = (
{
place = "{36.000000, 87.000000}";
},
{
horizontal = 1;
place = "{-13.000000, 69.000000}";
},
{
horizontal = 1;
place = "{441.000000, 62.000000}";
}
);
layerId = UUID0;
name = "Regular Italic";
paths = (
{
closed = 1;
nodes = (
"430 452 LINE",
"393 485 OFFCURVE",
"340 503 OFFCURVE",
"297 503 CURVE SMOOTH",
"133 503 OFFCURVE",
"36 356 OFFCURVE",
"36 197 CURVE SMOOTH",
"36 81 OFFCURVE",
"97 -13 OFFCURVE",
"221 -13 CURVE SMOOTH",
"288 -13 OFFCURVE",
"324 3 OFFCURVE",
"383 36 CURVE",
"355 100 LINE",
"311 70 OFFCURVE",
"282 56 OFFCURVE",
"234 56 CURVE SMOOTH",
"153 56 OFFCURVE",
"123 138 OFFCURVE",
"123 210 CURVE SMOOTH",
"123 300 OFFCURVE",
"172 441 OFFCURVE",
"279 441 CURVE SMOOTH",
"323 441 OFFCURVE",
"350 427 OFFCURVE",
"380 397 CURVE"
);
}
);
width = 421;
},
{
hints = (
{
place = "{21.000000, 126.000000}";
},
{
horizontal = 1;
place = "{-12.000000, 88.000000}";
},
{
horizontal = 1;
place = "{427.000000, 83.000000}";
}
);
layerId = "D85D3C93-227B-4B8E-AED6-B444EF8D585A";
name = "Bold Italic";
paths = (
{
closed = 1;
nodes = (
"441 462 LINE",
"405 492 OFFCURVE",
"342 510 OFFCURVE",
"296 510 CURVE SMOOTH",
"127 510 OFFCURVE",
"21 364 OFFCURVE",
"21 197 CURVE SMOOTH",
"21 80 OFFCURVE",
"99 -12 OFFCURVE",
"221 -12 CURVE SMOOTH",
"288 -12 OFFCURVE",
"337 6 OFFCURVE",
"391 35 CURVE",
"354 121 LINE",
"325 99 OFFCURVE",
"285 76 OFFCURVE",
"244 76 CURVE SMOOTH",
"170 76 OFFCURVE",
"147 142 OFFCURVE",
"147 209 CURVE SMOOTH",
"147 286 OFFCURVE",
"181 427 OFFCURVE",
"282 427 CURVE SMOOTH",
"320 427 OFFCURVE",
"348 408 OFFCURVE",
"372 383 CURVE"
);
}
);
width = 421;
}
);
leftKerningGroup = c;
rightKerningGroup = c;
unicode = 0063;
},
{
glyphname = ccedilla;
lastChange = "2015-02-06 22:45:45 +0000";
layers = (
{
components = (
{
name = c;
},
{
name = cedilla;
transform = "{1, 0, 0, 1, 73, 0}";
}
);
layerId = UUID0;
name = "Regular Italic";
width = 421;
},
{
hints = (
{
place = "{17.000000, 127.000000}";
},
{
place = "{186.000000, 98.000000}";
},
{
horizontal = 1;
place = "{-9.000000, 21.000000}";
target = up;
type = BottomGhost;
},
{
horizontal = 1;
place = "{427.000000, 83.000000}";
}
);
layerId = "D85D3C93-227B-4B8E-AED6-B444EF8D585A";
name = "Bold Italic";
paths = (
{
closed = 1;
nodes = (
"437 462 LINE",
"401 492 OFFCURVE",
"338 510 OFFCURVE",
"292 510 CURVE SMOOTH",
"123 510 OFFCURVE",
"17 364 OFFCURVE",
"17 197 CURVE SMOOTH",
"17 93 OFFCURVE",
"79 8 OFFCURVE",
"179 -9 CURVE",
"129 -82 LINE",
"163 -92 OFFCURVE",
"186 -101 OFFCURVE",
"186 -118 CURVE SMOOTH",
"186 -151 OFFCURVE",
"135 -154 OFFCURVE",
"110 -158 CURVE",
"126 -220 LINE",
"203 -209 OFFCURVE",
"284 -185 OFFCURVE",
"284 -112 CURVE SMOOTH",
"284 -74 OFFCURVE",
"256 -53 OFFCURVE",
"234 -42 CURVE",
"255 -10 LINE",
"304 -4 OFFCURVE",
"344 12 OFFCURVE",
"387 35 CURVE",
"351 121 LINE",
"321 99 OFFCURVE",
"281 76 OFFCURVE",
"240 76 CURVE SMOOTH",
"167 76 OFFCURVE",
"144 142 OFFCURVE",
"144 209 CURVE SMOOTH",
"144 286 OFFCURVE",
"177 427 OFFCURVE",
"279 427 CURVE SMOOTH",
"316 427 OFFCURVE",
"344 408 OFFCURVE",
"368 383 CURVE"
);
}
);
width = 421;
}
);
leftKerningGroup = c;
rightKerningGroup = c;
unicode = 00E7;
},
{
glyphname = d;
lastChange = "2015-02-06 22:45:45 +0000";
layers = (
{
hints = (
{
place = "{36.000000, 92.000000}";
},
{
place = "{345.000000, 70.000000}";
},
{
horizontal = 1;
place = "{-13.000000, 63.000000}";
},
{
horizontal = 1;
place = "{441.000000, 62.000000}";
},
{
horizontal = 1;
place = "{764.000000, -20.000000}";
target = down;
type = TopGhost;
},
{
horizontal = 1;
place = "{-11.000000, 21.000000}";
target = up;
type = BottomGhost;
}
);
layerId = UUID0;
name = "Regular Italic";
paths = (
{
closed = 1;
nodes = (
"509 764 LINE",
"422 764 LINE",
"422 710 LINE",
"422 710 OFFCURVE",
"422 708 OFFCURVE",
"388 464 CURVE",
"364 491 OFFCURVE",
"335 503 OFFCURVE",
"299 503 CURVE SMOOTH",
"138 503 OFFCURVE",
"36 320 OFFCURVE",
"36 176 CURVE SMOOTH",
"36 75 OFFCURVE",
"81 -13 OFFCURVE",
"194 -13 CURVE SMOOTH",
"259 -13 OFFCURVE",
"305 23 OFFCURVE",
"341 74 CURVE",
"345 74 LINE",
"345 70 LINE SMOOTH",
"345 25 OFFCURVE",
"377 -11 OFFCURVE",
"424 -11 CURVE SMOOTH",
"453 -11 OFFCURVE",
"474 -1 OFFCURVE",
"499 12 CURVE",
"488 62 LINE",
"488 62 OFFCURVE",
"467 54 OFFCURVE",
"448 54 CURVE SMOOTH",
"431 54 OFFCURVE",
"415 63 OFFCURVE",
"415 92 CURVE SMOOTH",
"415 95 OFFCURVE",
"416 104 OFFCURVE",
"416 104 CURVE"
);
},
{
closed = 1;
nodes = (
"377 383 LINE",
"363 274 OFFCURVE",
"335 50 OFFCURVE",
"210 50 CURVE SMOOTH",
"143 50 OFFCURVE",
"128 120 OFFCURVE",
"128 173 CURVE SMOOTH",
"128 269 OFFCURVE",
"183 441 OFFCURVE",
"301 441 CURVE SMOOTH",
"333 441 OFFCURVE",
"359 429 OFFCURVE",
"379 404 CURVE"
);
}
);
width = 526;
},
{
hints = (
{
place = "{21.000000, 122.000000}";
},
{
horizontal = 1;
place = "{-12.000000, 83.000000}";
},
{
horizontal = 1;
place = "{427.000000, 82.000000}";
},
{
horizontal = 1;
place = "{769.000000, -20.000000}";
target = down;
type = TopGhost;
},
{
horizontal = 1;
place = "{-9.000000, 21.000000}";
target = up;
type = BottomGhost;
},
{
horizontal = 1;
place = "{-9.000000, 83.000000}";
}
);
layerId = "D85D3C93-227B-4B8E-AED6-B444EF8D585A";
name = "Bold Italic";
paths = (
{
closed = 1;
nodes = (
"534 769 LINE",
"407 769 LINE",
"412 714 LINE",
"381 477 LINE",
"357 500 OFFCURVE",
"313 509 OFFCURVE",
"280 509 CURVE SMOOTH",
"112 509 OFFCURVE",
"21 349 OFFCURVE",
"21 197 CURVE SMOOTH",
"21 89 OFFCURVE",
"72 -12 OFFCURVE",
"192 -12 CURVE SMOOTH",
"241 -12 OFFCURVE",
"300 7 OFFCURVE",
"339 59 CURVE",
"350 20 OFFCURVE",
"384 -9 OFFCURVE",
"424 -9 CURVE SMOOTH",
"458 -9 OFFCURVE",
"501 3 OFFCURVE",
"530 22 CURVE",
"513 86 LINE",
"500 81 OFFCURVE",
"478 74 OFFCURVE",
"465 74 CURVE SMOOTH",
"445 74 OFFCURVE",
"440 93 OFFCURVE",
"440 110 CURVE SMOOTH",
"440 117 OFFCURVE",
"441 124 OFFCURVE",
"442 131 CURVE SMOOTH"
);
},
{
closed = 1;
nodes = (
"350 247 OFFCURVE",
"319 71 OFFCURVE",
"216 71 CURVE SMOOTH",
"157 71 OFFCURVE",
"143 129 OFFCURVE",
"143 200 CURVE SMOOTH",
"143 271 OFFCURVE",
"176 427 OFFCURVE",
"283 427 CURVE SMOOTH",
"314 427 OFFCURVE",
"341 415 OFFCURVE",
"369 387 CURVE"
);
}
);
width = 529;
}
);
leftKerningGroup = c;
rightKerningGroup = l;
unicode = 0064;
},
{
glyphname = eth;
lastChange = "2015-02-06 22:45:45 +0000";
layers = (
{
hints = (
{
place = "{37.000000, 84.000000}";
},
{
place = "{386.000000, 85.000000}";
},
{
horizontal = 1;
place = "{-10.000000, 60.000000}";
},
{
horizontal = 1;
place = "{445.000000, 60.000000}";
},
{
horizontal = 1;
place = "{772.000000, -20.000000}";
target = down;
type = TopGhost;
}
);
layerId = UUID0;
name = "Regular Italic";
paths = (
{
closed = 1;
nodes = (
"444 729 LINE",
"423 771 LINE",
"313 712 LINE",
"296 737 OFFCURVE",
"277 757 OFFCURVE",
"264 772 CURVE",
"207 739 LINE",
"221 723 OFFCURVE",
"238 703 OFFCURVE",
"254 680 CURVE",
"146 622 LINE",
"171 582 LINE",
"279 640 LINE",
"306 597 OFFCURVE",
"331 546 OFFCURVE",
"351 492 CURVE",
"332 500 OFFCURVE",
"312 505 OFFCURVE",
"288 505 CURVE SMOOTH",
"137 505 OFFCURVE",
"37 354 OFFCURVE",
"37 199 CURVE SMOOTH",
"37 83 OFFCURVE",
"99 -10 OFFCURVE",
"220 -10 CURVE SMOOTH",
"375 -10 OFFCURVE",
"471 144 OFFCURVE",
"471 302 CURVE SMOOTH",
"471 442 OFFCURVE",
"404 577 OFFCURVE",
"341 673 CURVE"
);
},
{
closed = 1;
nodes = (
"372 166 OFFCURVE",
"328 50 OFFCURVE",
"227 50 CURVE SMOOTH",
"146 50 OFFCURVE",
"121 128 OFFCURVE",
"121 200 CURVE SMOOTH",
"121 266 OFFCURVE",
"155 445 OFFCURVE",
"280 445 CURVE SMOOTH",
"362 445 OFFCURVE",
"386 366 OFFCURVE",
"386 293 CURVE SMOOTH",
"386 277 OFFCURVE",
"385 261 OFFCURVE",
"383 247 CURVE SMOOTH"
);
}
);
width = 508;
},
{
hints = (
{
place = "{16.000000, 126.000000}";
},
{
place = "{357.000000, 126.000000}";
},
{
horizontal = 1;
place = "{-11.000000, 83.000000}";
},
{
horizontal = 1;
place = "{428.000000, 82.000000}";
},
{
horizontal = 1;
place = "{731.000000, -20.000000}";
target = down;
type = TopGhost;
}
);
layerId = "D85D3C93-227B-4B8E-AED6-B444EF8D585A";
name = "Bold Italic";
paths = (
{
closed = 1;
nodes = (
"451 723 LINE",
"421 783 LINE",
"319 728 LINE",
"302 748 OFFCURVE",
"287 767 OFFCURVE",
"273 783 CURVE",
"182 731 LINE",
"195 715 OFFCURVE",
"209 697 OFFCURVE",
"224 677 CURVE",
"130 626 LINE",
"165 568 LINE",
"260 619 LINE",
"281 585 OFFCURVE",
"298 547 OFFCURVE",
"314 508 CURVE",
"305 509 OFFCURVE",
"294 510 OFFCURVE",
"284 510 CURVE SMOOTH",
"129 510 OFFCURVE",
"16 367 OFFCURVE",
"16 206 CURVE SMOOTH",
"16 82 OFFCURVE",
"86 -11 OFFCURVE",
"215 -11 CURVE SMOOTH",
"380 -11 OFFCURVE",
"483 137 OFFCURVE",
"483 307 CURVE SMOOTH",
"483 443 OFFCURVE",
"422 574 OFFCURVE",
"357 672 CURVE"
);
},
{
closed = 1;
nodes = (
"159 72 OFFCURVE",
"142 136 OFFCURVE",
"142 198 CURVE SMOOTH",
"142 247 OFFCURVE",
"161 428 OFFCURVE",
"273 428 CURVE SMOOTH",
"340 428 OFFCURVE",
"357 367 OFFCURVE",
"357 306 CURVE SMOOTH",
"357 247 OFFCURVE",
"342 72 OFFCURVE",
"226 72 CURVE SMOOTH"
);
}
);
width = 536;
}
);
unicode = 00F0;
},
{
glyphname = e;
lastChange = "2015-02-06 22:45:45 +0000";
layers = (
{
hints = (
{
place = "{37.000000, 85.000000}";
},
{
place = "{344.000000, 84.000000}";
},
{
horizontal = 1;
place = "{-13.000000, 70.000000}";
},
{
horizontal = 1;
place = "{202.000000, 58.000000}";
},
{
horizontal = 1;
place = "{441.000000, 62.000000}";
}
);
layerId = UUID0;
name = "Regular Italic";
paths = (
{
closed = 1;
nodes = (
"428 473 OFFCURVE",
"369 503 OFFCURVE",
"300 503 CURVE SMOOTH",
"135 503 OFFCURVE",
"37 342 OFFCURVE",
"37 192 CURVE SMOOTH",
"37 72 OFFCURVE",
"112 -13 OFFCURVE",
"234 -13 CURVE SMOOTH",
"293 -13 OFFCURVE",
"359 9 OFFCURVE",
"407 43 CURVE",
"378 102 LINE",
"337 74 OFFCURVE",
"289 57 OFFCURVE",
"239 57 CURVE SMOOTH",
"158 57 OFFCURVE",
"122 125 OFFCURVE",
"122 197 CURVE SMOOTH",
"122 202 LINE",
"192 203 OFFCURVE",
"268 211 OFFCURVE",
"330 248 CURVE SMOOTH",
"384 280 OFFCURVE",
"428 331 OFFCURVE",
"428 397 CURVE SMOOTH"
);
},
{
closed = 1;
nodes = (
"344 351 OFFCURVE",
"305 312 OFFCURVE",
"275 293 CURVE SMOOTH",
"234 268 OFFCURVE",
"175 260 OFFCURVE",
"127 260 CURVE",
"134 335 OFFCURVE",
"204 441 OFFCURVE",
"287 441 CURVE SMOOTH",
"320 441 OFFCURVE",
"344 424 OFFCURVE",
"344 390 CURVE SMOOTH"
);
}
);
width = 464;
},
{
hints = (
{
place = "{21.000000, 127.000000}";
},
{
place = "{329.000000, 123.000000}";
},
{
horizontal = 1;
place = "{-12.000000, 88.000000}";
},
{
horizontal = 1;
place = "{194.000000, 85.000000}";
},
{
horizontal = 1;
place = "{426.000000, 84.000000}";
}
);
layerId = "D85D3C93-227B-4B8E-AED6-B444EF8D585A";
name = "Bold Italic";
paths = (
{
closed = 1;
nodes = (
"452 472 OFFCURVE",
"385 510 OFFCURVE",
"299 510 CURVE SMOOTH",
"119 510 OFFCURVE",
"21 336 OFFCURVE",
"21 201 CURVE SMOOTH",
"21 66 OFFCURVE",
"116 -12 OFFCURVE",
"238 -12 CURVE SMOOTH",
"360 -12 OFFCURVE",
"436 54 OFFCURVE",
"436 54 CURVE",
"394 137 LINE",
"360 111 OFFCURVE",
"305 76 OFFCURVE",
"250 76 CURVE SMOOTH",
"198 76 OFFCURVE",
"153 114 OFFCURVE",
"148 194 CURVE",
"388 196 OFFCURVE",
"452 317 OFFCURVE",
"452 394 CURVE SMOOTH"
);
},
{
closed = 1;
nodes = (
"329 332 OFFCURVE",
"261 282 OFFCURVE",
"155 279 CURVE",
"179 390 OFFCURVE",
"259 426 OFFCURVE",
"290 426 CURVE SMOOTH",
"316 426 OFFCURVE",
"329 412 OFFCURVE",
"329 392 CURVE SMOOTH"
);
}
);
width = 462;
}
);
leftKerningGroup = c;
unicode = 0065;
},
{
glyphname = eacute;
lastChange = "2015-02-06 22:45:45 +0000";
layers = (
{
components = (
{
name = e;
},
{
name = acute;
transform = "{1, 0, 0, 1, 210, 0}";
}
);
layerId = UUID0;
name = "Regular Italic";
width = 464;
},
{
hints = (
{
place = "{21.000000, 127.000000}";
},
{
place = "{329.000000, 123.000000}";
},
{
horizontal = 1;
place = "{-12.000000, 88.000000}";
},
{
horizontal = 1;
place = "{194.000000, 85.000000}";
},
{
horizontal = 1;
place = "{426.000000, 84.000000}";
},
{
horizontal = 1;
place = "{592.000000, 165.000000}";
}
);
layerId = "D85D3C93-227B-4B8E-AED6-B444EF8D585A";
name = "Bold Italic";
paths = (
{
closed = 1;
nodes = (
"452 472 OFFCURVE",
"385 510 OFFCURVE",
"299 510 CURVE SMOOTH",
"119 510 OFFCURVE",
"21 336 OFFCURVE",
"21 201 CURVE SMOOTH",
"21 66 OFFCURVE",
"116 -12 OFFCURVE",
"238 -12 CURVE SMOOTH",
"360 -12 OFFCURVE",
"436 54 OFFCURVE",
"436 54 CURVE",
"394 137 LINE",
"360 111 OFFCURVE",
"305 76 OFFCURVE",
"250 76 CURVE SMOOTH",
"198 76 OFFCURVE",
"153 114 OFFCURVE",
"148 194 CURVE",
"388 196 OFFCURVE",
"452 317 OFFCURVE",
"452 394 CURVE SMOOTH"
);
},
{
closed = 1;
nodes = (
"329 332 OFFCURVE",
"261 282 OFFCURVE",
"155 279 CURVE",
"179 390 OFFCURVE",
"259 426 OFFCURVE",
"290 426 CURVE SMOOTH",
"316 426 OFFCURVE",
"329 412 OFFCURVE",
"329 392 CURVE SMOOTH"
);
},
{
closed = 1;
nodes = (
"517 757 LINE",
"372 757 LINE",
"240 592 LINE",
"343 592 LINE"
);
}
);
width = 464;
}
);
leftKerningGroup = c;
unicode = 00E9;
},
{
glyphname = ecircumflex;
lastChange = "2015-02-06 22:45:45 +0000";
layers = (
{
components = (
{
name = e;
},
{
name = circumflex;
transform = "{1, 0, 0, 1, 157, 0}";
}
);
layerId = UUID0;
name = "Regular Italic";
width = 464;
},
{
hints = (
{
place = "{21.000000, 127.000000}";
},
{
place = "{329.000000, 123.000000}";
},
{
horizontal = 1;
place = "{-12.000000, 88.000000}";
},
{
horizontal = 1;
place = "{194.000000, 85.000000}";
},
{
horizontal = 1;
place = "{426.000000, 84.000000}";
},
{
horizontal = 1;
place = "{592.000000, 145.000000}";
},
{
horizontal = 1;
place = "{666.000000, 71.000000}";
}
);
layerId = "D85D3C93-227B-4B8E-AED6-B444EF8D585A";
name = "Bold Italic";
paths = (
{
closed = 1;
nodes = (
"452 472 OFFCURVE",
"385 510 OFFCURVE",
"299 510 CURVE SMOOTH",
"119 510 OFFCURVE",
"21 336 OFFCURVE",
"21 201 CURVE SMOOTH",
"21 66 OFFCURVE",
"116 -12 OFFCURVE",
"238 -12 CURVE SMOOTH",
"360 -12 OFFCURVE",
"436 54 OFFCURVE",
"436 54 CURVE",
"394 137 LINE",
"360 111 OFFCURVE",
"305 76 OFFCURVE",
"250 76 CURVE SMOOTH",
"198 76 OFFCURVE",
"153 114 OFFCURVE",
"148 194 CURVE",
"388 196 OFFCURVE",
"452 317 OFFCURVE",
"452 394 CURVE SMOOTH"
);
},
{
closed = 1;
nodes = (
"329 332 OFFCURVE",
"261 282 OFFCURVE",
"155 279 CURVE",
"179 390 OFFCURVE",
"259 426 OFFCURVE",
"290 426 CURVE SMOOTH",
"316 426 OFFCURVE",
"329 412 OFFCURVE",
"329 392 CURVE SMOOTH"
);
},
{
closed = 1;
nodes = (
"438 592 LINE",
"359 737 LINE",
"261 737 LINE",
"145 592 LINE",
"221 592 LINE",
"300 666 LINE",
"360 592 LINE"
);
}
);
width = 464;
}
);
leftKerningGroup = c;
unicode = 00EA;
},
{
glyphname = edieresis;
lastChange = "2015-02-06 22:45:45 +0000";
layers = (
{
components = (
{
name = e;
},
{
name = dieresis;
transform = "{1, 0, 0, 1, 145, 47}";
}
);
layerId = UUID0;
name = "Regular Italic";
width = 464;
},
{
hints = (
{
place = "{21.000000, 127.000000}";
},
{
place = "{329.000000, 123.000000}";
},
{
place = "{153.000000, 114.000000}";
},
{
place = "{313.000000, 115.000000}";
},
{
horizontal = 1;
place = "{-12.000000, 88.000000}";
},
{
horizontal = 1;
place = "{194.000000, 85.000000}";
},
{
horizontal = 1;
place = "{426.000000, 84.000000}";
},
{
horizontal = 1;
place = "{576.000000, 114.000000}";
}
);
layerId = "D85D3C93-227B-4B8E-AED6-B444EF8D585A";
name = "Bold Italic";
paths = (
{
closed = 1;
nodes = (
"452 472 OFFCURVE",
"385 510 OFFCURVE",
"299 510 CURVE SMOOTH",
"119 510 OFFCURVE",
"21 336 OFFCURVE",
"21 201 CURVE SMOOTH",
"21 66 OFFCURVE",
"116 -12 OFFCURVE",
"238 -12 CURVE SMOOTH",
"360 -12 OFFCURVE",
"436 54 OFFCURVE",
"436 54 CURVE",
"394 137 LINE",
"360 111 OFFCURVE",
"305 76 OFFCURVE",
"250 76 CURVE SMOOTH",
"198 76 OFFCURVE",
"153 114 OFFCURVE",
"148 194 CURVE",
"388 196 OFFCURVE",
"452 317 OFFCURVE",
"452 394 CURVE SMOOTH"
);
},
{
closed = 1;
nodes = (
"329 332 OFFCURVE",
"261 282 OFFCURVE",
"155 279 CURVE",
"179 390 OFFCURVE",
"259 426 OFFCURVE",
"290 426 CURVE SMOOTH",
"316 426 OFFCURVE",
"329 412 OFFCURVE",
"329 392 CURVE SMOOTH"
);
},
{
closed = 1;
nodes = (
"428 665 OFFCURVE",
"402 690 OFFCURVE",
"370 690 CURVE SMOOTH",
"339 690 OFFCURVE",
"313 664 OFFCURVE",
"313 633 CURVE SMOOTH",
"313 602 OFFCURVE",
"339 576 OFFCURVE",
"370 576 CURVE SMOOTH",
"402 576 OFFCURVE",
"428 601 OFFCURVE",
"428 633 CURVE SMOOTH"
);
},
{
closed = 1;
nodes = (
"267 665 OFFCURVE",
"242 690 OFFCURVE",
"210 690 CURVE SMOOTH",
"178 690 OFFCURVE",
"153 665 OFFCURVE",
"153 633 CURVE SMOOTH",
"153 601 OFFCURVE",
"178 576 OFFCURVE",
"210 576 CURVE SMOOTH",
"242 576 OFFCURVE",
"267 601 OFFCURVE",
"267 633 CURVE SMOOTH"
);
}
);
width = 464;
}
);
leftKerningGroup = c;
unicode = 00EB;
},
{
glyphname = egrave;
lastChange = "2015-02-06 22:45:45 +0000";
layers = (
{
components = (
{
name = e;
},
{
name = grave;
transform = "{1, 0, 0, 1, 90, 0}";
}
);
layerId = UUID0;
name = "Regular Italic";
width = 464;
},
{
hints = (
{
place = "{21.000000, 127.000000}";
},
{
place = "{329.000000, 123.000000}";
},
{
horizontal = 1;
place = "{-12.000000, 88.000000}";
},
{
horizontal = 1;
place = "{194.000000, 85.000000}";
},
{
horizontal = 1;
place = "{426.000000, 84.000000}";
},
{
horizontal = 1;
place = "{592.000000, 165.000000}";
}
);
layerId = "D85D3C93-227B-4B8E-AED6-B444EF8D585A";
name = "Bold Italic";
paths = (
{
closed = 1;
nodes = (
"452 472 OFFCURVE",
"385 510 OFFCURVE",
"299 510 CURVE SMOOTH",
"119 510 OFFCURVE",
"21 336 OFFCURVE",
"21 201 CURVE SMOOTH",
"21 66 OFFCURVE",
"116 -12 OFFCURVE",
"238 -12 CURVE SMOOTH",
"360 -12 OFFCURVE",
"436 54 OFFCURVE",
"436 54 CURVE",
"394 137 LINE",
"360 111 OFFCURVE",
"305 76 OFFCURVE",
"250 76 CURVE SMOOTH",
"198 76 OFFCURVE",
"153 114 OFFCURVE",
"148 194 CURVE",
"388 196 OFFCURVE",
"452 317 OFFCURVE",
"452 394 CURVE SMOOTH"
);
},
{
closed = 1;
nodes = (
"329 332 OFFCURVE",
"261 282 OFFCURVE",
"155 279 CURVE",
"179 390 OFFCURVE",
"259 426 OFFCURVE",
"290 426 CURVE SMOOTH",
"316 426 OFFCURVE",
"329 412 OFFCURVE",
"329 392 CURVE SMOOTH"
);
},
{
closed = 1;
nodes = (
"335 592 LINE",
"226 757 LINE",
"81 757 LINE",
"232 592 LINE"
);
}
);
width = 464;
}
);
leftKerningGroup = c;
unicode = 00E8;
},
{
glyphname = f;
lastChange = "2015-02-07 00:00:23 +0000";
layers = (
{
hints = (
{
horizontal = 1;
place = "{-230.000000, 64.000000}";
},
{
horizontal = 1;
place = "{427.000000, 63.000000}";
},
{
horizontal = 1;
place = "{707.000000, 63.000000}";
}
);
layerId = UUID0;
name = "Regular Italic";
paths = (
{
closed = 1;
nodes = (
"457 731 LINE",
"425 753 OFFCURVE",
"391 770 OFFCURVE",
"337 770 CURVE SMOOTH",
"178 770 OFFCURVE",
"135 634 OFFCURVE",
"118 490 CURVE",
"46 490 LINE",
"38 427 LINE",
"109 427 LINE",
"44 -52 LINE SMOOTH",
"33 -136 OFFCURVE",
"-1 -166 OFFCURVE",
"-45 -166 CURVE SMOOTH",
"-78 -166 OFFCURVE",
"-89 -159 OFFCURVE",
"-115 -141 CURVE",
"-155 -198 LINE",
"-127 -216 OFFCURVE",
"-98 -230 OFFCURVE",
"-43 -230 CURVE SMOOTH",
"47 -230 OFFCURVE",
"106 -176 OFFCURVE",
"122 -61 CURVE SMOOTH",
"189 427 LINE",
"301 427 LINE",
"309 490 LINE",
"197 490 LINE",
"209 593 OFFCURVE",
"235 707 OFFCURVE",
"343 707 CURVE SMOOTH",
"371 707 OFFCURVE",
"397 694 OFFCURVE",
"418 672 CURVE"
);
}
);
width = 250;
},
{
hints = (
{
horizontal = 1;
place = "{-230.000000, 79.000000}";
},
{
horizontal = 1;
place = "{414.000000, 83.000000}";
},
{
horizontal = 1;
place = "{733.000000, -20.000000}";
target = down;
type = TopGhost;
},
{
horizontal = 1;
place = "{694.000000, 82.000000}";
}
);
layerId = "D85D3C93-227B-4B8E-AED6-B444EF8D585A";
name = "Bold Italic";
paths = (
{
closed = 1;
nodes = (
"501 733 LINE",
"463 759 OFFCURVE",
"403 776 OFFCURVE",
"357 776 CURVE SMOOTH",
"182 776 OFFCURVE",
"127 650 OFFCURVE",
"107 497 CURVE",
"28 497 LINE",
"18 414 LINE",
"97 414 LINE",
"36 -35 LINE SMOOTH",
"29 -85 OFFCURVE",
"12 -151 OFFCURVE",
"-49 -151 CURVE SMOOTH",
"-71 -151 OFFCURVE",
"-106 -135 OFFCURVE",
"-122 -120 CURVE",
"-170 -186 LINE",
"-142 -219 OFFCURVE",
"-73 -230 OFFCURVE",
"-33 -230 CURVE SMOOTH",
"84 -230 OFFCURVE",
"134 -155 OFFCURVE",
"149 -47 CURVE SMOOTH",
"211 414 LINE",
"329 414 LINE",
"340 497 LINE",
"222 497 LINE",
"232 567 OFFCURVE",
"262 694 OFFCURVE",
"354 694 CURVE SMOOTH",
"397 694 OFFCURVE",
"421 682 OFFCURVE",
"452 654 CURVE"
);
}
);
width = 301;
}
);
leftKerningGroup = f;
rightKerningGroup = f;
unicode = 0066;
},
{
glyphname = g;
lastChange = "2015-02-07 00:09:18 +0000";
layers = (
{
hints = (
{
horizontal = 1;
place = "{-230.000000, 62.000000}";
},
{
horizontal = 1;
place = "{-13.000000, 62.000000}";
},
{
horizontal = 1;
place = "{441.000000, 62.000000}";
},
{
horizontal = 1;
place = "{512.000000, -20.000000}";
target = down;
type = TopGhost;
}
);
layerId = UUID0;
name = "Regular Italic";
paths = (
{
closed = 1;
nodes = (
"477 512 LINE",
"403 481 LINE",
"375 494 OFFCURVE",
"345 503 OFFCURVE",
"311 503 CURVE SMOOTH",
"141 503 OFFCURVE",
"39 326 OFFCURVE",
"39 176 CURVE SMOOTH",
"39 76 OFFCURVE",
"88 -13 OFFCURVE",
"197 -13 CURVE SMOOTH",
"254 -13 OFFCURVE",
"301 14 OFFCURVE",
"336 75 CURVE",
"339 74 LINE",
"320 -29 OFFCURVE",
"279 -168 OFFCURVE",
"159 -168 CURVE SMOOTH",
"127 -168 OFFCURVE",
"87 -148 OFFCURVE",
"59 -122 CURVE",
"18 -185 LINE",
"70 -216 OFFCURVE",
"112 -230 OFFCURVE",
"168 -230 CURVE SMOOTH",
"351 -230 OFFCURVE",
"399 -52 OFFCURVE",
"419 93 CURVE SMOOTH"
);
},
{
closed = 1;
nodes = (
"370 315 LINE SMOOTH",
"341 121 OFFCURVE",
"283 49 OFFCURVE",
"213 49 CURVE SMOOTH",
"151 49 OFFCURVE",
"131 116 OFFCURVE",
"131 173 CURVE SMOOTH",
"131 280 OFFCURVE",
"186 441 OFFCURVE",
"313 441 CURVE SMOOTH",
"338 441 OFFCURVE",
"363 435 OFFCURVE",
"386 422 CURVE"
);
}
);
width = 515;
},
{
hints = (
{
place = "{22.000000, 122.000000}";
},
{
horizontal = 1;
place = "{-230.000000, 80.000000}";
},
{
horizontal = 1;
place = "{-12.000000, 83.000000}";
},
{
horizontal = 1;
place = "{426.000000, 84.000000}";
}
);
layerId = "D85D3C93-227B-4B8E-AED6-B444EF8D585A";
name = "Bold Italic";
paths = (
{
closed = 1;
nodes = (
"500 521 LINE",
"402 490 LINE",
"377 501 OFFCURVE",
"333 510 OFFCURVE",
"300 510 CURVE SMOOTH",
"116 510 OFFCURVE",
"22 349 OFFCURVE",
"22 197 CURVE SMOOTH",
"22 89 OFFCURVE",
"73 -12 OFFCURVE",
"193 -12 CURVE SMOOTH",
"235 -12 OFFCURVE",
"281 1 OFFCURVE",
"319 38 CURVE",
"323 38 LINE",
"317 -4 OFFCURVE",
"267 -150 OFFCURVE",
"165 -150 CURVE SMOOTH",
"112 -150 OFFCURVE",
"57 -102 OFFCURVE",
"51 -93 CURVE",
"-5 -174 LINE",
"13 -189 OFFCURVE",
"74 -230 OFFCURVE",
"171 -230 CURVE SMOOTH",
"330 -230 OFFCURVE",
"416 -104 OFFCURVE",
"439 66 CURVE SMOOTH"
);
},
{
closed = 1;
nodes = (
"353 264 OFFCURVE",
"326 71 OFFCURVE",
"217 71 CURVE SMOOTH",
"158 71 OFFCURVE",
"144 129 OFFCURVE",
"144 200 CURVE SMOOTH",
"144 271 OFFCURVE",
"181 426 OFFCURVE",
"293 426 CURVE SMOOTH",
"324 426 OFFCURVE",
"347 416 OFFCURVE",
"372 404 CURVE"
);
}
);
width = 508;
}
);
leftKerningGroup = g;
unicode = 0067;
},
{
glyphname = h;
lastChange = "2015-02-06 22:45:45 +0000";
layers = (
{
hints = (
{
place = "{370.000000, 83.000000}";
},
{
horizontal = 1;
place = "{431.000000, 72.000000}";
},
{
horizontal = 1;
place = "{764.000000, -20.000000}";
target = down;
type = TopGhost;
},
{
horizontal = 1;
place = "{0.000000, 21.000000}";
target = up;
type = BottomGhost;
}
);
layerId = UUID0;
name = "Regular Italic";
paths = (
{
closed = 1;
nodes = (
"450 328 LINE",
"452 344 OFFCURVE",
"453 359 OFFCURVE",
"453 373 CURVE SMOOTH",
"453 471 OFFCURVE",
"399 503 OFFCURVE",
"327 503 CURVE SMOOTH",
"267 503 OFFCURVE",
"213 466 OFFCURVE",
"175 428 CURVE",
"222 764 LINE",
"134 764 LINE",
"134 707 LINE",
"39 0 LINE",
"119 0 LINE",
"168 365 LINE",
"179 374 OFFCURVE",
"248 431 OFFCURVE",
"306 431 CURVE SMOOTH",
"358 431 OFFCURVE",
"370 395 OFFCURVE",
"370 354 CURVE SMOOTH",
"370 337 OFFCURVE",
"368 318 OFFCURVE",
"366 302 CURVE SMOOTH",
"326 0 LINE",
"417 0 LINE",
"415 58 LINE"
);
}
);
width = 493;
},
{
hints = (
{
place = "{349.000000, 117.000000}";
},
{
horizontal = 1;
place = "{0.000000, 21.000000}";
target = up;
type = BottomGhost;
},
{
horizontal = 1;
place = "{414.000000, 97.000000}";
},
{
horizontal = 1;
place = "{769.000000, -20.000000}";
target = down;
type = TopGhost;
}
);
layerId = "D85D3C93-227B-4B8E-AED6-B444EF8D585A";
name = "Bold Italic";
paths = (
{
closed = 1;
nodes = (
"466 469 OFFCURVE",
"429 511 OFFCURVE",
"345 511 CURVE SMOOTH",
"294 511 OFFCURVE",
"240 481 OFFCURVE",
"200 450 CURVE",
"244 769 LINE",
"118 769 LINE",
"122 715 LINE",
"27 0 LINE",
"141 0 LINE",
"189 361 LINE",
"211 382 OFFCURVE",
"268 414 OFFCURVE",
"299 414 CURVE SMOOTH",
"336 414 OFFCURVE",
"349 395 OFFCURVE",
"349 360 CURVE SMOOTH",
"349 348 OFFCURVE",
"348 336 OFFCURVE",
"346 324 CURVE SMOOTH",
"302 0 LINE",
"428 0 LINE",
"425 54 LINE",
"463 336 LINE SMOOTH",
"465 352 OFFCURVE",
"466 370 OFFCURVE",
"466 387 CURVE SMOOTH"
);
}
);
width = 491;
}
);
leftKerningGroup = b;
rightKerningGroup = n;
unicode = 0068;
},
{
glyphname = i;
lastChange = "2015-02-06 22:45:45 +0000";
layers = (
{
hints = (
{
place = "{110.000000, 117.000000}";
},
{
horizontal = 1;
place = "{602.000000, 117.000000}";
},
{
horizontal = 1;
place = "{490.000000, -20.000000}";
target = down;
type = TopGhost;
},
{
horizontal = 1;
place = "{0.000000, 21.000000}";
target = up;
type = BottomGhost;
}
);
layerId = UUID0;
name = "Regular Italic";
paths = (
{
closed = 1;
nodes = (
"227 695 OFFCURVE",
"206 719 OFFCURVE",
"176 719 CURVE SMOOTH",
"140 719 OFFCURVE",
"110 685 OFFCURVE",
"110 652 CURVE SMOOTH",
"110 624 OFFCURVE",
"131 602 OFFCURVE",
"161 602 CURVE SMOOTH",
"197 602 OFFCURVE",
"227 634 OFFCURVE",
"227 668 CURVE SMOOTH"
);
},
{
closed = 1;
nodes = (
"186 490 LINE",
"98 490 LINE",
"98 433 LINE",
"40 0 LINE",
"128 0 LINE",
"128 58 LINE"
);
}
);
width = 227;
},
{
hints = (
{
place = "{102.000000, 146.000000}";
},
{
horizontal = 1;
place = "{0.000000, 21.000000}";
target = up;
type = BottomGhost;
},
{
horizontal = 1;
place = "{497.000000, -20.000000}";
target = down;
type = TopGhost;
},
{
horizontal = 1;
place = "{601.000000, 153.000000}";
}
);
layerId = "D85D3C93-227B-4B8E-AED6-B444EF8D585A";
name = "Bold Italic";
paths = (
{
closed = 1;
nodes = (
"248 725 OFFCURVE",
"223 754 OFFCURVE",
"186 754 CURVE SMOOTH",
"140 754 OFFCURVE",
"102 712 OFFCURVE",
"102 667 CURVE SMOOTH",
"102 631 OFFCURVE",
"128 601 OFFCURVE",
"165 601 CURVE SMOOTH",
"211 601 OFFCURVE",
"248 645 OFFCURVE",
"248 689 CURVE SMOOTH"
);
},
{
closed = 1;
nodes = (
"207 497 LINE",
"83 497 LINE",
"86 443 LINE",
"27 0 LINE",
"151 0 LINE",
"148 55 LINE"
);
}
);
width = 228;
}
);
leftKerningGroup = i;
rightKerningGroup = i;
unicode = 0069;
},
{
glyphname = idotless;
lastChange = "2016-01-07 04:00:30 +0000";
layers = (
{
hints = (
{
horizontal = 1;
place = "{490.000000, -20.000000}";
target = down;
type = TopGhost;
},
{
horizontal = 1;
place = "{0.000000, 21.000000}";
target = up;
type = BottomGhost;
}
);
layerId = UUID0;
name = "Regular Italic";
paths = (
{
closed = 1;
nodes = (
"186 490 LINE",
"98 490 LINE",
"98 433 LINE",
"40 0 LINE",
"128 0 LINE",
"128 58 LINE"
);
}
);
width = 227;
},
{
hints = (
{
place = "{27.000000, 180.000000}";
},
{
horizontal = 1;
place = "{0.000000, 21.000000}";
target = up;
type = BottomGhost;
},
{
horizontal = 1;
place = "{497.000000, -20.000000}";
target = down;
type = TopGhost;
}
);
layerId = "D85D3C93-227B-4B8E-AED6-B444EF8D585A";
name = "Bold Italic";
paths = (
{
closed = 1;
nodes = (
"207 497 LINE",
"83 497 LINE",
"86 443 LINE",
"27 0 LINE",
"151 0 LINE",
"148 55 LINE"
);
}
);
width = 228;
}
);
leftKerningGroup = i;
rightKerningGroup = i;
unicode = 0131;
},
{
glyphname = iacute;
lastChange = "2015-02-06 22:45:45 +0000";
layers = (
{
components = (
{
name = idotless;
},
{
name = acute;
transform = "{1, 0, 0, 1, 60, 0}";
}
);
layerId = UUID0;
name = "Regular Italic";
width = 227;
},
{
hints = (
{
place = "{27.000000, 337.000000}";
},
{
horizontal = 1;
place = "{0.000000, 21.000000}";
target = up;
type = BottomGhost;
},
{
horizontal = 1;
place = "{497.000000, -20.000000}";
target = down;
type = TopGhost;
},
{
horizontal = 1;
place = "{592.000000, 165.000000}";
}
);
layerId = "D85D3C93-227B-4B8E-AED6-B444EF8D585A";
name = "Bold Italic";
paths = (
{
closed = 1;
nodes = (
"207 497 LINE",
"83 497 LINE",
"86 443 LINE",
"27 0 LINE",
"151 0 LINE",
"148 55 LINE"
);
},
{
closed = 1;
nodes = (
"364 757 LINE",
"219 757 LINE",
"87 592 LINE",
"190 592 LINE"
);
}
);
width = 229;
}
);
leftKerningGroup = i;
unicode = 00ED;
},
{
glyphname = icircumflex;
lastChange = "2015-02-06 22:45:45 +0000";
layers = (
{
components = (
{
name = idotless;
},
{
name = circumflex;
transform = "{1, 0, 0, 1, 21, 0}";
}
);
layerId = UUID0;
name = "Regular Italic";
width = 227;
},
{
hints = (
{
place = "{7.000000, 293.000000}";
},
{
horizontal = 1;
place = "{0.000000, 21.000000}";
target = up;
type = BottomGhost;
},
{
horizontal = 1;
place = "{497.000000, -20.000000}";
target = down;
type = TopGhost;
},
{
horizontal = 1;
place = "{592.000000, 145.000000}";
},
{
horizontal = 1;
place = "{666.000000, 71.000000}";
}
);
layerId = "D85D3C93-227B-4B8E-AED6-B444EF8D585A";
name = "Bold Italic";
paths = (
{
closed = 1;
nodes = (
"207 497 LINE",
"83 497 LINE",
"86 443 LINE",
"27 0 LINE",
"151 0 LINE",
"148 55 LINE"
);
},
{
closed = 1;
nodes = (
"300 592 LINE",
"221 737 LINE",
"123 737 LINE",
"7 592 LINE",
"83 592 LINE",
"162 666 LINE",
"222 592 LINE"
);
}
);
width = 229;
}
);
leftKerningGroup = i;
unicode = 00EE;
},
{
glyphname = idieresis;
lastChange = "2015-02-06 22:45:45 +0000";
layers = (
{
components = (
{
name = idotless;
},
{
name = dieresis;
transform = "{1, 0, 0, 1, 10, 47}";
}
);
layerId = UUID0;
name = "Regular Italic";
width = 227;
},
{
hints = (
{
place = "{22.000000, 114.000000}";
},
{
place = "{182.000000, 115.000000}";
},
{
horizontal = 1;
place = "{0.000000, 21.000000}";
target = up;
type = BottomGhost;
},
{
horizontal = 1;
place = "{497.000000, -20.000000}";
target = down;
type = TopGhost;
},
{
horizontal = 1;
place = "{566.000000, 114.000000}";
}
);
layerId = "D85D3C93-227B-4B8E-AED6-B444EF8D585A";
name = "Bold Italic";
paths = (
{
closed = 1;
nodes = (
"208 497 LINE",
"83 497 LINE",
"87 443 LINE",
"27 0 LINE",
"151 0 LINE",
"149 55 LINE"
);
},
{
closed = 1;
nodes = (
"297 655 OFFCURVE",
"271 680 OFFCURVE",
"239 680 CURVE SMOOTH",
"208 680 OFFCURVE",
"182 654 OFFCURVE",
"182 623 CURVE SMOOTH",
"182 592 OFFCURVE",
"208 566 OFFCURVE",
"239 566 CURVE SMOOTH",
"271 566 OFFCURVE",
"297 591 OFFCURVE",
"297 623 CURVE SMOOTH"
);
},
{
closed = 1;
nodes = (
"136 655 OFFCURVE",
"111 680 OFFCURVE",
"79 680 CURVE SMOOTH",
"47 680 OFFCURVE",
"22 655 OFFCURVE",
"22 623 CURVE SMOOTH",
"22 591 OFFCURVE",
"47 566 OFFCURVE",
"79 566 CURVE SMOOTH",
"111 566 OFFCURVE",
"136 591 OFFCURVE",
"136 623 CURVE SMOOTH"
);
}
);
width = 229;
}
);
leftKerningGroup = i;
unicode = 00EF;
},
{
glyphname = igrave;
lastChange = "2015-02-06 22:45:45 +0000";
layers = (
{
components = (
{
name = idotless;
},
{
name = grave;
transform = "{1, 0, 0, 1, -61, 0}";
}
);
layerId = UUID0;
name = "Regular Italic";
width = 227;
},
{
hints = (
{
place = "{-31.000000, 254.000000}";
},
{
horizontal = 1;
place = "{0.000000, 21.000000}";
target = up;
type = BottomGhost;
},
{
horizontal = 1;
place = "{497.000000, -20.000000}";
target = down;
type = TopGhost;
},
{
horizontal = 1;
place = "{592.000000, 165.000000}";
}
);
layerId = "D85D3C93-227B-4B8E-AED6-B444EF8D585A";
name = "Bold Italic";
paths = (
{
closed = 1;
nodes = (
"208 497 LINE",
"83 497 LINE",
"86 443 LINE",
"27 0 LINE",
"151 0 LINE",
"148 55 LINE"
);
},
{
closed = 1;
nodes = (
"223 592 LINE",
"114 757 LINE",
"-31 757 LINE",
"120 592 LINE"
);
}
);
width = 229;
}
);
rightKerningGroup = i;
unicode = 00EC;
},
{
glyphname = j;
lastChange = "2015-02-06 22:45:45 +0000";
layers = (
{
hints = (
{
place = "{112.000000, 117.000000}";
},
{
horizontal = 1;
place = "{-230.000000, 64.000000}";
},
{
horizontal = 1;
place = "{601.000000, 117.000000}";
},
{
horizontal = 1;
place = "{490.000000, -20.000000}";
target = down;
type = TopGhost;
}
);
layerId = UUID0;
name = "Regular Italic";
paths = (
{
closed = 1;
nodes = (
"229 696 OFFCURVE",
"208 718 OFFCURVE",
"177 718 CURVE SMOOTH",
"141 718 OFFCURVE",
"112 686 OFFCURVE",
"112 652 CURVE SMOOTH",
"112 625 OFFCURVE",
"132 601 OFFCURVE",
"163 601 CURVE SMOOTH",
"199 601 OFFCURVE",
"229 634 OFFCURVE",
"229 668 CURVE SMOOTH"
);
},
{
closed = 1;
nodes = (
"189 490 LINE",
"102 490 LINE",
"102 433 LINE",
"35 -52 LINE SMOOTH",
"24 -135 OFFCURVE",
"-10 -166 OFFCURVE",
"-54 -166 CURVE SMOOTH",
"-88 -166 OFFCURVE",
"-106 -155 OFFCURVE",
"-124 -141 CURVE",
"-164 -198 LINE",
"-135 -216 OFFCURVE",
"-106 -230 OFFCURVE",
"-51 -230 CURVE SMOOTH",
"39 -230 OFFCURVE",
"98 -178 OFFCURVE",
"114 -61 CURVE SMOOTH"
);
}
);
width = 229;
},
{
hints = (
{
place = "{101.000000, 147.000000}";
},
{
horizontal = 1;
place = "{-230.000000, 80.000000}";
},
{
horizontal = 1;
place = "{497.000000, -20.000000}";
target = down;
type = TopGhost;
},
{
horizontal = 1;
place = "{601.000000, 153.000000}";
}
);
layerId = "D85D3C93-227B-4B8E-AED6-B444EF8D585A";
name = "Bold Italic";
paths = (
{
closed = 1;
nodes = (
"248 725 OFFCURVE",
"222 754 OFFCURVE",
"185 754 CURVE SMOOTH",
"140 754 OFFCURVE",
"101 712 OFFCURVE",
"101 667 CURVE SMOOTH",
"101 632 OFFCURVE",
"128 601 OFFCURVE",
"165 601 CURVE SMOOTH",
"210 601 OFFCURVE",
"248 644 OFFCURVE",
"248 689 CURVE SMOOTH"
);
},
{
closed = 1;
nodes = (
"209 497 LINE",
"83 497 LINE",
"87 444 LINE",
"29 15 LINE SMOOTH",
"22 -36 OFFCURVE",
"7 -150 OFFCURVE",
"-63 -150 CURVE SMOOTH",
"-94 -150 OFFCURVE",
"-132 -134 OFFCURVE",
"-150 -108 CURVE",
"-205 -188 LINE",
"-164 -213 OFFCURVE",
"-104 -230 OFFCURVE",
"-57 -230 CURVE SMOOTH",
"106 -230 OFFCURVE",
"128 -96 OFFCURVE",
"146 34 CURVE SMOOTH"
);
}
);
width = 228;
}
);
leftKerningGroup = i;
rightKerningGroup = i;
unicode = 006A;
},
{
glyphname = k;
lastChange = "2015-02-06 22:45:45 +0000";
layers = (
{
hints = (
{
horizontal = 1;
place = "{490.000000, -20.000000}";
target = down;
type = TopGhost;
},
{
horizontal = 1;
place = "{764.000000, -20.000000}";
target = down;
type = TopGhost;
},
{
horizontal = 1;
place = "{0.000000, 21.000000}";
target = up;
type = BottomGhost;
}
);
layerId = UUID0;
name = "Regular Italic";
paths = (
{
closed = 1;
nodes = (
"444 490 LINE",
"357 490 LINE",
"159 293 LINE",
"223 764 LINE",
"135 764 LINE",
"135 707 LINE",
"39 0 LINE",
"119 0 LINE",
"155 267 LINE",
"312 0 LINE",
"406 0 LINE",
"237 286 LINE"
);
}
);
width = 426;
},
{
hints = (
{
place = "{27.000000, 447.000000}";
},
{
horizontal = 1;
place = "{0.000000, 21.000000}";
target = up;
type = BottomGhost;
},
{
horizontal = 1;
place = "{497.000000, -20.000000}";
target = down;
type = TopGhost;
},
{
horizontal = 1;
place = "{769.000000, -20.000000}";
target = down;
type = TopGhost;
}
);
layerId = "D85D3C93-227B-4B8E-AED6-B444EF8D585A";
name = "Bold Italic";
paths = (
{
closed = 1;
nodes = (
"474 497 LINE",
"346 497 LINE",
"179 269 LINE",
"246 769 LINE",
"117 769 LINE",
"122 715 LINE",
"27 0 LINE",
"143 0 LINE",
"177 255 LINE",
"297 0 LINE",
"429 0 LINE",
"295 267 LINE"
);
}
);
width = 454;
}
);
leftKerningGroup = b;
rightKerningGroup = k;
unicode = 006B;
},
{
glyphname = l;
lastChange = "2015-02-06 22:45:45 +0000";
layers = (
{
hints = (
{
horizontal = 1;
place = "{764.000000, -20.000000}";
target = down;
type = TopGhost;
},
{
horizontal = 1;
place = "{0.000000, 21.000000}";
target = up;
type = BottomGhost;
}
);
layerId = UUID0;
name = "Regular Italic";
paths = (
{
closed = 1;
nodes = (
"223 764 LINE",
"135 764 LINE",
"135 707 LINE",
"39 0 LINE",
"128 0 LINE",
"128 58 LINE"
);
}
);
width = 227;
},
{
hints = (
{
place = "{27.000000, 220.000000}";
},
{
horizontal = 1;
place = "{0.000000, 21.000000}";
target = up;
type = BottomGhost;
},
{
horizontal = 1;
place = "{769.000000, -20.000000}";
target = down;
type = TopGhost;
}
);
layerId = "D85D3C93-227B-4B8E-AED6-B444EF8D585A";
name = "Bold Italic";
paths = (
{
closed = 1;
nodes = (
"247 769 LINE",
"119 769 LINE",
"122 715 LINE",
"27 0 LINE",
"154 0 LINE",
"151 54 LINE"
);
}
);
width = 227;
}
);
leftKerningGroup = b;
rightKerningGroup = l;
unicode = 006C;
},
{
glyphname = lslash;
lastChange = "2015-02-06 22:45:45 +0000";
layers = (
{
background = {
paths = (
{
closed = 1;
nodes = (
"118 0 LINE",
"165 337 LINE",
"241 370 LINE",
"251 439 LINE",
"175 406 LINE",
"225 761 LINE",
"129 761 LINE",
"129 756 OFFCURVE",
"134 705 OFFCURVE",
"134 703 CURVE SMOOTH",
"87 367 LINE",
"11 334 LINE",
"2 265 LINE",
"77 298 LINE",
"35 0 LINE"
);
}
);
};
hints = (
{
horizontal = 1;
place = "{764.000000, -20.000000}";
target = down;
type = TopGhost;
},
{
horizontal = 1;
place = "{0.000000, 21.000000}";
target = up;
type = BottomGhost;
}
);
layerId = UUID0;
name = "Regular Italic";
paths = (
{
closed = 1;
nodes = (
"241 371 LINE",
"251 439 LINE",
"174 405 LINE",
"223 764 LINE",
"135 764 LINE",
"135 707 LINE",
"88 366 LINE",
"12 332 LINE",
"2 264 LINE",
"79 298 LINE",
"39 0 LINE",
"128 0 LINE",
"128 58 LINE",
"165 337 LINE"
);
}
);
width = 227;
},
{
hints = (
{
place = "{-9.000000, 261.000000}";
},
{
horizontal = 1;
place = "{0.000000, 21.000000}";
target = up;
type = BottomGhost;
},
{
horizontal = 1;
place = "{768.000000, -20.000000}";
target = down;
type = TopGhost;
}
);
layerId = "D85D3C93-227B-4B8E-AED6-B444EF8D585A";
name = "Bold Italic";
paths = (
{
closed = 1;
nodes = (
"131 0 LINE",
"174 330 LINE",
"239 360 LINE",
"252 458 LINE",
"187 428 LINE",
"232 768 LINE",
"106 768 LINE",
"109 715 LINE",
"64 371 LINE",
"3 343 LINE",
"-9 246 LINE",
"51 274 LINE",
"15 0 LINE"
);
}
);
width = 251;
}
);
leftKerningGroup = b;
rightKerningGroup = l;
unicode = 0142;
},
{
glyphname = m;
lastChange = "2015-02-06 23:18:02 +0000";
layers = (
{
hints = (
{
place = "{640.000000, 82.000000}";
},
{
horizontal = 1;
place = "{431.000000, 72.000000}";
},
{
horizontal = 1;
place = "{0.000000, 21.000000}";
target = up;
type = BottomGhost;
},
{
horizontal = 1;
origin = "{0, 26}";
type = Anchor;
},
{
horizontal = 1;
origin = "{0, 12}";
type = Anchor;
},
{
horizontal = 1;
origin = "{0, 26}";
target = "{0, 53}";
other1 = "{0, 34}";
type = Interpolate;
},
{
horizontal = 1;
origin = "{0, 26}";
target = "{0, 27}";
other1 = "{0, 25}";
other2 = "{0, 28}";
type = Diagonal;
},
{
horizontal = 1;
origin = "{0, 38}";
target = "{0, 39}";
other1 = "{0, 37}";
other2 = "{0, 40}";
type = Diagonal;
},
{
horizontal = 1;
origin = "{0, 53}";
target = "{0, 55}";
other1 = "{0, 52}";
other2 = "{0, 0}";
type = Diagonal;
},
{
horizontal = 1;
origin = "{0, 12}";
target = "{0, 31}";
type = Align;
},
{
horizontal = 1;
origin = "{0, 6}";
target = "{0, 46}";
type = Align;
},
{
horizontal = 1;
origin = "{0, 18}";
target = "{0, 26}";
type = Align;
}
);
layerId = UUID0;
name = "Regular Italic";
paths = (
{
closed = 1;
nodes = (
"719 329 LINE",
"721 345 OFFCURVE",
"722 360 OFFCURVE",
"722 373 CURVE SMOOTH",
"722 480 OFFCURVE",
"658 503 OFFCURVE",
"597 503 CURVE SMOOTH",
"535 503 OFFCURVE",
"480 458 OFFCURVE",
"439 421 CURVE",
"418 484 OFFCURVE",
"374 503 OFFCURVE",
"320 503 CURVE SMOOTH",
"262 503 OFFCURVE",
"212 463 OFFCURVE",
"173 428 CURVE",
"173 451 OFFCURVE",
"168 488 OFFCURVE",
"164 500 CURVE",
"76 490 LINE",
"76 490 OFFCURVE",
"91 457 OFFCURVE",
"91 402 CURVE SMOOTH",
"91 389 OFFCURVE",
"90 374 OFFCURVE",
"88 359 CURVE SMOOTH",
"41 0 LINE",
"120 0 LINE",
"169 365 LINE",
"180 374 OFFCURVE",
"248 431 OFFCURVE",
"298 431 CURVE SMOOTH",
"350 431 OFFCURVE",
"362 395 OFFCURVE",
"362 355 CURVE SMOOTH",
"362 338 OFFCURVE",
"360 319 OFFCURVE",
"358 303 CURVE SMOOTH",
"318 0 LINE",
"398 0 LINE",
"441 329 LINE SMOOTH",
"443 342 OFFCURVE",
"444 353 OFFCURVE",
"444 364 CURVE",
"479 394 OFFCURVE",
"530 431 OFFCURVE",
"575 431 CURVE SMOOTH",
"628 431 OFFCURVE",
"640 394 OFFCURVE",
"640 353 CURVE SMOOTH",
"640 336 OFFCURVE",
"638 319 OFFCURVE",
"636 303 CURVE SMOOTH",
"596 0 LINE",
"683 0 LINE",
"683 58 LINE"
);
}
);
width = 762;
},
{
hints = (
{
place = "{78.000000, 115.000000}";
},
{
place = "{616.000000, 117.000000}";
},
{
horizontal = 1;
place = "{0.000000, 21.000000}";
target = up;
type = BottomGhost;
},
{
horizontal = 1;
place = "{414.000000, 96.000000}";
}
);
layerId = "D85D3C93-227B-4B8E-AED6-B444EF8D585A";
name = "Bold Italic";
paths = (
{
closed = 1;
nodes = (
"733 466 OFFCURVE",
"700 510 OFFCURVE",
"619 510 CURVE SMOOTH",
"556 510 OFFCURVE",
"500 479 OFFCURVE",
"455 437 CURVE",
"441 489 OFFCURVE",
"398 510 OFFCURVE",
"347 510 CURVE SMOOTH",
"285 510 OFFCURVE",
"239 482 OFFCURVE",
"193 444 CURVE",
"193 465 OFFCURVE",
"191 487 OFFCURVE",
"185 508 CURVE",
"64 493 LINE",
"77 473 OFFCURVE",
"78 437 OFFCURVE",
"78 414 CURVE SMOOTH",
"78 394 OFFCURVE",
"77 375 OFFCURVE",
"75 356 CURVE SMOOTH",
"27 0 LINE",
"141 0 LINE",
"190 361 LINE",
"214 385 OFFCURVE",
"258 414 OFFCURVE",
"293 414 CURVE SMOOTH",
"330 414 OFFCURVE",
"344 393 OFFCURVE",
"344 359 CURVE SMOOTH",
"344 351 OFFCURVE",
"343 343 OFFCURVE",
"342 335 CURVE SMOOTH",
"297 0 LINE",
"412 0 LINE",
"460 362 LINE",
"484 384 OFFCURVE",
"529 414 OFFCURVE",
"563 414 CURVE SMOOTH",
"601 414 OFFCURVE",
"616 397 OFFCURVE",
"616 360 CURVE SMOOTH",
"616 351 OFFCURVE",
"615 341 OFFCURVE",
"614 332 CURVE SMOOTH",
"570 0 LINE",
"694 0 LINE",
"691 53 LINE",
"729 339 LINE SMOOTH",
"731 355 OFFCURVE",
"733 372 OFFCURVE",
"733 389 CURVE SMOOTH"
);
}
);
width = 758;
}
);
leftKerningGroup = n;
rightKerningGroup = n;
unicode = 006D;
},
{
glyphname = n;
lastChange = "2015-02-06 23:17:31 +0000";
layers = (
{
hints = (
{
place = "{373.000000, 81.000000}";
},
{
horizontal = 1;
place = "{431.000000, 72.000000}";
},
{
horizontal = 1;
place = "{0.000000, 21.000000}";
target = up;
type = BottomGhost;
},
{
horizontal = 1;
origin = "{0, 20}";
type = Anchor;
},
{
horizontal = 1;
origin = "{0, 6}";
type = Anchor;
},
{
horizontal = 1;
origin = "{0, 20}";
target = "{0, 21}";
other1 = "{0, 19}";
other2 = "{0, 22}";
type = Diagonal;
},
{
horizontal = 1;
origin = "{0, 32}";
target = "{0, 34}";
other1 = "{0, 31}";
other2 = "{0, 0}";
type = Diagonal;
},
{
horizontal = 1;
origin = "{0, 6}";
target = "{0, 25}";
type = TTStem;
}
);
layerId = UUID0;
name = "Regular Italic";
paths = (
{
closed = 1;
nodes = (
"451 329 LINE",
"453 345 OFFCURVE",
"454 360 OFFCURVE",
"454 373 CURVE SMOOTH",
"454 480 OFFCURVE",
"390 503 OFFCURVE",
"330 503 CURVE SMOOTH",
"265 503 OFFCURVE",
"212 463 OFFCURVE",
"173 428 CURVE",
"172 457 OFFCURVE",
"167 490 OFFCURVE",
"164 500 CURVE",
"76 490 LINE",
"76 490 OFFCURVE",
"92 461 OFFCURVE",
"92 402 CURVE SMOOTH",
"92 387 OFFCURVE",
"91 369 OFFCURVE",
"88 350 CURVE SMOOTH",
"41 0 LINE",
"121 0 LINE",
"170 365 LINE",
"185 378 OFFCURVE",
"249 431 OFFCURVE",
"308 431 CURVE SMOOTH",
"361 431 OFFCURVE",
"373 396 OFFCURVE",
"373 357 CURVE SMOOTH",
"373 339 OFFCURVE",
"370 320 OFFCURVE",
"368 303 CURVE SMOOTH",
"327 0 LINE",
"415 0 LINE",
"415 58 LINE"
);
}
);
width = 494;
},
{
hints = (
{
place = "{78.000000, 115.000000}";
},
{
place = "{350.000000, 117.000000}";
},
{
horizontal = 1;
place = "{0.000000, 21.000000}";
target = up;
type = BottomGhost;
},
{
horizontal = 1;
place = "{414.000000, 97.000000}";
},
{
horizontal = 1;
place = "{508.000000, -20.000000}";
target = down;
type = TopGhost;
},
{
horizontal = 1;
place = "{511.000000, -20.000000}";
target = down;
type = TopGhost;
}
);
layerId = "D85D3C93-227B-4B8E-AED6-B444EF8D585A";
name = "Bold Italic";
paths = (
{
closed = 1;
nodes = (
"467 469 OFFCURVE",
"430 511 OFFCURVE",
"346 511 CURVE SMOOTH",
"292 511 OFFCURVE",
"234 478 OFFCURVE",
"193 444 CURVE",
"193 465 OFFCURVE",
"191 487 OFFCURVE",
"185 508 CURVE",
"64 493 LINE",
"77 473 OFFCURVE",
"78 437 OFFCURVE",
"78 414 CURVE SMOOTH",
"78 394 OFFCURVE",
"77 375 OFFCURVE",
"75 356 CURVE SMOOTH",
"27 0 LINE",
"141 0 LINE",
"190 361 LINE",
"211 382 OFFCURVE",
"269 414 OFFCURVE",
"300 414 CURVE SMOOTH",
"337 414 OFFCURVE",
"350 395 OFFCURVE",
"350 360 CURVE SMOOTH",
"350 348 OFFCURVE",
"349 336 OFFCURVE",
"347 324 CURVE SMOOTH",
"304 0 LINE",
"429 0 LINE",
"426 54 LINE",
"464 336 LINE SMOOTH",
"466 352 OFFCURVE",
"467 370 OFFCURVE",
"467 387 CURVE SMOOTH"
);
}
);
width = 492;
}
);
leftKerningGroup = n;
rightKerningGroup = n;
unicode = 006E;
},
{
glyphname = ntilde;
lastChange = "2015-02-06 22:45:45 +0000";
layers = (
{
components = (
{
name = n;
},
{
name = tilde;
transform = "{1, 0, 0, 1, 172, 45}";
}
);
layerId = UUID0;
name = "Regular Italic";
width = 494;
},
{
hints = (
{
place = "{78.000000, 115.000000}";
},
{
place = "{350.000000, 117.000000}";
},
{
horizontal = 1;
place = "{0.000000, 21.000000}";
target = up;
type = BottomGhost;
},
{
horizontal = 1;
place = "{414.000000, 97.000000}";
},
{
horizontal = 1;
place = "{607.000000, 78.000000}";
},
{
horizontal = 1;
place = "{508.000000, -20.000000}";
target = down;
type = TopGhost;
},
{
horizontal = 1;
place = "{511.000000, -20.000000}";
target = down;
type = TopGhost;
},
{
horizontal = 1;
place = "{578.000000, 79.000000}";
}
);
layerId = "D85D3C93-227B-4B8E-AED6-B444EF8D585A";
name = "Bold Italic";
paths = (
{
closed = 1;
nodes = (
"467 469 OFFCURVE",
"430 511 OFFCURVE",
"346 511 CURVE SMOOTH",
"292 511 OFFCURVE",
"234 478 OFFCURVE",
"193 444 CURVE",
"193 465 OFFCURVE",
"191 487 OFFCURVE",
"185 508 CURVE",
"64 493 LINE",
"77 473 OFFCURVE",
"78 437 OFFCURVE",
"78 414 CURVE SMOOTH",
"78 394 OFFCURVE",
"77 375 OFFCURVE",
"75 356 CURVE SMOOTH",
"27 0 LINE",
"141 0 LINE",
"190 361 LINE",
"211 382 OFFCURVE",
"269 414 OFFCURVE",
"300 414 CURVE SMOOTH",
"337 414 OFFCURVE",
"350 395 OFFCURVE",
"350 360 CURVE SMOOTH",
"350 351 OFFCURVE",
"349 336 OFFCURVE",
"347 324 CURVE SMOOTH",
"304 0 LINE",
"429 0 LINE",
"426 54 LINE",
"464 336 LINE SMOOTH",
"466 352 OFFCURVE",
"467 370 OFFCURVE",
"467 387 CURVE SMOOTH"
);
},
{
closed = 1;
nodes = (
"425 684 LINE",
"407 671 OFFCURVE",
"387 657 OFFCURVE",
"369 657 CURVE SMOOTH",
"337 657 OFFCURVE",
"300 685 OFFCURVE",
"246 685 CURVE SMOOTH",
"157 685 OFFCURVE",
"116 609 OFFCURVE",
"116 609 CURVE",
"166 582 LINE",
"181 595 OFFCURVE",
"201 607 OFFCURVE",
"218 607 CURVE SMOOTH",
"259 607 OFFCURVE",
"294 578 OFFCURVE",
"350 578 CURVE SMOOTH",
"430 578 OFFCURVE",
"471 653 OFFCURVE",
"471 653 CURVE"
);
}
);
width = 492;
}
);
leftKerningGroup = n;
rightKerningGroup = n;
unicode = 00F1;
},
{
glyphname = o;
lastChange = "2015-02-06 23:08:10 +0000";
layers = (
{
background = {
paths = (
{
closed = 1;
nodes = (
"472 405 OFFCURVE",
"414 503 OFFCURVE",
"288 503 CURVE SMOOTH",
"127 503 OFFCURVE",
"37 348 OFFCURVE",
"37 197 CURVE SMOOTH",
"37 86 OFFCURVE",
"95 -13 OFFCURVE",
"220 -13 CURVE SMOOTH",
"383 -13 OFFCURVE",
"472 143 OFFCURVE",
"472 294 CURVE SMOOTH"
);
},
{
closed = 1;
nodes = (
"387 197 OFFCURVE",
"341 49 OFFCURVE",
"227 49 CURVE SMOOTH",
"150 49 OFFCURVE",
"122 135 OFFCURVE",
"122 202 CURVE SMOOTH",
"122 296 OFFCURVE",
"170 441 OFFCURVE",
"281 441 CURVE SMOOTH",
"361 441 OFFCURVE",
"387 362 OFFCURVE",
"387 293 CURVE SMOOTH"
);
}
);
};
hints = (
{
place = "{37.000000, 85.000000}";
},
{
place = "{387.000000, 85.000000}";
},
{
horizontal = 1;
place = "{-13.000000, 62.000000}";
},
{
horizontal = 1;
place = "{441.000000, 62.000000}";
},
{
horizontal = 1;
origin = "{0, 8}";
type = Anchor;
},
{
horizontal = 1;
origin = "{0, 2}";
type = Anchor;
},
{
horizontal = 1;
origin = "{0, 5}";
target = "{1, 5}";
type = TTStem;
},
{
horizontal = 1;
origin = "{1, 11}";
target = "{0, 11}";
type = TTStem;
},
{
horizontal = 1;
origin = "{0, 2}";
target = "{1, 8}";
type = TTStem;
},
{
horizontal = 1;
origin = "{0, 8}";
target = "{1, 2}";
type = TTStem;
}
);
layerId = UUID0;
name = "Regular Italic";
paths = (
{
closed = 1;
nodes = (
"472 405 OFFCURVE",
"414 503 OFFCURVE",
"288 503 CURVE SMOOTH",
"127 503 OFFCURVE",
"37 348 OFFCURVE",
"37 197 CURVE SMOOTH",
"37 86 OFFCURVE",
"95 -13 OFFCURVE",
"220 -13 CURVE SMOOTH",
"379 -13 OFFCURVE",
"472 143 OFFCURVE",
"472 294 CURVE SMOOTH"
);
},
{
closed = 1;
nodes = (
"387 197 OFFCURVE",
"341 49 OFFCURVE",
"227 49 CURVE SMOOTH",
"150 49 OFFCURVE",
"122 135 OFFCURVE",
"122 202 CURVE SMOOTH",
"122 296 OFFCURVE",
"170 441 OFFCURVE",
"281 441 CURVE SMOOTH",
"361 441 OFFCURVE",
"387 362 OFFCURVE",
"387 293 CURVE SMOOTH"
);
}
);
width = 508;
},
{
hints = (
{
place = "{21.000000, 125.000000}";
},
{
place = "{362.000000, 125.000000}";
},
{
horizontal = 1;
place = "{-12.000000, 80.000000}";
},
{
horizontal = 1;
place = "{428.000000, 82.000000}";
}
);
layerId = "D85D3C93-227B-4B8E-AED6-B444EF8D585A";
name = "Bold Italic";
paths = (
{
closed = 1;
nodes = (
"487 417 OFFCURVE",
"417 510 OFFCURVE",
"289 510 CURVE SMOOTH",
"125 510 OFFCURVE",
"21 356 OFFCURVE",
"21 203 CURVE SMOOTH",
"21 81 OFFCURVE",
"91 -12 OFFCURVE",
"219 -12 CURVE SMOOTH",
"384 -12 OFFCURVE",
"487 141 OFFCURVE",
"487 295 CURVE SMOOTH"
);
},
{
closed = 1;
nodes = (
"362 224 OFFCURVE",
"336 68 OFFCURVE",
"230 68 CURVE SMOOTH",
"160 68 OFFCURVE",
"146 141 OFFCURVE",
"146 197 CURVE SMOOTH",
"146 275 OFFCURVE",
"176 428 OFFCURVE",
"278 428 CURVE SMOOTH",
"348 428 OFFCURVE",
"362 362 OFFCURVE",
"362 305 CURVE SMOOTH"
);
}
);
width = 508;
}
);
leftKerningGroup = c;
rightKerningGroup = b;
unicode = 006F;
},
{
glyphname = oacute;
lastChange = "2015-02-06 22:45:45 +0000";
layers = (
{
components = (
{
name = o;
},
{
name = acute;
transform = "{1, 0, 0, 1, 209, 0}";
}
);
layerId = UUID0;
name = "Regular Italic";
width = 508;
},
{
hints = (
{
place = "{21.000000, 125.000000}";
},
{
place = "{362.000000, 125.000000}";
},
{
horizontal = 1;
place = "{-12.000000, 80.000000}";
},
{
horizontal = 1;
place = "{428.000000, 82.000000}";
},
{
horizontal = 1;
place = "{591.000000, 165.000000}";
}
);
layerId = "D85D3C93-227B-4B8E-AED6-B444EF8D585A";
name = "Bold Italic";
paths = (
{
closed = 1;
nodes = (
"487 417 OFFCURVE",
"417 510 OFFCURVE",
"289 510 CURVE SMOOTH",
"125 510 OFFCURVE",
"21 356 OFFCURVE",
"21 203 CURVE SMOOTH",
"21 81 OFFCURVE",
"91 -12 OFFCURVE",
"219 -12 CURVE SMOOTH",
"384 -12 OFFCURVE",
"487 141 OFFCURVE",
"487 295 CURVE SMOOTH"
);
},
{
closed = 1;
nodes = (
"362 224 OFFCURVE",
"336 68 OFFCURVE",
"230 68 CURVE SMOOTH",
"160 68 OFFCURVE",
"146 141 OFFCURVE",
"146 197 CURVE SMOOTH",
"146 275 OFFCURVE",
"176 428 OFFCURVE",
"278 428 CURVE SMOOTH",
"348 428 OFFCURVE",
"362 362 OFFCURVE",
"362 305 CURVE SMOOTH"
);
},
{
closed = 1;
nodes = (
"511 756 LINE",
"366 756 LINE",
"234 591 LINE",
"337 591 LINE"
);
}
);
width = 508;
}
);
leftKerningGroup = c;
rightKerningGroup = b;
unicode = 00F3;
},
{
glyphname = ocircumflex;
lastChange = "2015-02-06 22:45:45 +0000";
layers = (
{
components = (
{
name = o;
},
{
name = circumflex;
transform = "{1, 0, 0, 1, 162, 0}";
}
);
layerId = UUID0;
name = "Regular Italic";
width = 508;
},
{
hints = (
{
place = "{21.000000, 125.000000}";
},
{
place = "{362.000000, 125.000000}";
},
{
horizontal = 1;
place = "{-12.000000, 80.000000}";
},
{
horizontal = 1;
place = "{428.000000, 82.000000}";
},
{
horizontal = 1;
place = "{591.000000, 145.000000}";
},
{
horizontal = 1;
place = "{665.000000, 71.000000}";
}
);
layerId = "D85D3C93-227B-4B8E-AED6-B444EF8D585A";
name = "Bold Italic";
paths = (
{
closed = 1;
nodes = (
"487 417 OFFCURVE",
"417 510 OFFCURVE",
"289 510 CURVE SMOOTH",
"125 510 OFFCURVE",
"21 356 OFFCURVE",
"21 203 CURVE SMOOTH",
"21 81 OFFCURVE",
"91 -12 OFFCURVE",
"219 -12 CURVE SMOOTH",
"384 -12 OFFCURVE",
"487 141 OFFCURVE",
"487 295 CURVE SMOOTH"
);
},
{
closed = 1;
nodes = (
"362 224 OFFCURVE",
"336 68 OFFCURVE",
"230 68 CURVE SMOOTH",
"160 68 OFFCURVE",
"146 141 OFFCURVE",
"146 197 CURVE SMOOTH",
"146 275 OFFCURVE",
"176 428 OFFCURVE",
"278 428 CURVE SMOOTH",
"348 428 OFFCURVE",
"362 362 OFFCURVE",
"362 305 CURVE SMOOTH"
);
},
{
closed = 1;
nodes = (
"452 591 LINE",
"373 736 LINE",
"275 736 LINE",
"159 591 LINE",
"235 591 LINE",
"314 665 LINE",
"374 591 LINE"
);
}
);
width = 508;
}
);
leftKerningGroup = c;
rightKerningGroup = b;
unicode = 00F4;
},
{
glyphname = odieresis;
lastChange = "2015-02-06 22:45:45 +0000";
layers = (
{
components = (
{
name = o;
},
{
name = dieresis;
transform = "{1, 0, 0, 1, 172, 45}";
}
);
layerId = UUID0;
name = "Regular Italic";
width = 508;
},
{
hints = (
{
place = "{21.000000, 125.000000}";
},
{
place = "{362.000000, 125.000000}";
},
{
place = "{170.000000, 114.000000}";
},
{
place = "{330.000000, 115.000000}";
},
{
horizontal = 1;
place = "{-12.000000, 80.000000}";
},
{
horizontal = 1;
place = "{428.000000, 82.000000}";
},
{
horizontal = 1;
place = "{576.000000, 114.000000}";
}
);
layerId = "D85D3C93-227B-4B8E-AED6-B444EF8D585A";
name = "Bold Italic";
paths = (
{
closed = 1;
nodes = (
"487 417 OFFCURVE",
"417 510 OFFCURVE",
"289 510 CURVE SMOOTH",
"125 510 OFFCURVE",
"21 356 OFFCURVE",
"21 203 CURVE SMOOTH",
"21 81 OFFCURVE",
"91 -12 OFFCURVE",
"219 -12 CURVE SMOOTH",
"384 -12 OFFCURVE",
"487 141 OFFCURVE",
"487 295 CURVE SMOOTH"
);
},
{
closed = 1;
nodes = (
"362 224 OFFCURVE",
"336 68 OFFCURVE",
"230 68 CURVE SMOOTH",
"160 68 OFFCURVE",
"146 141 OFFCURVE",
"146 197 CURVE SMOOTH",
"146 275 OFFCURVE",
"176 428 OFFCURVE",
"278 428 CURVE SMOOTH",
"348 428 OFFCURVE",
"362 362 OFFCURVE",
"362 305 CURVE SMOOTH"
);
},
{
closed = 1;
nodes = (
"445 665 OFFCURVE",
"419 690 OFFCURVE",
"387 690 CURVE SMOOTH",
"356 690 OFFCURVE",
"330 664 OFFCURVE",
"330 633 CURVE SMOOTH",
"330 602 OFFCURVE",
"356 576 OFFCURVE",
"387 576 CURVE SMOOTH",
"419 576 OFFCURVE",
"445 601 OFFCURVE",
"445 633 CURVE SMOOTH"
);
},
{
closed = 1;
nodes = (
"284 665 OFFCURVE",
"259 690 OFFCURVE",
"227 690 CURVE SMOOTH",
"195 690 OFFCURVE",
"170 665 OFFCURVE",
"170 633 CURVE SMOOTH",
"170 601 OFFCURVE",
"195 576 OFFCURVE",
"227 576 CURVE SMOOTH",
"259 576 OFFCURVE",
"284 601 OFFCURVE",
"284 633 CURVE SMOOTH"
);
}
);
width = 508;
}
);
leftKerningGroup = c;
rightKerningGroup = b;
unicode = 00F6;
},
{
glyphname = ograve;
lastChange = "2015-02-06 22:45:45 +0000";
layers = (
{
components = (
{
name = o;
},
{
name = grave;
transform = "{1, 0, 0, 1, 85, 0}";
}
);
layerId = UUID0;
name = "Regular Italic";
width = 508;
},
{
hints = (
{
place = "{21.000000, 125.000000}";
},
{
place = "{362.000000, 125.000000}";
},
{
horizontal = 1;
place = "{-12.000000, 80.000000}";
},
{
horizontal = 1;
place = "{428.000000, 82.000000}";
},
{
horizontal = 1;
place = "{592.000000, 165.000000}";
}
);
layerId = "D85D3C93-227B-4B8E-AED6-B444EF8D585A";
name = "Bold Italic";
paths = (
{
closed = 1;
nodes = (
"487 417 OFFCURVE",
"417 510 OFFCURVE",
"289 510 CURVE SMOOTH",
"125 510 OFFCURVE",
"21 356 OFFCURVE",
"21 203 CURVE SMOOTH",
"21 81 OFFCURVE",
"91 -12 OFFCURVE",
"219 -12 CURVE SMOOTH",
"384 -12 OFFCURVE",
"487 141 OFFCURVE",
"487 295 CURVE SMOOTH"
);
},
{
closed = 1;
nodes = (
"362 224 OFFCURVE",
"336 68 OFFCURVE",
"230 68 CURVE SMOOTH",
"160 68 OFFCURVE",
"146 141 OFFCURVE",
"146 197 CURVE SMOOTH",
"146 275 OFFCURVE",
"176 428 OFFCURVE",
"278 428 CURVE SMOOTH",
"348 428 OFFCURVE",
"362 362 OFFCURVE",
"362 305 CURVE SMOOTH"
);
},
{
closed = 1;
nodes = (
"344 592 LINE",
"235 757 LINE",
"90 757 LINE",
"241 592 LINE"
);
}
);
width = 508;
}
);
leftKerningGroup = c;
rightKerningGroup = b;
unicode = 00F2;
},
{
glyphname = oslash;
lastChange = "2015-02-06 22:45:45 +0000";
layers = (
{
hints = (
{
place = "{53.000000, 83.000000}";
},
{
place = "{405.000000, 83.000000}";
},
{
horizontal = 1;
place = "{-12.000000, 63.000000}";
},
{
horizontal = 1;
place = "{443.000000, 63.000000}";
},
{
horizontal = 1;
place = "{550.000000, -20.000000}";
target = down;
type = TopGhost;
},
{
horizontal = 1;
place = "{-67.000000, 21.000000}";
target = up;
type = BottomGhost;
}
);
layerId = UUID0;
name = "Regular Italic";
paths = (
{
closed = 1;
nodes = (
"502 522 LINE",
"457 550 LINE",
"405 480 LINE",
"378 497 OFFCURVE",
"337 506 OFFCURVE",
"306 506 CURVE SMOOTH",
"145 506 OFFCURVE",
"53 338 OFFCURVE",
"53 196 CURVE SMOOTH",
"53 147 OFFCURVE",
"64 95 OFFCURVE",
"96 54 CURVE",
"26 -37 LINE",
"68 -67 LINE",
"133 18 LINE",
"162 -4 OFFCURVE",
"199 -12 OFFCURVE",
"235 -12 CURVE SMOOTH",
"399 -12 OFFCURVE",
"488 156 OFFCURVE",
"488 299 CURVE SMOOTH",
"488 349 OFFCURVE",
"476 402 OFFCURVE",
"443 443 CURVE"
);
},
{
closed = 1;
nodes = (
"148 128 LINE",
"138 149 OFFCURVE",
"136 181 OFFCURVE",
"136 204 CURVE SMOOTH",
"136 300 OFFCURVE",
"188 443 OFFCURVE",
"299 443 CURVE SMOOTH",
"322 443 OFFCURVE",
"344 436 OFFCURVE",
"362 420 CURVE"
);
},
{
closed = 1;
nodes = (
"405 199 OFFCURVE",
"356 51 OFFCURVE",
"241 51 CURVE SMOOTH",
"217 51 OFFCURVE",
"193 61 OFFCURVE",
"176 79 CURVE",
"394 372 LINE",
"402 348 OFFCURVE",
"405 322 OFFCURVE",
"405 296 CURVE SMOOTH"
);
}
);
width = 555;
},
{
hints = (
{
place = "{37.000000, 125.000000}";
},
{
place = "{378.000000, 125.000000}";
},
{
horizontal = 1;
place = "{-12.000000, 80.000000}";
},
{
horizontal = 1;
place = "{428.000000, 82.000000}";
}
);
layerId = "D85D3C93-227B-4B8E-AED6-B444EF8D585A";
name = "Bold Italic";
paths = (
{
closed = 1;
nodes = (
"524 512 LINE",
"457 556 LINE",
"404 487 LINE",
"376 502 OFFCURVE",
"343 510 OFFCURVE",
"305 510 CURVE SMOOTH",
"141 510 OFFCURVE",
"37 356 OFFCURVE",
"37 203 CURVE SMOOTH",
"37 149 OFFCURVE",
"51 101 OFFCURVE",
"77 64 CURVE",
"5 -29 LINE",
"72 -73 LINE",
"137 11 LINE",
"164 -4 OFFCURVE",
"197 -12 OFFCURVE",
"235 -12 CURVE SMOOTH",
"400 -12 OFFCURVE",
"503 141 OFFCURVE",
"503 295 CURVE SMOOTH",
"503 348 OFFCURVE",
"489 396 OFFCURVE",
"463 433 CURVE"
);
},
{
closed = 1;
nodes = (
"162 175 LINE",
"162 197 LINE",
"162 275 OFFCURVE",
"192 428 OFFCURVE",
"294 428 CURVE SMOOTH",
"316 428 OFFCURVE",
"332 421 OFFCURVE",
"344 410 CURVE"
);
},
{
closed = 1;
nodes = (
"378 305 LINE SMOOTH",
"378 224 OFFCURVE",
"352 68 OFFCURVE",
"246 68 CURVE SMOOTH",
"224 68 OFFCURVE",
"208 75 OFFCURVE",
"195 87 CURVE",
"378 323 LINE"
);
}
);
width = 555;
}
);
unicode = 00F8;
},
{
glyphname = otilde;
lastChange = "2015-02-06 22:45:45 +0000";
layers = (
{
components = (
{
name = o;
},
{
name = tilde;
transform = "{1, 0, 0, 1, 165, 43}";
}
);
layerId = UUID0;
name = "Regular Italic";
width = 508;
},
{
hints = (
{
place = "{21.000000, 125.000000}";
},
{
place = "{362.000000, 125.000000}";
},
{
horizontal = 1;
place = "{-12.000000, 80.000000}";
},
{
horizontal = 1;
place = "{428.000000, 82.000000}";
},
{
horizontal = 1;
place = "{607.000000, 78.000000}";
},
{
horizontal = 1;
place = "{578.000000, 79.000000}";
}
);
layerId = "D85D3C93-227B-4B8E-AED6-B444EF8D585A";
name = "Bold Italic";
paths = (
{
closed = 1;
nodes = (
"487 417 OFFCURVE",
"417 510 OFFCURVE",
"289 510 CURVE SMOOTH",
"125 510 OFFCURVE",
"21 356 OFFCURVE",
"21 203 CURVE SMOOTH",
"21 81 OFFCURVE",
"91 -12 OFFCURVE",
"219 -12 CURVE SMOOTH",
"384 -12 OFFCURVE",
"487 141 OFFCURVE",
"487 295 CURVE SMOOTH"
);
},
{
closed = 1;
nodes = (
"362 224 OFFCURVE",
"336 68 OFFCURVE",
"230 68 CURVE SMOOTH",
"160 68 OFFCURVE",
"146 141 OFFCURVE",
"146 197 CURVE SMOOTH",
"146 275 OFFCURVE",
"176 428 OFFCURVE",
"278 428 CURVE SMOOTH",
"348 428 OFFCURVE",
"362 362 OFFCURVE",
"362 305 CURVE SMOOTH"
);
},
{
closed = 1;
nodes = (
"433 684 LINE",
"415 671 OFFCURVE",
"395 657 OFFCURVE",
"377 657 CURVE SMOOTH",
"345 657 OFFCURVE",
"308 685 OFFCURVE",
"254 685 CURVE SMOOTH",
"165 685 OFFCURVE",
"124 609 OFFCURVE",
"124 609 CURVE",
"174 582 LINE",
"189 595 OFFCURVE",
"209 607 OFFCURVE",
"226 607 CURVE SMOOTH",
"267 607 OFFCURVE",
"302 578 OFFCURVE",
"358 578 CURVE SMOOTH",
"438 578 OFFCURVE",
"479 653 OFFCURVE",
"479 653 CURVE"
);
}
);
width = 508;
}
);
leftKerningGroup = c;
rightKerningGroup = b;
unicode = 00F5;
},
{
glyphname = oe;
lastChange = "2015-02-06 22:45:45 +0000";
layers = (
{
hints = (
{
place = "{36.000000, 86.000000}";
},
{
place = "{386.000000, 73.000000}";
},
{
place = "{681.000000, 83.000000}";
},
{
horizontal = 1;
place = "{-14.000000, 70.000000}";
},
{
horizontal = 1;
place = "{201.000000, 58.000000}";
},
{
horizontal = 1;
place = "{441.000000, 62.000000}";
}
);
layerId = UUID0;
name = "Regular Italic";
paths = (
{
closed = 1;
nodes = (
"764 473 OFFCURVE",
"706 503 OFFCURVE",
"637 503 CURVE SMOOTH",
"560 503 OFFCURVE",
"494 467 OFFCURVE",
"447 407 CURVE",
"416 471 OFFCURVE",
"358 503 OFFCURVE",
"288 503 CURVE SMOOTH",
"129 503 OFFCURVE",
"36 341 OFFCURVE",
"36 197 CURVE SMOOTH",
"36 84 OFFCURVE",
"97 -14 OFFCURVE",
"220 -14 CURVE SMOOTH",
"294 -14 OFFCURVE",
"357 21 OFFCURVE",
"401 79 CURVE",
"436 16 OFFCURVE",
"500 -14 OFFCURVE",
"571 -14 CURVE SMOOTH",
"630 -14 OFFCURVE",
"696 8 OFFCURVE",
"744 42 CURVE",
"715 101 LINE",
"674 73 OFFCURVE",
"626 56 OFFCURVE",
"576 56 CURVE SMOOTH",
"495 56 OFFCURVE",
"459 124 OFFCURVE",
"459 196 CURVE SMOOTH",
"459 201 LINE",
"529 202 OFFCURVE",
"605 210 OFFCURVE",
"667 247 CURVE SMOOTH",
"721 279 OFFCURVE",
"764 331 OFFCURVE",
"764 397 CURVE SMOOTH"
);
},
{
closed = 1;
nodes = (
"681 328 OFFCURVE",
"601 259 OFFCURVE",
"465 259 CURVE",
"465 303 OFFCURVE",
"523 441 OFFCURVE",
"626 441 CURVE SMOOTH",
"663 441 OFFCURVE",
"681 416 OFFCURVE",
"681 393 CURVE SMOOTH"
);
},
{
closed = 1;
nodes = (
"386 200 OFFCURVE",
"342 49 OFFCURVE",
"227 49 CURVE SMOOTH",
"148 49 OFFCURVE",
"122 138 OFFCURVE",
"122 202 CURVE SMOOTH",
"122 294 OFFCURVE",
"169 441 OFFCURVE",
"281 441 CURVE SMOOTH",
"361 441 OFFCURVE",
"386 359 OFFCURVE",
"386 293 CURVE SMOOTH"
);
}
);
width = 801;
},
{
hints = (
{
place = "{21.000000, 125.000000}";
},
{
place = "{664.000000, 123.000000}";
},
{
place = "{362.000000, 122.000000}";
},
{
horizontal = 1;
place = "{-12.000000, 80.000000}";
},
{
horizontal = 1;
place = "{194.000000, 85.000000}";
},
{
horizontal = 1;
place = "{428.000000, 82.000000}";
},
{
horizontal = 1;
place = "{-12.000000, 88.000000}";
}
);
layerId = "D85D3C93-227B-4B8E-AED6-B444EF8D585A";
name = "Bold Italic";
paths = (
{
closed = 1;
nodes = (
"787 472 OFFCURVE",
"720 510 OFFCURVE",
"634 510 CURVE SMOOTH",
"557 510 OFFCURVE",
"495 478 OFFCURVE",
"449 431 CURVE",
"416 480 OFFCURVE",
"362 510 OFFCURVE",
"289 510 CURVE SMOOTH",
"125 510 OFFCURVE",
"21 356 OFFCURVE",
"21 203 CURVE SMOOTH",
"21 81 OFFCURVE",
"91 -12 OFFCURVE",
"219 -12 CURVE SMOOTH",
"293 -12 OFFCURVE",
"354 18 OFFCURVE",
"399 65 CURVE",
"438 15 OFFCURVE",
"501 -12 OFFCURVE",
"573 -12 CURVE SMOOTH",
"695 -12 OFFCURVE",
"771 54 OFFCURVE",
"771 54 CURVE",
"729 137 LINE",
"695 111 OFFCURVE",
"640 76 OFFCURVE",
"585 76 CURVE SMOOTH",
"533 76 OFFCURVE",
"489 114 OFFCURVE",
"484 194 CURVE",
"723 196 OFFCURVE",
"787 317 OFFCURVE",
"787 394 CURVE SMOOTH"
);
},
{
closed = 1;
nodes = (
"664 332 OFFCURVE",
"596 282 OFFCURVE",
"490 279 CURVE",
"514 390 OFFCURVE",
"594 426 OFFCURVE",
"625 426 CURVE SMOOTH",
"651 426 OFFCURVE",
"664 412 OFFCURVE",
"664 392 CURVE SMOOTH"
);
},
{
closed = 1;
nodes = (
"362 224 OFFCURVE",
"336 68 OFFCURVE",
"230 68 CURVE SMOOTH",
"160 68 OFFCURVE",
"146 141 OFFCURVE",
"146 197 CURVE SMOOTH",
"146 275 OFFCURVE",
"176 428 OFFCURVE",
"278 428 CURVE SMOOTH",
"348 428 OFFCURVE",
"362 362 OFFCURVE",
"362 305 CURVE SMOOTH"
);
}
);
width = 797;
}
);
leftKerningGroup = c;
unicode = 0153;
},
{
glyphname = p;
lastChange = "2015-02-07 00:09:16 +0000";
layers = (
{
hints = (
{
horizontal = 1;
place = "{441.000000, 62.000000}";
},
{
horizontal = 1;
place = "{-13.000000, 62.000000}";
},
{
horizontal = 1;
place = "{-224.000000, 21.000000}";
target = up;
type = BottomGhost;
}
);
layerId = UUID0;
name = "Regular Italic";
paths = (
{
closed = 1;
nodes = (
"479 413 OFFCURVE",
"429 503 OFFCURVE",
"321 503 CURVE SMOOTH",
"256 503 OFFCURVE",
"208 474 OFFCURVE",
"174 424 CURVE",
"174 432 LINE SMOOTH",
"174 454 OFFCURVE",
"170 478 OFFCURVE",
"166 501 CURVE",
"78 490 LINE",
"88 459 OFFCURVE",
"92 431 OFFCURVE",
"92 405 CURVE SMOOTH",
"92 381 OFFCURVE",
"89 357 OFFCURVE",
"86 333 CURVE SMOOTH",
"13 -224 LINE",
"101 -224 LINE",
"101 -169 LINE",
"126 23 LINE",
"145 5 OFFCURVE",
"186 -13 OFFCURVE",
"223 -13 CURVE SMOOTH",
"378 -13 OFFCURVE",
"479 156 OFFCURVE",
"479 308 CURVE SMOOTH"
);
},
{
closed = 1;
nodes = (
"386 204 OFFCURVE",
"334 49 OFFCURVE",
"226 49 CURVE SMOOTH",
"194 49 OFFCURVE",
"154 64 OFFCURVE",
"134 88 CURVE",
"137 106 OFFCURVE",
"140 142 OFFCURVE",
"145 178 CURVE SMOOTH",
"157 265 OFFCURVE",
"189 441 OFFCURVE",
"301 441 CURVE SMOOTH",
"370 441 OFFCURVE",
"386 369 OFFCURVE",
"386 314 CURVE SMOOTH"
);
}
);
width = 518;
},
{
hints = (
{
place = "{80.000000, 114.000000}";
},
{
place = "{383.000000, 122.000000}";
},
{
horizontal = 1;
place = "{-225.000000, 21.000000}";
target = up;
type = BottomGhost;
},
{
horizontal = 1;
place = "{-11.000000, 82.000000}";
},
{
horizontal = 1;
place = "{426.000000, 84.000000}";
},
{
horizontal = 1;
place = "{507.000000, -20.000000}";
target = down;
type = TopGhost;
},
{
horizontal = 1;
place = "{510.000000, -20.000000}";
target = down;
type = TopGhost;
}
);
layerId = "D85D3C93-227B-4B8E-AED6-B444EF8D585A";
name = "Bold Italic";
paths = (
{
closed = 1;
nodes = (
"505 409 OFFCURVE",
"454 510 OFFCURVE",
"334 510 CURVE SMOOTH",
"285 510 OFFCURVE",
"225 486 OFFCURVE",
"194 447 CURVE",
"193 467 OFFCURVE",
"190 487 OFFCURVE",
"184 507 CURVE",
"67 492 LINE",
"78 470 OFFCURVE",
"80 438 OFFCURVE",
"80 413 CURVE SMOOTH",
"80 394 OFFCURVE",
"79 375 OFFCURVE",
"76 356 CURVE SMOOTH",
"-2 -225 LINE",
"125 -225 LINE",
"120 -170 LINE",
"145 21 LINE",
"169 -2 OFFCURVE",
"214 -11 OFFCURVE",
"246 -11 CURVE SMOOTH",
"414 -11 OFFCURVE",
"505 149 OFFCURVE",
"505 301 CURVE SMOOTH"
);
},
{
closed = 1;
nodes = (
"383 226 OFFCURVE",
"350 71 OFFCURVE",
"243 71 CURVE SMOOTH",
"212 71 OFFCURVE",
"185 83 OFFCURVE",
"157 111 CURVE",
"176 251 OFFCURVE",
"201 426 OFFCURVE",
"310 426 CURVE SMOOTH",
"369 426 OFFCURVE",
"383 368 OFFCURVE",
"383 297 CURVE SMOOTH"
);
}
);
width = 526;
}
);
leftKerningGroup = n;
rightKerningGroup = b;
unicode = 0070;
},
{
glyphname = thorn;
lastChange = "2015-02-06 22:45:45 +0000";
layers = (
{
background = {
paths = (
{
closed = 1;
nodes = (
"92 -214 LINE",
"127 41 LINE",
"153 6 OFFCURVE",
"194 -13 OFFCURVE",
"241 -13 CURVE SMOOTH",
"389 -13 OFFCURVE",
"487 142 OFFCURVE",
"487 301 CURVE SMOOTH",
"487 405 OFFCURVE",
"442 502 OFFCURVE",
"333 502 CURVE SMOOTH",
"279 502 OFFCURVE",
"228 480 OFFCURVE",
"179 436 CURVE",
"223 760 LINE",
"131 760 LINE",
"131 755 OFFCURVE",
"137 704 OFFCURVE",
"137 702 CURVE SMOOTH",
"14 -214 LINE"
);
},
{
closed = 1;
nodes = (
"171 370 LINE",
"204 406 OFFCURVE",
"252 436 OFFCURVE",
"299 436 CURVE SMOOTH",
"377 436 OFFCURVE",
"403 364 OFFCURVE",
"403 292 CURVE SMOOTH",
"403 220 OFFCURVE",
"366 47 OFFCURVE",
"247 47 CURVE SMOOTH",
"179 47 OFFCURVE",
"147 100 OFFCURVE",
"147 170 CURVE SMOOTH",
"147 180 OFFCURVE",
"147 191 OFFCURVE",
"149 202 CURVE SMOOTH"
);
}
);
};
hints = (
{
place = "{386.000000, 93.000000}";
},
{
horizontal = 1;
place = "{441.000000, 62.000000}";
},
{
horizontal = 1;
place = "{-13.000000, 62.000000}";
},
{
horizontal = 1;
place = "{764.000000, -20.000000}";
target = down;
type = TopGhost;
},
{
horizontal = 1;
place = "{-223.000000, 21.000000}";
target = up;
type = BottomGhost;
}
);
layerId = UUID0;
name = "Regular Italic";
paths = (
{
closed = 1;
nodes = (
"224 764 LINE",
"136 764 LINE",
"136 707 LINE",
"10 -223 LINE",
"99 -223 LINE",
"99 -165 LINE",
"124 22 LINE",
"143 4 OFFCURVE",
"186 -13 OFFCURVE",
"223 -13 CURVE SMOOTH",
"378 -13 OFFCURVE",
"479 156 OFFCURVE",
"479 308 CURVE SMOOTH",
"479 413 OFFCURVE",
"429 503 OFFCURVE",
"321 503 CURVE SMOOTH",
"259 503 OFFCURVE",
"213 477 OFFCURVE",
"179 432 CURVE"
);
},
{
closed = 1;
nodes = (
"386 204 OFFCURVE",
"334 49 OFFCURVE",
"226 49 CURVE SMOOTH",
"194 49 OFFCURVE",
"154 64 OFFCURVE",
"134 88 CURVE",
"137 106 OFFCURVE",
"140 142 OFFCURVE",
"145 178 CURVE SMOOTH",
"157 265 OFFCURVE",
"189 441 OFFCURVE",
"301 441 CURVE SMOOTH",
"370 441 OFFCURVE",
"386 369 OFFCURVE",
"386 314 CURVE SMOOTH"
);
}
);
width = 518;
},
{
hints = (
{
place = "{391.000000, 126.000000}";
},
{
horizontal = 1;
place = "{-12.000000, 82.000000}";
},
{
horizontal = 1;
place = "{416.000000, 92.000000}";
},
{
horizontal = 1;
place = "{768.000000, -20.000000}";
target = down;
type = TopGhost;
}
);
layerId = "D85D3C93-227B-4B8E-AED6-B444EF8D585A";
name = "Bold Italic";
paths = (
{
closed = 1;
nodes = (
"257 768 LINE",
"133 768 LINE",
"134 763 OFFCURVE",
"136 721 OFFCURVE",
"136 715 CURVE",
"14 -217 LINE",
"128 -217 LINE",
"159 18 LINE",
"185 -2 OFFCURVE",
"218 -12 OFFCURVE",
"257 -12 CURVE SMOOTH",
"427 -12 OFFCURVE",
"517 139 OFFCURVE",
"517 297 CURVE SMOOTH",
"517 403 OFFCURVE",
"468 508 OFFCURVE",
"355 508 CURVE SMOOTH",
"303 508 OFFCURVE",
"261 493 OFFCURVE",
"216 457 CURVE"
);
},
{
closed = 1;
nodes = (
"205 368 LINE",
"231 395 OFFCURVE",
"269 416 OFFCURVE",
"304 416 CURVE SMOOTH",
"370 416 OFFCURVE",
"391 344 OFFCURVE",
"391 281 CURVE SMOOTH",
"391 232 OFFCURVE",
"366 70 OFFCURVE",
"264 70 CURVE SMOOTH",
"202 70 OFFCURVE",
"181 118 OFFCURVE",
"181 172 CURVE SMOOTH",
"181 183 OFFCURVE",
"181 194 OFFCURVE",
"183 205 CURVE SMOOTH"
);
}
);
width = 558;
}
);
leftKerningGroup = b;
rightKerningGroup = b;
unicode = 00FE;
},
{
glyphname = q;
lastChange = "2015-02-07 00:09:09 +0000";
layers = (
{
hints = (
{
horizontal = 1;
place = "{-13.000000, 62.000000}";
},
{
horizontal = 1;
place = "{441.000000, 62.000000}";
},
{
horizontal = 1;
place = "{522.000000, -20.000000}";
target = down;
type = TopGhost;
},
{
horizontal = 1;
place = "{-224.000000, 21.000000}";
target = up;
type = BottomGhost;
}
);
layerId = UUID0;
name = "Regular Italic";
paths = (
{
closed = 1;
nodes = (
"477 522 LINE",
"438 522 LINE",
"406 460 LINE",
"384 480 OFFCURVE",
"353 503 OFFCURVE",
"299 503 CURVE SMOOTH",
"131 503 OFFCURVE",
"36 308 OFFCURVE",
"36 176 CURVE SMOOTH",
"36 75 OFFCURVE",
"81 -13 OFFCURVE",
"194 -13 CURVE SMOOTH",
"260 -13 OFFCURVE",
"309 28 OFFCURVE",
"337 67 CURVE",
"296 -224 LINE",
"384 -224 LINE",
"384 -167 LINE"
);
},
{
closed = 1;
nodes = (
"384 403 OFFCURVE",
"381 381 OFFCURVE",
"379 368 CURVE SMOOTH",
"362 251 OFFCURVE",
"329 49 OFFCURVE",
"210 49 CURVE SMOOTH",
"145 49 OFFCURVE",
"128 116 OFFCURVE",
"128 173 CURVE SMOOTH",
"128 263 OFFCURVE",
"180 441 OFFCURVE",
"301 441 CURVE SMOOTH",
"337 441 OFFCURVE",
"366 425 OFFCURVE",
"384 403 CURVE"
);
}
);
width = 512;
},
{
hints = (
{
place = "{21.000000, 121.000000}";
},
{
horizontal = 1;
place = "{-224.000000, 21.000000}";
target = up;
type = BottomGhost;
},
{
horizontal = 1;
place = "{-12.000000, 83.000000}";
},
{
horizontal = 1;
place = "{427.000000, 82.000000}";
}
);
layerId = "D85D3C93-227B-4B8E-AED6-B444EF8D585A";
name = "Bold Italic";
paths = (
{
closed = 1;
nodes = (
"501 537 LINE",
"454 537 LINE",
"411 460 LINE",
"374 497 OFFCURVE",
"323 509 OFFCURVE",
"290 509 CURVE SMOOTH",
"117 509 OFFCURVE",
"21 349 OFFCURVE",
"21 197 CURVE SMOOTH",
"21 89 OFFCURVE",
"72 -12 OFFCURVE",
"192 -12 CURVE SMOOTH",
"234 -12 OFFCURVE",
"283 2 OFFCURVE",
"321 39 CURVE",
"286 -224 LINE",
"413 -224 LINE",
"408 -169 LINE"
);
},
{
closed = 1;
nodes = (
"349 247 OFFCURVE",
"315 71 OFFCURVE",
"215 71 CURVE SMOOTH",
"156 71 OFFCURVE",
"142 134 OFFCURVE",
"142 197 CURVE SMOOTH",
"142 268 OFFCURVE",
"175 427 OFFCURVE",
"282 427 CURVE SMOOTH",
"313 427 OFFCURVE",
"340 415 OFFCURVE",
"368 387 CURVE"
);
}
);
width = 511;
}
);
leftKerningGroup = c;
unicode = 0071;
},
{
glyphname = r;
lastChange = "2015-02-06 22:45:45 +0000";
layers = (
{
hints = (
{
horizontal = 1;
place = "{414.000000, 88.000000}";
},
{
horizontal = 1;
place = "{0.000000, 21.000000}";
target = up;
type = BottomGhost;
}
);
layerId = UUID0;
name = "Regular Italic";
paths = (
{
closed = 1;
nodes = (
"351 502 LINE",
"280 502 OFFCURVE",
"214 460 OFFCURVE",
"175 411 CURVE",
"175 424 LINE",
"175 449 OFFCURVE",
"173 477 OFFCURVE",
"165 502 CURVE",
"73 491 LINE",
"87 466 OFFCURVE",
"90 427 OFFCURVE",
"90 405 CURVE SMOOTH",
"90 389 OFFCURVE",
"89 374 OFFCURVE",
"87 358 CURVE SMOOTH",
"41 0 LINE",
"124 0 LINE",
"167 327 LINE",
"206 375 OFFCURVE",
"252 414 OFFCURVE",
"319 414 CURVE"
);
}
);
width = 327;
},
{
hints = (
{
place = "{79.000000, 116.000000}";
},
{
horizontal = 1;
place = "{0.000000, 21.000000}";
target = up;
type = BottomGhost;
},
{
horizontal = 1;
place = "{507.000000, -20.000000}";
target = down;
type = TopGhost;
},
{
horizontal = 1;
place = "{388.000000, 119.000000}";
}
);
layerId = "D85D3C93-227B-4B8E-AED6-B444EF8D585A";
name = "Bold Italic";
paths = (
{
closed = 1;
nodes = (
"365 507 LINE",
"298 507 OFFCURVE",
"231 454 OFFCURVE",
"194 402 CURVE",
"195 411 OFFCURVE",
"195 421 OFFCURVE",
"195 431 CURVE SMOOTH",
"195 457 OFFCURVE",
"192 483 OFFCURVE",
"185 507 CURVE",
"63 497 LINE",
"77 474 OFFCURVE",
"79 439 OFFCURVE",
"79 413 CURVE SMOOTH",
"79 396 OFFCURVE",
"77 376 OFFCURVE",
"75 363 CURVE SMOOTH",
"27 0 LINE",
"141 0 LINE",
"181 296 LINE",
"213 338 OFFCURVE",
"263 388 OFFCURVE",
"326 388 CURVE",
"330 388 LINE"
);
}
);
width = 327;
}
);
leftKerningGroup = n;
unicode = 0072;
},
{
glyphname = s;
lastChange = "2015-02-06 22:45:45 +0000";
layers = (
{
hints = (
{
place = "{59.000000, 82.000000}";
},
{
place = "{248.000000, 83.000000}";
},
{
horizontal = 1;
place = "{-13.000000, 62.000000}";
},
{
horizontal = 1;
place = "{441.000000, 62.000000}";
}
);
layerId = UUID0;
name = "Regular Italic";
paths = (
{
closed = 1;
nodes = (
"361 470 LINE",
"326 491 OFFCURVE",
"284 503 OFFCURVE",
"240 503 CURVE SMOOTH",
"149 503 OFFCURVE",
"59 457 OFFCURVE",
"59 354 CURVE SMOOTH",
"59 223 OFFCURVE",
"248 225 OFFCURVE",
"248 130 CURVE SMOOTH",
"248 75 OFFCURVE",
"198 49 OFFCURVE",
"150 49 CURVE SMOOTH",
"117 49 OFFCURVE",
"78 65 OFFCURVE",
"49 89 CURVE",
"6 28 LINE",
"50 2 OFFCURVE",
"98 -13 OFFCURVE",
"153 -13 CURVE SMOOTH",
"246 -13 OFFCURVE",
"331 39 OFFCURVE",
"331 139 CURVE SMOOTH",
"331 279 OFFCURVE",
"141 282 OFFCURVE",
"141 364 CURVE SMOOTH",
"141 414 OFFCURVE",
"188 441 OFFCURVE",
"235 441 CURVE SMOOTH",
"268 441 OFFCURVE",
"298 431 OFFCURVE",
"327 410 CURVE"
);
}
);
width = 376;
},
{
hints = (
{
place = "{38.000000, 128.000000}";
},
{
place = "{219.000000, 127.000000}";
},
{
horizontal = 1;
place = "{-12.000000, 83.000000}";
},
{
horizontal = 1;
place = "{426.000000, 84.000000}";
}
);
layerId = "D85D3C93-227B-4B8E-AED6-B444EF8D585A";
name = "Bold Italic";
paths = (
{
closed = 1;
nodes = (
"379 479 LINE",
"340 500 OFFCURVE",
"287 510 OFFCURVE",
"243 510 CURVE SMOOTH",
"139 510 OFFCURVE",
"38 460 OFFCURVE",
"38 342 CURVE SMOOTH",
"38 209 OFFCURVE",
"219 231 OFFCURVE",
"219 147 CURVE SMOOTH",
"219 101 OFFCURVE",
"182 71 OFFCURVE",
"139 71 CURVE SMOOTH",
"101 71 OFFCURVE",
"67 94 OFFCURVE",
"37 114 CURVE",
"-15 32 LINE",
"27 5 OFFCURVE",
"87 -12 OFFCURVE",
"137 -12 CURVE SMOOTH",
"246 -12 OFFCURVE",
"346 49 OFFCURVE",
"346 172 CURVE SMOOTH",
"346 311 OFFCURVE",
"166 291 OFFCURVE",
"166 369 CURVE SMOOTH",
"166 409 OFFCURVE",
"202 426 OFFCURVE",
"238 426 CURVE SMOOTH",
"270 426 OFFCURVE",
"304 417 OFFCURVE",
"327 395 CURVE"
);
}
);
width = 371;
}
);
leftKerningGroup = s;
rightKerningGroup = s;
unicode = 0073;
},
{
glyphname = germandbls;
lastChange = "2015-02-06 22:45:45 +0000";
layers = (
{
hints = (
{
place = "{242.000000, 242.000000}";
},
{
place = "{402.000000, 82.000000}";
},
{
horizontal = 1;
place = "{-230.000000, 64.000000}";
},
{
horizontal = 1;
place = "{-13.000000, 65.000000}";
},
{
horizontal = 1;
place = "{427.000000, 63.000000}";
},
{
horizontal = 1;
place = "{666.000000, 67.000000}";
}
);
layerId = UUID0;
name = "Regular Italic";
paths = (
{
closed = 1;
nodes = (
"489 257 OFFCURVE",
"444 302 OFFCURVE",
"400 333 CURVE SMOOTH",
"379 348 OFFCURVE",
"357 360 OFFCURVE",
"341 371 CURVE SMOOTH",
"324 382 OFFCURVE",
"316 390 OFFCURVE",
"316 397 CURVE SMOOTH",
"316 402 OFFCURVE",
"323 408 OFFCURVE",
"340 416 CURVE SMOOTH",
"355 424 OFFCURVE",
"377 434 OFFCURVE",
"398 447 CURVE SMOOTH",
"441 473 OFFCURVE",
"484 517 OFFCURVE",
"484 600 CURVE SMOOTH",
"484 684 OFFCURVE",
"423 733 OFFCURVE",
"342 733 CURVE SMOOTH",
"197 733 OFFCURVE",
"135 616 OFFCURVE",
"117 490 CURVE",
"45 490 LINE",
"37 427 LINE",
"109 427 LINE",
"44 -52 LINE SMOOTH",
"33 -135 OFFCURVE",
"-1 -166 OFFCURVE",
"-45 -166 CURVE SMOOTH",
"-79 -166 OFFCURVE",
"-88 -160 OFFCURVE",
"-115 -141 CURVE",
"-155 -198 LINE",
"-127 -216 OFFCURVE",
"-98 -230 OFFCURVE",
"-43 -230 CURVE SMOOTH",
"47 -230 OFFCURVE",
"106 -177 OFFCURVE",
"122 -61 CURVE SMOOTH",
"197 488 LINE SMOOTH",
"208 568 OFFCURVE",
"243 666 OFFCURVE",
"335 666 CURVE SMOOTH",
"377 666 OFFCURVE",
"400 638 OFFCURVE",
"400 596 CURVE SMOOTH",
"400 535 OFFCURVE",
"362 501 OFFCURVE",
"323 475 CURVE SMOOTH",
"313 468 OFFCURVE",
"304 462 OFFCURVE",
"294 456 CURVE SMOOTH",
"272 442 OFFCURVE",
"242 423 OFFCURVE",
"242 393 CURVE SMOOTH",
"242 311 OFFCURVE",
"402 283 OFFCURVE",
"402 175 CURVE SMOOTH",
"402 103 OFFCURVE",
"351 52 OFFCURVE",
"281 52 CURVE SMOOTH",
"258 52 OFFCURVE",
"234 56 OFFCURVE",
"206 66 CURVE",
"182 8 LINE",
"213 -7 OFFCURVE",
"252 -13 OFFCURVE",
"280 -13 CURVE SMOOTH",
"398 -13 OFFCURVE",
"489 55 OFFCURVE",
"489 181 CURVE SMOOTH"
);
}
);
width = 541;
},
{
hints = (
{
place = "{216.000000, 134.000000}";
},
{
place = "{381.000000, 130.000000}";
},
{
place = "{376.000000, 128.000000}";
},
{
horizontal = 1;
place = "{-230.000000, 90.000000}";
},
{
horizontal = 1;
place = "{-12.000000, 90.000000}";
},
{
horizontal = 1;
place = "{406.000000, 91.000000}";
},
{
horizontal = 1;
place = "{647.000000, 97.000000}";
}
);
layerId = "D85D3C93-227B-4B8E-AED6-B444EF8D585A";
name = "Bold Italic";
paths = (
{
closed = 1;
nodes = (
"511 365 OFFCURVE",
"350 363 OFFCURVE",
"350 405 CURVE SMOOTH",
"350 448 OFFCURVE",
"504 443 OFFCURVE",
"504 602 CURVE SMOOTH",
"504 703 OFFCURVE",
"421 744 OFFCURVE",
"330 744 CURVE SMOOTH",
"190 744 OFFCURVE",
"99 648 OFFCURVE",
"79 502 CURVE SMOOTH",
"78 497 LINE",
"6 497 LINE",
"-6 406 LINE",
"66 406 LINE",
"5 -44 LINE SMOOTH",
"-5 -120 OFFCURVE",
"-30 -140 OFFCURVE",
"-80 -140 CURVE SMOOTH",
"-120 -140 OFFCURVE",
"-156 -101 OFFCURVE",
"-156 -101 CURVE",
"-203 -185 LINE",
"-203 -185 OFFCURVE",
"-158 -230 OFFCURVE",
"-72 -230 CURVE SMOOTH",
"40 -230 OFFCURVE",
"108 -159 OFFCURVE",
"124 -42 CURVE SMOOTH",
"192 464 LINE SMOOTH",
"202 535 OFFCURVE",
"228 647 OFFCURVE",
"318 647 CURVE SMOOTH",
"351 647 OFFCURVE",
"376 619 OFFCURVE",
"376 587 CURVE SMOOTH",
"376 474 OFFCURVE",
"216 479 OFFCURVE",
"216 376 CURVE SMOOTH",
"216 288 OFFCURVE",
"381 303 OFFCURVE",
"381 197 CURVE SMOOTH",
"381 139 OFFCURVE",
"340 78 OFFCURVE",
"276 78 CURVE SMOOTH",
"251 78 OFFCURVE",
"227 86 OFFCURVE",
"204 95 CURVE",
"156 18 LINE",
"193 -1 OFFCURVE",
"234 -12 OFFCURVE",
"276 -12 CURVE SMOOTH",
"409 -12 OFFCURVE",
"511 87 OFFCURVE",
"511 221 CURVE SMOOTH"
);
}
);
width = 536;
}
);
leftKerningGroup = f;
unicode = 00DF;
},
{
glyphname = t;
lastChange = "2015-02-06 23:16:06 +0000";
layers = (
{
hints = (
{
place = "{57.000000, 80.000000}";
},
{
horizontal = 1;
place = "{-13.000000, 62.000000}";
},
{
horizontal = 1;
origin = "{0, 6}";
},
{
horizontal = 1;
origin = "{0, 14}";
type = Anchor;
},
{
horizontal = 1;
origin = "{0, 21}";
target = "{0, 14}";
type = TTStem;
},
{
horizontal = 1;
origin = "{0, 3}";
target = "{0, 2}";
other1 = "{0, 11}";
other2 = "{0, 24}";
type = Diagonal;
},
{
horizontal = 1;
origin = "{0, 5}";
type = Anchor;
},
{
horizontal = 1;
origin = "{0, 5}";
target = "{0, 29}";
type = TTStem;
}
);
layerId = UUID0;
name = "Regular Italic";
paths = (
{
closed = 1;
nodes = (
"302 490 LINE",
"189 490 LINE",
"219 631 LINE",
"130 631 LINE",
"110 490 LINE",
"41 490 LINE",
"32 427 LINE",
"101 427 LINE",
"60 116 LINE",
"60 116 OFFCURVE",
"57 92 OFFCURVE",
"57 81 CURVE SMOOTH",
"57 0 OFFCURVE",
"104 -13 OFFCURVE",
"152 -13 CURVE SMOOTH",
"195 -13 OFFCURVE",
"248 7 OFFCURVE",
"248 7 CURVE",
"241 60 LINE",
"213 53 OFFCURVE",
"191 49 OFFCURVE",
"176 49 CURVE SMOOTH",
"147 49 OFFCURVE",
"137 64 OFFCURVE",
"137 89 CURVE SMOOTH",
"137 95 OFFCURVE",
"139 110 OFFCURVE",
"139 110 CURVE",
"180 427 LINE",
"293 427 LINE"
);
}
);
width = 287;
},
{
hints = (
{
place = "{51.000000, 119.000000}";
},
{
horizontal = 1;
place = "{-10.000000, 82.000000}";
},
{
horizontal = 1;
place = "{414.000000, 83.000000}";
}
);
layerId = "D85D3C93-227B-4B8E-AED6-B444EF8D585A";
name = "Bold Italic";
paths = (
{
closed = 1;
nodes = (
"335 497 LINE",
"220 497 LINE",
"251 633 LINE",
"124 633 LINE",
"105 497 LINE",
"36 497 LINE",
"25 414 LINE",
"94 414 LINE",
"54 116 LINE SMOOTH",
"52 104 OFFCURVE",
"51 92 OFFCURVE",
"51 82 CURVE SMOOTH",
"51 23 OFFCURVE",
"79 -10 OFFCURVE",
"155 -10 CURVE SMOOTH",
"194 -10 OFFCURVE",
"252 1 OFFCURVE",
"289 13 CURVE",
"278 82 LINE",
"254 76 OFFCURVE",
"228 72 OFFCURVE",
"203 72 CURVE SMOOTH",
"176 72 OFFCURVE",
"170 90 OFFCURVE",
"170 111 CURVE SMOOTH",
"170 120 OFFCURVE",
"171 130 OFFCURVE",
"172 139 CURVE SMOOTH",
"208 414 LINE",
"323 414 LINE"
);
}
);
width = 315;
}
);
leftKerningGroup = t;
rightKerningGroup = t;
unicode = 0074;
},
{
glyphname = u;
lastChange = "2015-02-06 22:45:45 +0000";
layers = (
{
hints = (
{
place = "{40.000000, 82.000000}";
},
{
place = "{329.000000, 74.000000}";
},
{
horizontal = 1;
place = "{-13.000000, 62.000000}";
},
{
horizontal = 1;
place = "{490.000000, -20.000000}";
target = down;
type = TopGhost;
},
{
horizontal = 1;
place = "{-12.000000, 21.000000}";
target = up;
type = BottomGhost;
}
);
layerId = UUID0;
name = "Regular Italic";
paths = (
{
closed = 1;
nodes = (
"472 63 LINE",
"472 63 OFFCURVE",
"451 53 OFFCURVE",
"431 53 CURVE SMOOTH",
"415 53 OFFCURVE",
"403 63 OFFCURVE",
"403 95 CURVE SMOOTH",
"403 102 OFFCURVE",
"404 111 OFFCURVE",
"405 121 CURVE SMOOTH",
"456 490 LINE",
"368 490 LINE",
"368 432 LINE",
"346 279 LINE SMOOTH",
"320 95 OFFCURVE",
"243 49 OFFCURVE",
"189 49 CURVE SMOOTH",
"145 49 OFFCURVE",
"122 73 OFFCURVE",
"122 130 CURVE SMOOTH",
"122 142 OFFCURVE",
"123 156 OFFCURVE",
"125 171 CURVE SMOOTH",
"168 490 LINE",
"81 490 LINE",
"81 433 LINE",
"43 159 LINE SMOOTH",
"41 145 OFFCURVE",
"40 132 OFFCURVE",
"40 119 CURVE SMOOTH",
"40 40 OFFCURVE",
"79 -13 OFFCURVE",
"168 -13 CURVE SMOOTH",
"271 -13 OFFCURVE",
"311 52 OFFCURVE",
"325 73 CURVE",
"329 73 LINE",
"329 14 OFFCURVE",
"374 -12 OFFCURVE",
"408 -12 CURVE SMOOTH",
"439 -12 OFFCURVE",
"483 11 OFFCURVE",
"483 11 CURVE"
);
}
);
width = 510;
},
{
hints = (
{
place = "{27.000000, 120.000000}";
},
{
horizontal = 1;
place = "{-11.000000, 95.000000}";
},
{
horizontal = 1;
place = "{497.000000, -20.000000}";
target = down;
type = TopGhost;
},
{
horizontal = 1;
place = "{-9.000000, 82.000000}";
}
);
layerId = "D85D3C93-227B-4B8E-AED6-B444EF8D585A";
name = "Bold Italic";
paths = (
{
closed = 1;
nodes = (
"487 85 LINE",
"474 80 OFFCURVE",
"452 73 OFFCURVE",
"439 73 CURVE SMOOTH",
"418 73 OFFCURVE",
"414 92 OFFCURVE",
"414 109 CURVE SMOOTH",
"414 116 OFFCURVE",
"415 123 OFFCURVE",
"416 130 CURVE SMOOTH",
"470 497 LINE",
"342 497 LINE",
"348 453 LINE",
"329 307 LINE SMOOTH",
"319 231 OFFCURVE",
"284 84 OFFCURVE",
"196 84 CURVE SMOOTH",
"158 84 OFFCURVE",
"147 108 OFFCURVE",
"147 142 CURVE SMOOTH",
"147 151 OFFCURVE",
"148 160 OFFCURVE",
"149 169 CURVE SMOOTH",
"192 497 LINE",
"65 497 LINE",
"70 453 LINE",
"30 146 LINE SMOOTH",
"28 134 OFFCURVE",
"27 122 OFFCURVE",
"27 111 CURVE SMOOTH",
"27 29 OFFCURVE",
"72 -11 OFFCURVE",
"153 -11 CURVE SMOOTH",
"208 -11 OFFCURVE",
"275 13 OFFCURVE",
"310 59 CURVE",
"314 59 LINE",
"322 20 OFFCURVE",
"355 -9 OFFCURVE",
"396 -9 CURVE SMOOTH",
"429 -9 OFFCURVE",
"475 3 OFFCURVE",
"504 22 CURVE"
);
}
);
width = 499;
}
);
leftKerningGroup = u;
rightKerningGroup = a;
unicode = 0075;
},
{
glyphname = uacute;
lastChange = "2015-02-06 22:45:45 +0000";
layers = (
{
components = (
{
name = u;
},
{
name = acute;
transform = "{1, 0, 0, 1, 192, 0}";
}
);
layerId = UUID0;
name = "Regular Italic";
width = 510;
},
{
hints = (
{
place = "{27.000000, 120.000000}";
},
{
horizontal = 1;
place = "{-11.000000, 95.000000}";
},
{
horizontal = 1;
place = "{497.000000, -20.000000}";
target = down;
type = TopGhost;
},
{
horizontal = 1;
place = "{591.000000, 165.000000}";
},
{
horizontal = 1;
place = "{-9.000000, 82.000000}";
}
);
layerId = "D85D3C93-227B-4B8E-AED6-B444EF8D585A";
name = "Bold Italic";
paths = (
{
closed = 1;
nodes = (
"487 85 LINE",
"474 80 OFFCURVE",
"452 73 OFFCURVE",
"439 73 CURVE SMOOTH",
"418 73 OFFCURVE",
"414 92 OFFCURVE",
"414 109 CURVE SMOOTH",
"414 116 OFFCURVE",
"415 123 OFFCURVE",
"416 130 CURVE SMOOTH",
"470 497 LINE",
"342 497 LINE",
"348 453 LINE",
"329 307 LINE SMOOTH",
"319 231 OFFCURVE",
"284 84 OFFCURVE",
"196 84 CURVE SMOOTH",
"158 84 OFFCURVE",
"147 108 OFFCURVE",
"147 142 CURVE SMOOTH",
"147 151 OFFCURVE",
"148 160 OFFCURVE",
"149 169 CURVE SMOOTH",
"192 497 LINE",
"65 497 LINE",
"70 453 LINE",
"30 146 LINE SMOOTH",
"28 134 OFFCURVE",
"27 122 OFFCURVE",
"27 111 CURVE SMOOTH",
"27 29 OFFCURVE",
"72 -11 OFFCURVE",
"153 -11 CURVE SMOOTH",
"208 -11 OFFCURVE",
"275 13 OFFCURVE",
"310 59 CURVE",
"314 59 LINE",
"322 20 OFFCURVE",
"355 -9 OFFCURVE",
"396 -9 CURVE SMOOTH",
"429 -9 OFFCURVE",
"475 3 OFFCURVE",
"504 22 CURVE"
);
},
{
closed = 1;
nodes = (
"503 756 LINE",
"358 756 LINE",
"226 591 LINE",
"329 591 LINE"
);
}
);
width = 510;
}
);
leftKerningGroup = u;
rightKerningGroup = a;
unicode = 00FA;
},
{
glyphname = ucircumflex;
lastChange = "2015-02-06 22:45:45 +0000";
layers = (
{
components = (
{
name = u;
},
{
name = circumflex;
transform = "{1, 0, 0, 1, 145, 0}";
}
);
layerId = UUID0;
name = "Regular Italic";
width = 510;
},
{
hints = (
{
place = "{27.000000, 120.000000}";
},
{
horizontal = 1;
place = "{-11.000000, 95.000000}";
},
{
horizontal = 1;
place = "{497.000000, -20.000000}";
target = down;
type = TopGhost;
},
{
horizontal = 1;
place = "{591.000000, 145.000000}";
},
{
horizontal = 1;
place = "{-9.000000, 82.000000}";
},
{
horizontal = 1;
place = "{665.000000, 71.000000}";
}
);
layerId = "D85D3C93-227B-4B8E-AED6-B444EF8D585A";
name = "Bold Italic";
paths = (
{
closed = 1;
nodes = (
"487 85 LINE",
"474 80 OFFCURVE",
"452 73 OFFCURVE",
"439 73 CURVE SMOOTH",
"418 73 OFFCURVE",
"414 92 OFFCURVE",
"414 109 CURVE SMOOTH",
"414 116 OFFCURVE",
"415 123 OFFCURVE",
"416 130 CURVE SMOOTH",
"470 497 LINE",
"342 497 LINE",
"348 453 LINE",
"329 307 LINE SMOOTH",
"319 231 OFFCURVE",
"284 84 OFFCURVE",
"196 84 CURVE SMOOTH",
"158 84 OFFCURVE",
"147 108 OFFCURVE",
"147 142 CURVE SMOOTH",
"147 151 OFFCURVE",
"148 160 OFFCURVE",
"149 169 CURVE SMOOTH",
"192 497 LINE",
"65 497 LINE",
"70 453 LINE",
"30 146 LINE SMOOTH",
"28 134 OFFCURVE",
"27 122 OFFCURVE",
"27 111 CURVE SMOOTH",
"27 29 OFFCURVE",
"72 -11 OFFCURVE",
"153 -11 CURVE SMOOTH",
"208 -11 OFFCURVE",
"275 13 OFFCURVE",
"310 59 CURVE",
"314 59 LINE",
"322 20 OFFCURVE",
"355 -9 OFFCURVE",
"396 -9 CURVE SMOOTH",
"429 -9 OFFCURVE",
"475 3 OFFCURVE",
"504 22 CURVE"
);
},
{
closed = 1;
nodes = (
"422 591 LINE",
"343 736 LINE",
"245 736 LINE",
"129 591 LINE",
"205 591 LINE",
"284 665 LINE",
"344 591 LINE"
);
}
);
width = 510;
}
);
leftKerningGroup = u;
rightKerningGroup = a;
unicode = 00FB;
},
{
glyphname = udieresis;
lastChange = "2015-02-06 22:45:45 +0000";
layers = (
{
components = (
{
name = u;
},
{
name = dieresis;
transform = "{1, 0, 0, 1, 147, 47}";
}
);
layerId = UUID0;
name = "Regular Italic";
width = 510;
},
{
hints = (
{
place = "{27.000000, 120.000000}";
},
{
place = "{300.000000, 115.000000}";
},
{
place = "{140.000000, 114.000000}";
},
{
horizontal = 1;
place = "{-11.000000, 95.000000}";
},
{
horizontal = 1;
place = "{497.000000, -20.000000}";
target = down;
type = TopGhost;
},
{
horizontal = 1;
place = "{576.000000, 114.000000}";
},
{
horizontal = 1;
place = "{-9.000000, 82.000000}";
}
);
layerId = "D85D3C93-227B-4B8E-AED6-B444EF8D585A";
name = "Bold Italic";
paths = (
{
closed = 1;
nodes = (
"487 85 LINE",
"474 80 OFFCURVE",
"452 73 OFFCURVE",
"439 73 CURVE SMOOTH",
"418 73 OFFCURVE",
"414 92 OFFCURVE",
"414 109 CURVE SMOOTH",
"414 116 OFFCURVE",
"415 123 OFFCURVE",
"416 130 CURVE SMOOTH",
"470 497 LINE",
"342 497 LINE",
"348 453 LINE",
"329 307 LINE SMOOTH",
"319 231 OFFCURVE",
"284 84 OFFCURVE",
"196 84 CURVE SMOOTH",
"158 84 OFFCURVE",
"147 108 OFFCURVE",
"147 142 CURVE SMOOTH",
"147 151 OFFCURVE",
"148 160 OFFCURVE",
"149 169 CURVE SMOOTH",
"192 497 LINE",
"65 497 LINE",
"70 453 LINE",
"30 146 LINE SMOOTH",
"28 134 OFFCURVE",
"27 122 OFFCURVE",
"27 111 CURVE SMOOTH",
"27 29 OFFCURVE",
"72 -11 OFFCURVE",
"153 -11 CURVE SMOOTH",
"208 -11 OFFCURVE",
"275 13 OFFCURVE",
"310 59 CURVE",
"314 59 LINE",
"322 20 OFFCURVE",
"355 -9 OFFCURVE",
"396 -9 CURVE SMOOTH",
"429 -9 OFFCURVE",
"475 3 OFFCURVE",
"504 22 CURVE"
);
},
{
closed = 1;
nodes = (
"415 665 OFFCURVE",
"389 690 OFFCURVE",
"357 690 CURVE SMOOTH",
"326 690 OFFCURVE",
"300 664 OFFCURVE",
"300 633 CURVE SMOOTH",
"300 602 OFFCURVE",
"326 576 OFFCURVE",
"357 576 CURVE SMOOTH",
"389 576 OFFCURVE",
"415 601 OFFCURVE",
"415 633 CURVE SMOOTH"
);
},
{
closed = 1;
nodes = (
"254 665 OFFCURVE",
"229 690 OFFCURVE",
"197 690 CURVE SMOOTH",
"165 690 OFFCURVE",
"140 665 OFFCURVE",
"140 633 CURVE SMOOTH",
"140 601 OFFCURVE",
"165 576 OFFCURVE",
"197 576 CURVE SMOOTH",
"229 576 OFFCURVE",
"254 601 OFFCURVE",
"254 633 CURVE SMOOTH"
);
}
);
width = 510;
}
);
leftKerningGroup = u;
rightKerningGroup = a;
unicode = 00FC;
},
{
glyphname = ugrave;
lastChange = "2015-02-06 22:45:45 +0000";
layers = (
{
components = (
{
name = u;
},
{
name = grave;
transform = "{1, 0, 0, 1, 62, 0}";
}
);
layerId = UUID0;
name = "Regular Italic";
width = 510;
},
{
hints = (
{
place = "{27.000000, 120.000000}";
},
{
horizontal = 1;
place = "{-11.000000, 95.000000}";
},
{
horizontal = 1;
place = "{497.000000, -20.000000}";
target = down;
type = TopGhost;
},
{
horizontal = 1;
place = "{592.000000, 165.000000}";
},
{
horizontal = 1;
place = "{-9.000000, 82.000000}";
}
);
layerId = "D85D3C93-227B-4B8E-AED6-B444EF8D585A";
name = "Bold Italic";
paths = (
{
closed = 1;
nodes = (
"487 85 LINE",
"474 80 OFFCURVE",
"452 73 OFFCURVE",
"439 73 CURVE SMOOTH",
"418 73 OFFCURVE",
"414 92 OFFCURVE",
"414 109 CURVE SMOOTH",
"414 116 OFFCURVE",
"414 123 OFFCURVE",
"416 130 CURVE",
"470 497 LINE",
"342 497 LINE",
"348 453 LINE",
"329 307 LINE SMOOTH",
"319 231 OFFCURVE",
"284 84 OFFCURVE",
"196 84 CURVE SMOOTH",
"158 84 OFFCURVE",
"147 108 OFFCURVE",
"147 142 CURVE SMOOTH",
"147 151 OFFCURVE",
"147 160 OFFCURVE",
"149 169 CURVE",
"192 497 LINE",
"65 497 LINE",
"70 453 LINE",
"30 146 LINE SMOOTH",
"28 134 OFFCURVE",
"27 122 OFFCURVE",
"27 111 CURVE SMOOTH",
"27 29 OFFCURVE",
"72 -11 OFFCURVE",
"153 -11 CURVE SMOOTH",
"208 -11 OFFCURVE",
"275 13 OFFCURVE",
"310 59 CURVE",
"314 59 LINE",
"322 20 OFFCURVE",
"355 -9 OFFCURVE",
"396 -9 CURVE SMOOTH",
"429 -9 OFFCURVE",
"475 3 OFFCURVE",
"504 22 CURVE"
);
},
{
closed = 1;
nodes = (
"324 592 LINE",
"215 757 LINE",
"70 757 LINE",
"221 592 LINE"
);
}
);
width = 510;
}
);
leftKerningGroup = u;
rightKerningGroup = a;
unicode = 00F9;
},
{
glyphname = v;
lastChange = "2015-02-06 22:45:45 +0000";
layers = (
{
hints = (
{
horizontal = 1;
place = "{490.000000, -20.000000}";
target = down;
type = TopGhost;
},
{
horizontal = 1;
place = "{-5.000000, 21.000000}";
target = up;
type = BottomGhost;
}
);
layerId = UUID0;
name = "Regular Italic";
paths = (
{
closed = 1;
nodes = (
"451 490 LINE",
"376 490 LINE",
"201 117 LINE",
"126 490 LINE",
"42 490 LINE",
"143 -5 LINE",
"216 -5 LINE"
);
}
);
width = 418;
},
{
hints = (
{
place = "{15.000000, 444.000000}";
},
{
horizontal = 1;
place = "{-4.000000, 21.000000}";
target = up;
type = BottomGhost;
},
{
horizontal = 1;
place = "{497.000000, -20.000000}";
target = down;
type = TopGhost;
}
);
layerId = "D85D3C93-227B-4B8E-AED6-B444EF8D585A";
name = "Bold Italic";
paths = (
{
closed = 1;
nodes = (
"459 497 LINE",
"342 497 LINE",
"226 235 LINE SMOOTH",
"214 208 OFFCURVE",
"208 179 OFFCURVE",
"200 151 CURVE",
"198 180 OFFCURVE",
"196 207 OFFCURVE",
"190 235 CURVE SMOOTH",
"137 497 LINE",
"15 497 LINE",
"121 -4 LINE",
"227 -4 LINE"
);
}
);
width = 419;
}
);
leftKerningGroup = v;
rightKerningGroup = v;
unicode = 0076;
},
{
glyphname = w;
lastChange = "2015-02-06 22:45:45 +0000";
layers = (
{
hints = (
{
horizontal = 1;
place = "{490.000000, -20.000000}";
target = down;
type = TopGhost;
},
{
horizontal = 1;
place = "{-5.000000, 21.000000}";
target = up;
type = BottomGhost;
}
);
layerId = UUID0;
name = "Regular Italic";
paths = (
{
closed = 1;
nodes = (
"643 490 LINE",
"572 490 LINE",
"428 156 LINE",
"377 490 LINE",
"319 490 LINE",
"174 156 LINE",
"124 490 LINE",
"42 490 LINE",
"115 -5 LINE",
"173 -5 LINE",
"320 332 LINE",
"370 -5 LINE",
"428 -5 LINE"
);
}
);
width = 610;
},
{
hints = (
{
place = "{15.000000, 663.000000}";
},
{
place = "{320.000000, 123.000000}";
},
{
horizontal = 1;
place = "{-4.000000, 21.000000}";
target = up;
type = BottomGhost;
},
{
horizontal = 1;
place = "{497.000000, -20.000000}";
target = down;
type = TopGhost;
},
{
horizontal = 1;
place = "{-4.000000, 177.000000}";
}
);
layerId = "D85D3C93-227B-4B8E-AED6-B444EF8D585A";
name = "Bold Italic";
paths = (
{
closed = 1;
nodes = (
"678 497 LINE",
"563 497 LINE",
"466 258 LINE SMOOTH",
"455 230 OFFCURVE",
"450 205 OFFCURVE",
"442 173 CURVE",
"443 185 OFFCURVE",
"443 200 OFFCURVE",
"443 214 CURVE SMOOTH",
"443 237 OFFCURVE",
"442 259 OFFCURVE",
"441 266 CURVE SMOOTH",
"408 497 LINE",
"296 497 LINE",
"195 258 LINE SMOOTH",
"186 236 OFFCURVE",
"179 209 OFFCURVE",
"171 173 CURVE",
"172 189 OFFCURVE",
"172 204 OFFCURVE",
"172 218 CURVE SMOOTH",
"172 240 OFFCURVE",
"171 258 OFFCURVE",
"170 266 CURVE SMOOTH",
"137 497 LINE",
"15 497 LINE",
"89 -4 LINE",
"188 -4 LINE",
"303 266 LINE SMOOTH",
"310 281 OFFCURVE",
"320 335 OFFCURVE",
"320 335 CURVE",
"320 335 OFFCURVE",
"320 274 OFFCURVE",
"322 258 CURVE SMOOTH",
"360 -4 LINE",
"459 -4 LINE"
);
}
);
width = 638;
}
);
leftKerningGroup = v;
rightKerningGroup = v;
unicode = 0077;
},
{
glyphname = x;
lastChange = "2015-02-06 22:45:45 +0000";
layers = (
{
hints = (
{
horizontal = 1;
place = "{490.000000, -20.000000}";
target = down;
type = TopGhost;
},
{
horizontal = 1;
place = "{0.000000, 21.000000}";
target = up;
type = BottomGhost;
}
);
layerId = UUID0;
name = "Regular Italic";
paths = (
{
closed = 1;
nodes = (
"421 490 LINE",
"342 490 LINE",
"212 324 LINE",
"131 490 LINE",
"42 490 LINE",
"156 254 LINE",
"-36 0 LINE",
"43 0 LINE",
"188 191 LINE",
"279 0 LINE",
"370 0 LINE",
"244 261 LINE"
);
}
);
width = 388;
},
{
hints = (
{
place = "{-20.000000, 504.000000}";
},
{
horizontal = 1;
place = "{0.000000, 21.000000}";
target = up;
type = BottomGhost;
},
{
horizontal = 1;
place = "{497.000000, -20.000000}";
target = down;
type = TopGhost;
}
);
layerId = "D85D3C93-227B-4B8E-AED6-B444EF8D585A";
name = "Bold Italic";
paths = (
{
closed = 1;
nodes = (
"484 497 LINE",
"355 497 LINE",
"260 365 LINE",
"199 497 LINE",
"67 497 LINE",
"187 264 LINE",
"-20 0 LINE",
"110 0 LINE",
"230 165 LINE",
"306 0 LINE",
"439 0 LINE",
"305 267 LINE"
);
}
);
width = 464;
}
);
unicode = 0078;
},
{
glyphname = y;
lastChange = "2015-02-06 22:45:45 +0000";
layers = (
{
hints = (
{
horizontal = 1;
place = "{-230.000000, 66.000000}";
},
{
horizontal = 1;
place = "{490.000000, -20.000000}";
target = down;
type = TopGhost;
}
);
layerId = UUID0;
name = "Regular Italic";
paths = (
{
closed = 1;
nodes = (
"451 490 LINE",
"375 490 LINE",
"203 118 LINE",
"130 490 LINE",
"45 490 LINE",
"149 3 LINE",
"135 -30 LINE SMOOTH",
"97 -119 OFFCURVE",
"33 -164 OFFCURVE",
"-41 -164 CURVE SMOOTH",
"-73 -164 OFFCURVE",
"-86 -156 OFFCURVE",
"-114 -143 CURVE",
"-152 -203 LINE",
"-125 -219 OFFCURVE",
"-85 -230 OFFCURVE",
"-46 -230 CURVE SMOOTH",
"74 -230 OFFCURVE",
"155 -155 OFFCURVE",
"203 -51 CURVE SMOOTH"
);
}
);
width = 409;
},
{
hints = (
{
place = "{-187.000000, 646.000000}";
},
{
horizontal = 1;
place = "{-230.000000, 80.000000}";
},
{
horizontal = 1;
place = "{497.000000, -20.000000}";
target = down;
type = TopGhost;
}
);
layerId = "D85D3C93-227B-4B8E-AED6-B444EF8D585A";
name = "Bold Italic";
paths = (
{
closed = 1;
nodes = (
"459 497 LINE",
"347 497 LINE",
"305 405 OFFCURVE",
"260 314 OFFCURVE",
"220 221 CURVE SMOOTH",
"210 198 OFFCURVE",
"203 170 OFFCURVE",
"196 146 CURVE",
"195 170 OFFCURVE",
"196 198 OFFCURVE",
"192 221 CURVE SMOOTH",
"177 314 OFFCURVE",
"156 405 OFFCURVE",
"137 497 CURVE",
"15 497 LINE",
"120 1 LINE",
"90 -57 OFFCURVE",
"40 -150 OFFCURVE",
"-48 -150 CURVE SMOOTH",
"-97 -150 OFFCURVE",
"-136 -113 OFFCURVE",
"-136 -113 CURVE",
"-187 -190 LINE",
"-187 -190 OFFCURVE",
"-137 -230 OFFCURVE",
"-47 -230 CURVE SMOOTH",
"114 -230 OFFCURVE",
"179 -103 OFFCURVE",
"226 -3 CURVE SMOOTH"
);
}
);
width = 419;
}
);
leftKerningGroup = v;
rightKerningGroup = v;
unicode = 0079;
},
{
glyphname = ydieresis;
lastChange = "2015-02-06 22:45:45 +0000";
layers = (
{
components = (
{
name = y;
},
{
name = dieresis;
transform = "{1, 0, 0, 1, 123, 46}";
}
);
layerId = UUID0;
name = "Regular Italic";
width = 409;
},
{
hints = (
{
place = "{113.000000, 114.000000}";
},
{
place = "{273.000000, 115.000000}";
},
{
horizontal = 1;
place = "{-230.000000, 80.000000}";
},
{
horizontal = 1;
place = "{497.000000, -20.000000}";
target = down;
type = TopGhost;
},
{
horizontal = 1;
place = "{576.000000, 114.000000}";
}
);
layerId = "D85D3C93-227B-4B8E-AED6-B444EF8D585A";
name = "Bold Italic";
paths = (
{
closed = 1;
nodes = (
"459 497 LINE",
"347 497 LINE",
"305 405 OFFCURVE",
"260 314 OFFCURVE",
"220 221 CURVE SMOOTH",
"210 198 OFFCURVE",
"203 170 OFFCURVE",
"196 146 CURVE",
"195 170 OFFCURVE",
"196 198 OFFCURVE",
"192 221 CURVE SMOOTH",
"177 314 OFFCURVE",
"156 405 OFFCURVE",
"137 497 CURVE",
"15 497 LINE",
"120 1 LINE",
"90 -57 OFFCURVE",
"40 -150 OFFCURVE",
"-48 -150 CURVE SMOOTH",
"-97 -150 OFFCURVE",
"-136 -113 OFFCURVE",
"-136 -113 CURVE",
"-187 -190 LINE",
"-187 -190 OFFCURVE",
"-137 -230 OFFCURVE",
"-47 -230 CURVE SMOOTH",
"114 -230 OFFCURVE",
"179 -103 OFFCURVE",
"226 -3 CURVE SMOOTH"
);
},
{
closed = 1;
nodes = (
"388 665 OFFCURVE",
"362 690 OFFCURVE",
"330 690 CURVE SMOOTH",
"299 690 OFFCURVE",
"273 664 OFFCURVE",
"273 633 CURVE SMOOTH",
"273 602 OFFCURVE",
"299 576 OFFCURVE",
"330 576 CURVE SMOOTH",
"362 576 OFFCURVE",
"388 601 OFFCURVE",
"388 633 CURVE SMOOTH"
);
},
{
closed = 1;
nodes = (
"227 665 OFFCURVE",
"202 690 OFFCURVE",
"170 690 CURVE SMOOTH",
"138 690 OFFCURVE",
"113 665 OFFCURVE",
"113 633 CURVE SMOOTH",
"113 601 OFFCURVE",
"138 576 OFFCURVE",
"170 576 CURVE SMOOTH",
"202 576 OFFCURVE",
"227 601 OFFCURVE",
"227 633 CURVE SMOOTH"
);
}
);
width = 419;
}
);
leftKerningGroup = v;
rightKerningGroup = v;
unicode = 00FF;
},
{
glyphname = z;
lastChange = "2015-02-06 22:45:45 +0000";
layers = (
{
hints = (
{
horizontal = 1;
place = "{0.000000, 63.000000}";
},
{
horizontal = 1;
place = "{427.000000, 63.000000}";
}
);
layerId = UUID0;
name = "Regular Italic";
paths = (
{
closed = 1;
nodes = (
"423 443 LINE",
"423 490 LINE",
"100 490 LINE",
"91 427 LINE",
"313 427 LINE",
"18 48 LINE",
"18 0 LINE",
"372 0 LINE",
"382 63 LINE",
"126 63 LINE"
);
}
);
width = 433;
},
{
hints = (
{
place = "{-10.000000, 428.000000}";
},
{
horizontal = 1;
place = "{0.000000, 84.000000}";
},
{
horizontal = 1;
place = "{414.000000, 83.000000}";
}
);
layerId = "D85D3C93-227B-4B8E-AED6-B444EF8D585A";
name = "Bold Italic";
paths = (
{
closed = 1;
nodes = (
"418 435 LINE",
"418 497 LINE",
"70 497 LINE",
"59 414 LINE",
"260 414 LINE",
"-10 61 LINE",
"-10 0 LINE",
"373 0 LINE",
"384 84 LINE",
"145 84 LINE"
);
}
);
width = 418;
}
);
leftKerningGroup = z;
rightKerningGroup = z;
unicode = 007A;
},
{
glyphname = fi;
lastChange = "2015-02-06 22:45:45 +0000";
layers = (
{
hints = (
{
horizontal = 1;
place = "{-230.000000, 64.000000}";
},
{
horizontal = 1;
place = "{427.000000, 63.000000}";
},
{
horizontal = 1;
place = "{707.000000, 64.000000}";
},
{
horizontal = 1;
place = "{0.000000, 21.000000}";
target = up;
type = BottomGhost;
}
);
layerId = UUID0;
name = "Regular Italic";
paths = (
{
closed = 1;
nodes = (
"491 658 LINE",
"476 733 OFFCURVE",
"416 771 OFFCURVE",
"339 771 CURVE SMOOTH",
"182 771 OFFCURVE",
"143 653 OFFCURVE",
"119 490 CURVE",
"47 490 LINE",
"38 427 LINE",
"109 427 LINE",
"44 -52 LINE SMOOTH",
"33 -136 OFFCURVE",
"0 -166 OFFCURVE",
"-45 -166 CURVE SMOOTH",
"-79 -166 OFFCURVE",
"-88 -160 OFFCURVE",
"-115 -142 CURVE",
"-155 -199 LINE",
"-127 -217 OFFCURVE",
"-98 -230 OFFCURVE",
"-43 -230 CURVE SMOOTH",
"47 -230 OFFCURVE",
"108 -168 OFFCURVE",
"122 -62 CURVE SMOOTH",
"189 427 LINE",
"372 427 LINE",
"315 0 LINE",
"404 0 LINE",
"404 62 LINE",
"460 490 LINE",
"199 490 LINE",
"200 501 OFFCURVE",
"202 513 OFFCURVE",
"202 513 CURVE",
"226 674 OFFCURVE",
"281 707 OFFCURVE",
"336 707 CURVE SMOOTH",
"379 707 OFFCURVE",
"409 682 OFFCURVE",
"414 635 CURVE"
);
}
);
width = 500;
},
{
hints = (
{
place = "{-170.000000, 695.000000}";
},
{
horizontal = 1;
place = "{-230.000000, 79.000000}";
},
{
horizontal = 1;
place = "{0.000000, 21.000000}";
target = up;
type = BottomGhost;
},
{
horizontal = 1;
place = "{414.000000, 83.000000}";
},
{
horizontal = 1;
place = "{694.000000, 82.000000}";
}
);
layerId = "D85D3C93-227B-4B8E-AED6-B444EF8D585A";
name = "Bold Italic";
paths = (
{
closed = 1;
nodes = (
"525 631 LINE",
"501 749 OFFCURVE",
"396 776 OFFCURVE",
"350 776 CURVE SMOOTH",
"181 776 OFFCURVE",
"127 650 OFFCURVE",
"107 497 CURVE",
"28 497 LINE",
"18 414 LINE",
"97 414 LINE",
"36 -35 LINE SMOOTH",
"29 -85 OFFCURVE",
"12 -151 OFFCURVE",
"-49 -151 CURVE SMOOTH",
"-71 -151 OFFCURVE",
"-106 -135 OFFCURVE",
"-122 -120 CURVE",
"-170 -186 LINE",
"-142 -219 OFFCURVE",
"-73 -230 OFFCURVE",
"-33 -230 CURVE SMOOTH",
"84 -230 OFFCURVE",
"134 -155 OFFCURVE",
"149 -47 CURVE SMOOTH",
"211 414 LINE",
"384 414 LINE",
"328 0 LINE",
"452 0 LINE",
"450 55 LINE",
"509 497 LINE",
"222 497 LINE",
"232 567 OFFCURVE",
"259 694 OFFCURVE",
"344 694 CURVE SMOOTH",
"387 694 OFFCURVE",
"413 641 OFFCURVE",
"413 600 CURVE"
);
}
);
width = 530;
}
);
rightKerningGroup = i;
unicode = FB01;
},
{
glyphname = fl;
lastChange = "2015-02-06 22:45:45 +0000";
layers = (
{
hints = (
{
horizontal = 1;
place = "{-230.000000, 64.000000}";
},
{
horizontal = 1;
place = "{427.000000, 63.000000}";
},
{
horizontal = 1;
place = "{709.000000, 63.000000}";
},
{
horizontal = 1;
place = "{0.000000, 21.000000}";
target = up;
type = BottomGhost;
}
);
layerId = UUID0;
name = "Regular Italic";
paths = (
{
closed = 1;
nodes = (
"514 766 LINE",
"445 740 LINE",
"436 747 OFFCURVE",
"399 772 OFFCURVE",
"341 772 CURVE SMOOTH",
"172 772 OFFCURVE",
"137 627 OFFCURVE",
"119 490 CURVE",
"47 490 LINE",
"38 427 LINE",
"109 427 LINE",
"45 -52 LINE SMOOTH",
"34 -136 OFFCURVE",
"0 -166 OFFCURVE",
"-44 -166 CURVE SMOOTH",
"-78 -166 OFFCURVE",
"-88 -160 OFFCURVE",
"-114 -141 CURVE",
"-154 -199 LINE",
"-126 -217 OFFCURVE",
"-97 -230 OFFCURVE",
"-42 -230 CURVE SMOOTH",
"48 -230 OFFCURVE",
"107 -177 OFFCURVE",
"123 -62 CURVE SMOOTH",
"190 427 LINE",
"302 427 LINE",
"311 490 LINE",
"199 490 LINE",
"201 501 OFFCURVE",
"202 513 OFFCURVE",
"202 513 CURVE",
"225 685 OFFCURVE",
"288 709 OFFCURVE",
"345 709 CURVE SMOOTH",
"388 709 OFFCURVE",
"418 681 OFFCURVE",
"418 646 CURVE",
"330 0 LINE",
"420 0 LINE",
"420 63 LINE"
);
}
);
width = 519;
},
{
hints = (
{
place = "{-170.000000, 719.000000}";
},
{
horizontal = 1;
place = "{-230.000000, 79.000000}";
},
{
horizontal = 1;
place = "{0.000000, 21.000000}";
target = up;
type = BottomGhost;
},
{
horizontal = 1;
place = "{414.000000, 83.000000}";
},
{
horizontal = 1;
place = "{769.000000, -20.000000}";
target = down;
type = TopGhost;
},
{
horizontal = 1;
place = "{694.000000, 82.000000}";
}
);
layerId = "D85D3C93-227B-4B8E-AED6-B444EF8D585A";
name = "Bold Italic";
paths = (
{
closed = 1;
nodes = (
"549 769 LINE",
"452 745 LINE",
"430 761 OFFCURVE",
"386 776 OFFCURVE",
"357 776 CURVE SMOOTH",
"182 776 OFFCURVE",
"127 650 OFFCURVE",
"107 497 CURVE",
"28 497 LINE",
"18 414 LINE",
"97 414 LINE",
"36 -35 LINE SMOOTH",
"29 -85 OFFCURVE",
"12 -151 OFFCURVE",
"-49 -151 CURVE SMOOTH",
"-71 -151 OFFCURVE",
"-106 -135 OFFCURVE",
"-122 -120 CURVE",
"-170 -186 LINE",
"-142 -219 OFFCURVE",
"-73 -230 OFFCURVE",
"-33 -230 CURVE SMOOTH",
"84 -230 OFFCURVE",
"134 -155 OFFCURVE",
"149 -47 CURVE SMOOTH",
"211 414 LINE",
"329 414 LINE",
"340 497 LINE",
"222 497 LINE",
"232 567 OFFCURVE",
"262 694 OFFCURVE",
"354 694 CURVE SMOOTH",
"392 694 OFFCURVE",
"412 671 OFFCURVE",
"412 633 CURVE SMOOTH",
"412 628 OFFCURVE",
"412 622 OFFCURVE",
"411 617 CURVE SMOOTH",
"329 0 LINE",
"456 0 LINE",
"453 54 LINE"
);
}
);
width = 529;
}
);
rightKerningGroup = l;
unicode = FB02;
},
{
glyphname = ordfeminine;
lastChange = "2015-02-06 22:45:45 +0000";
layers = (
{
hints = (
{
place = "{32.000000, 60.000000}";
},
{
horizontal = 1;
place = "{277.000000, 54.000000}";
},
{
horizontal = 1;
place = "{385.000000, 40.000000}";
},
{
horizontal = 1;
place = "{681.000000, 40.000000}";
}
);
layerId = UUID0;
name = "Regular Italic";
paths = (
{
closed = 1;
nodes = (
"326 434 LINE",
"318 431 OFFCURVE",
"309 429 OFFCURVE",
"300 429 CURVE SMOOTH",
"284 429 OFFCURVE",
"279 439 OFFCURVE",
"279 455 CURVE SMOOTH",
"279 459 OFFCURVE",
"279 464 OFFCURVE",
"280 468 CURVE SMOOTH",
"316 716 LINE",
"288 716 LINE",
"274 691 LINE",
"257 713 OFFCURVE",
"227 721 OFFCURVE",
"203 721 CURVE SMOOTH",
"99 721 OFFCURVE",
"32 603 OFFCURVE",
"32 509 CURVE SMOOTH",
"32 441 OFFCURVE",
"64 385 OFFCURVE",
"134 385 CURVE SMOOTH",
"172 385 OFFCURVE",
"207 406 OFFCURVE",
"230 442 CURVE",
"233 410 OFFCURVE",
"254 386 OFFCURVE",
"285 386 CURVE SMOOTH",
"301 386 OFFCURVE",
"319 394 OFFCURVE",
"333 401 CURVE"
);
},
{
closed = 1;
nodes = (
"272 331 LINE",
"64 331 LINE",
"55 277 LINE",
"264 277 LINE"
);
},
{
closed = 1;
nodes = (
"247 594 LINE",
"233 509 OFFCURVE",
"205 425 OFFCURVE",
"144 425 CURVE SMOOTH",
"103 425 OFFCURVE",
"92 472 OFFCURVE",
"92 507 CURVE SMOOTH",
"92 571 OFFCURVE",
"127 681 OFFCURVE",
"205 681 CURVE SMOOTH",
"225 681 OFFCURVE",
"243 672 OFFCURVE",
"257 656 CURVE"
);
}
);
width = 363;
},
{
hints = (
{
place = "{31.000000, 81.000000}";
},
{
horizontal = 1;
place = "{252.000000, 58.000000}";
},
{
horizontal = 1;
place = "{368.000000, 56.000000}";
},
{
horizontal = 1;
place = "{660.000000, 55.000000}";
}
);
layerId = "D85D3C93-227B-4B8E-AED6-B444EF8D585A";
name = "Bold Italic";
paths = (
{
closed = 1;
nodes = (
"358 433 LINE",
"350 430 OFFCURVE",
"335 425 OFFCURVE",
"326 425 CURVE SMOOTH",
"313 425 OFFCURVE",
"310 438 OFFCURVE",
"310 449 CURVE SMOOTH",
"310 454 OFFCURVE",
"310 458 OFFCURVE",
"311 463 CURVE SMOOTH",
"347 709 LINE",
"305 709 LINE",
"290 682 LINE",
"266 706 OFFCURVE",
"232 715 OFFCURVE",
"210 715 CURVE SMOOTH",
"95 715 OFFCURVE",
"31 608 OFFCURVE",
"31 507 CURVE SMOOTH",
"31 436 OFFCURVE",
"65 368 OFFCURVE",
"145 368 CURVE SMOOTH",
"177 368 OFFCURVE",
"215 381 OFFCURVE",
"241 416 CURVE",
"245 416 LINE",
"250 389 OFFCURVE",
"272 370 OFFCURVE",
"299 370 CURVE SMOOTH",
"322 370 OFFCURVE",
"350 379 OFFCURVE",
"370 391 CURVE"
);
},
{
closed = 1;
nodes = (
"300 310 LINE",
"73 310 LINE",
"65 252 LINE",
"292 252 LINE"
);
},
{
closed = 1;
nodes = (
"249 541 OFFCURVE",
"227 424 OFFCURVE",
"160 424 CURVE SMOOTH",
"121 424 OFFCURVE",
"112 465 OFFCURVE",
"112 507 CURVE SMOOTH",
"112 555 OFFCURVE",
"133 660 OFFCURVE",
"205 660 CURVE SMOOTH",
"225 660 OFFCURVE",
"243 652 OFFCURVE",
"262 634 CURVE"
);
}
);
width = 371;
}
);
unicode = 00AA;
},
{
glyphname = ordmasculine;
lastChange = "2015-02-06 22:45:45 +0000";
layers = (
{
hints = (
{
place = "{33.000000, 61.000000}";
},
{
place = "{261.000000, 61.000000}";
},
{
horizontal = 1;
place = "{277.000000, 54.000000}";
},
{
horizontal = 1;
place = "{383.000000, 48.000000}";
},
{
horizontal = 1;
place = "{674.000000, 48.000000}";
}
);
layerId = UUID0;
name = "Regular Italic";
paths = (
{
closed = 1;
nodes = (
"322 657 OFFCURVE",
"283 722 OFFCURVE",
"200 722 CURVE SMOOTH",
"95 722 OFFCURVE",
"33 615 OFFCURVE",
"33 522 CURVE SMOOTH",
"33 447 OFFCURVE",
"72 383 OFFCURVE",
"155 383 CURVE SMOOTH",
"262 383 OFFCURVE",
"322 488 OFFCURVE",
"322 582 CURVE SMOOTH"
);
},
{
closed = 1;
nodes = (
"254 331 LINE",
"45 331 LINE",
"37 277 LINE",
"245 277 LINE"
);
},
{
closed = 1;
nodes = (
"261 520 OFFCURVE",
"231 431 OFFCURVE",
"161 431 CURVE SMOOTH",
"110 431 OFFCURVE",
"94 486 OFFCURVE",
"94 529 CURVE SMOOTH",
"94 587 OFFCURVE",
"126 674 OFFCURVE",
"194 674 CURVE SMOOTH",
"246 674 OFFCURVE",
"261 623 OFFCURVE",
"261 579 CURVE SMOOTH"
);
}
);
width = 355;
},
{
hints = (
{
place = "{18.000000, 84.000000}";
},
{
place = "{250.000000, 85.000000}";
},
{
horizontal = 1;
place = "{252.000000, 58.000000}";
},
{
horizontal = 1;
place = "{366.000000, 55.000000}";
},
{
horizontal = 1;
place = "{660.000000, 55.000000}";
}
);
layerId = "D85D3C93-227B-4B8E-AED6-B444EF8D585A";
name = "Bold Italic";
paths = (
{
closed = 1;
nodes = (
"335 657 OFFCURVE",
"287 715 OFFCURVE",
"200 715 CURVE SMOOTH",
"86 715 OFFCURVE",
"18 614 OFFCURVE",
"18 508 CURVE SMOOTH",
"18 423 OFFCURVE",
"66 366 OFFCURVE",
"152 366 CURVE SMOOTH",
"267 366 OFFCURVE",
"335 465 OFFCURVE",
"335 573 CURVE SMOOTH"
);
},
{
closed = 1;
nodes = (
"258 310 LINE",
"31 310 LINE",
"23 252 LINE",
"250 252 LINE"
);
},
{
closed = 1;
nodes = (
"250 521 OFFCURVE",
"231 421 OFFCURVE",
"161 421 CURVE SMOOTH",
"113 421 OFFCURVE",
"102 465 OFFCURVE",
"102 505 CURVE SMOOTH",
"102 559 OFFCURVE",
"121 660 OFFCURVE",
"192 660 CURVE SMOOTH",
"239 660 OFFCURVE",
"250 615 OFFCURVE",
"250 576 CURVE SMOOTH"
);
}
);
width = 355;
}
);
unicode = 00BA;
},
{
glyphname = pi;
lastChange = "2015-02-06 22:45:45 +0000";
layers = (
{
hints = (
{
place = "{369.000000, 80.000000}";
},
{
horizontal = 1;
place = "{-12.000000, 70.000000}";
},
{
horizontal = 1;
place = "{422.000000, 68.000000}";
},
{
horizontal = 1;
place = "{512.000000, -20.000000}";
target = down;
type = TopGhost;
},
{
horizontal = 1;
place = "{-31.000000, 21.000000}";
target = up;
type = BottomGhost;
}
);
layerId = UUID0;
name = "Regular Italic";
paths = (
{
closed = 1;
nodes = (
"628 512 LINE",
"594 493 OFFCURVE",
"566 490 OFFCURVE",
"531 490 CURVE SMOOTH",
"244 490 LINE SMOOTH",
"151 490 OFFCURVE",
"86 435 OFFCURVE",
"71 355 CURVE",
"84 350 OFFCURVE",
"99 346 OFFCURVE",
"114 342 CURVE",
"130 388 OFFCURVE",
"170 418 OFFCURVE",
"217 422 CURVE",
"214 409 OFFCURVE",
"209 398 OFFCURVE",
"207 386 CURVE SMOOTH",
"178 172 LINE SMOOTH",
"169 102 OFFCURVE",
"128 38 OFFCURVE",
"69 6 CURVE",
"76 -6 OFFCURVE",
"82 -19 OFFCURVE",
"87 -31 CURVE",
"236 20 OFFCURVE",
"265 192 OFFCURVE",
"284 331 CURVE SMOOTH",
"297 422 LINE",
"459 422 LINE",
"404 333 OFFCURVE",
"369 219 OFFCURVE",
"369 118 CURVE SMOOTH",
"369 52 OFFCURVE",
"390 -12 OFFCURVE",
"461 -12 CURVE SMOOTH",
"496 -12 OFFCURVE",
"527 0 OFFCURVE",
"553 21 CURVE",
"547 36 OFFCURVE",
"543 52 OFFCURVE",
"537 68 CURVE",
"523 62 OFFCURVE",
"510 58 OFFCURVE",
"495 58 CURVE SMOOTH",
"458 58 OFFCURVE",
"449 95 OFFCURVE",
"449 131 CURVE SMOOTH",
"449 218 OFFCURVE",
"488 328 OFFCURVE",
"530 422 CURVE",
"572 424 OFFCURVE",
"615 437 OFFCURVE",
"646 471 CURVE"
);
}
);
width = 669;
},
{
hints = (
{
place = "{356.000000, 111.000000}";
},
{
horizontal = 1;
place = "{-10.000000, 100.000000}";
},
{
horizontal = 1;
place = "{407.000000, 90.000000}";
}
);
layerId = "D85D3C93-227B-4B8E-AED6-B444EF8D585A";
name = "Bold Italic";
paths = (
{
closed = 1;
nodes = (
"551 98 LINE",
"538 93 OFFCURVE",
"526 90 OFFCURVE",
"513 90 CURVE SMOOTH",
"478 90 OFFCURVE",
"467 119 OFFCURVE",
"467 150 CURVE SMOOTH",
"467 228 OFFCURVE",
"506 331 OFFCURVE",
"537 407 CURVE",
"583 412 OFFCURVE",
"632 420 OFFCURVE",
"666 462 CURVE",
"642 520 LINE",
"600 501 OFFCURVE",
"585 497 OFFCURVE",
"541 497 CURVE SMOOTH",
"229 497 LINE SMOOTH",
"136 497 OFFCURVE",
"65 442 OFFCURVE",
"44 344 CURVE",
"105 326 LINE",
"118 367 OFFCURVE",
"154 407 OFFCURVE",
"195 407 CURVE SMOOTH",
"206 407 LINE",
"203 397 OFFCURVE",
"195 381 OFFCURVE",
"194 371 CURVE SMOOTH",
"169 181 LINE SMOOTH",
"160 117 OFFCURVE",
"118 59 OFFCURVE",
"64 25 CURVE",
"91 -30 LINE",
"266 36 OFFCURVE",
"291 219 OFFCURVE",
"312 380 CURVE SMOOTH",
"316 407 LINE",
"441 407 LINE",
"389 345 OFFCURVE",
"356 204 OFFCURVE",
"356 128 CURVE SMOOTH",
"356 56 OFFCURVE",
"384 -10 OFFCURVE",
"464 -10 CURVE SMOOTH",
"499 -10 OFFCURVE",
"544 5 OFFCURVE",
"572 31 CURVE"
);
}
);
width = 669;
}
);
unicode = 03C0;
},
{
glyphname = zero;
lastChange = "2015-02-06 22:45:45 +0000";
layers = (
{
hints = (
{
place = "{25.000000, 85.000000}";
},
{
place = "{402.000000, 86.000000}";
},
{
horizontal = 1;
place = "{-13.000000, 62.000000}";
},
{
horizontal = 1;
place = "{441.000000, 62.000000}";
}
);
layerId = UUID0;
name = "Regular Italic";
paths = (
{
closed = 1;
nodes = (
"488 405 OFFCURVE",
"417 503 OFFCURVE",
"286 503 CURVE SMOOTH",
"122 503 OFFCURVE",
"25 355 OFFCURVE",
"25 206 CURVE SMOOTH",
"25 85 OFFCURVE",
"96 -13 OFFCURVE",
"227 -13 CURVE SMOOTH",
"390 -13 OFFCURVE",
"488 136 OFFCURVE",
"488 284 CURVE SMOOTH"
);
},
{
closed = 1;
nodes = (
"402 184 OFFCURVE",
"366 49 OFFCURVE",
"233 49 CURVE SMOOTH",
"141 49 OFFCURVE",
"110 110 OFFCURVE",
"110 194 CURVE SMOOTH",
"110 306 OFFCURVE",
"148 441 OFFCURVE",
"280 441 CURVE SMOOTH",
"372 441 OFFCURVE",
"402 381 OFFCURVE",
"402 297 CURVE SMOOTH"
);
}
);
width = 513;
},
{
hints = (
{
place = "{38.000000, 123.000000}";
},
{
place = "{415.000000, 124.000000}";
},
{
horizontal = 1;
place = "{-12.000000, 81.000000}";
},
{
horizontal = 1;
place = "{429.000000, 81.000000}";
}
);
layerId = "D85D3C93-227B-4B8E-AED6-B444EF8D585A";
name = "Bold Italic";
paths = (
{
closed = 1;
nodes = (
"539 434 OFFCURVE",
"464 510 OFFCURVE",
"323 510 CURVE SMOOTH",
"152 510 OFFCURVE",
"38 396 OFFCURVE",
"38 197 CURVE SMOOTH",
"38 66 OFFCURVE",
"116 -12 OFFCURVE",
"254 -12 CURVE SMOOTH",
"459 -12 OFFCURVE",
"539 139 OFFCURVE",
"539 301 CURVE SMOOTH"
);
},
{
closed = 1;
nodes = (
"183 69 OFFCURVE",
"161 123 OFFCURVE",
"161 189 CURVE SMOOTH",
"161 286 OFFCURVE",
"190 429 OFFCURVE",
"312 429 CURVE SMOOTH",
"393 429 OFFCURVE",
"415 371 OFFCURVE",
"415 303 CURVE SMOOTH",
"415 202 OFFCURVE",
"384 69 OFFCURVE",
"265 69 CURVE SMOOTH"
);
}
);
width = 578;
}
);
unicode = 0030;
},
{
glyphname = one;
lastChange = "2015-02-06 22:45:45 +0000";
layers = (
{
hints = (
{
horizontal = 1;
place = "{0.000000, 67.000000}";
},
{
horizontal = 1;
place = "{493.000000, -20.000000}";
target = down;
type = TopGhost;
}
);
layerId = UUID0;
name = "Regular Italic";
paths = (
{
closed = 1;
nodes = (
"344 67 LINE",
"237 67 LINE",
"294 493 LINE",
"246 493 LINE",
"86 417 LINE",
"92 370 LINE",
"202 401 LINE",
"157 67 LINE",
"46 67 LINE",
"38 0 LINE",
"335 0 LINE"
);
}
);
width = 376;
},
{
hints = (
{
place = "{11.000000, 330.000000}";
},
{
horizontal = 1;
place = "{0.000000, 99.000000}";
},
{
horizontal = 1;
place = "{498.000000, -20.000000}";
target = down;
type = TopGhost;
}
);
layerId = "D85D3C93-227B-4B8E-AED6-B444EF8D585A";
name = "Bold Italic";
paths = (
{
closed = 1;
nodes = (
"328 0 LINE",
"341 99 LINE",
"242 99 LINE",
"294 498 LINE",
"220 498 LINE",
"45 413 LINE",
"57 349 LINE",
"163 378 LINE",
"127 99 LINE",
"24 99 LINE",
"11 0 LINE"
);
}
);
width = 382;
}
);
unicode = 0031;
},
